<svg width="337" height="55" viewBox="0 0 337 55" fill="none" xmlns="http://www.w3.org/2000/svg">
<g clip-path="url(#clip0_785_2139)">
<path d="M186.23 43.88C185 43.88 183.97 43.48 183.14 42.68C182.32 41.88 181.86 40.82 181.77 39.49V26.81C181.82 24.62 182.28 22.55 183.18 20.6C184.07 18.66 185.26 16.97 186.75 15.53C188.24 14.09 189.97 12.95 191.96 12.1C193.95 11.25 196.06 10.79 198.3 10.69C199.58 10.69 200.64 11.12 201.49 11.99C202.34 12.86 202.8 13.91 202.9 15.14C202.9 16.37 202.47 17.41 201.6 18.26C200.73 19.11 199.66 19.55 198.38 19.6C197.33 19.6 196.35 19.79 195.43 20.18C194.51 20.57 193.72 21.11 193.03 21.79C192.34 22.48 191.8 23.29 191.38 24.22C190.97 25.16 190.76 26.17 190.76 27.27V39.75C190.67 40.94 190.22 41.92 189.42 42.7C188.62 43.49 187.56 43.88 186.23 43.88ZM168.27 23.38C167.49 21.96 166.58 20.97 165.53 20.4C164.48 19.83 163.31 19.54 162.03 19.54C160.7 19.54 159.53 19.83 158.5 20.4C157.47 20.97 156.57 21.97 155.79 23.38H168.27ZM162.03 10.63C164.22 10.63 166.33 11.09 168.34 12C170.35 12.91 172.12 14.14 173.65 15.67C175.18 17.2 176.4 18.96 177.32 20.95C178.23 22.94 178.69 25.03 178.69 27.22C178.69 28.41 178.24 29.35 177.35 30.03C176.46 30.72 175.35 31.04 174.02 30.99H155.78C157.29 33.6 159.37 34.9 162.02 34.9C162.75 34.9 163.37 34.83 163.87 34.69C164.37 34.55 164.82 34.39 165.21 34.21C165.6 34.03 165.99 33.87 166.38 33.73C166.77 33.59 167.21 33.52 167.72 33.52C168.68 33.57 169.51 33.84 170.22 34.34C170.93 34.84 171.45 35.47 171.8 36.23C172.14 36.98 172.26 37.8 172.14 38.66C172.03 39.53 171.63 40.33 170.94 41.06C169.71 42.07 168.33 42.76 166.83 43.15C165.32 43.54 163.72 43.76 162.03 43.8C159.84 43.89 157.73 43.49 155.72 42.6C153.71 41.71 151.94 40.5 150.41 38.97C148.88 37.44 147.67 35.64 146.78 33.59C145.89 31.53 145.44 29.41 145.44 27.21C145.44 25.06 145.89 22.98 146.78 20.97C147.67 18.96 148.87 17.19 150.38 15.66C151.89 14.13 153.65 12.91 155.66 11.99C157.66 11.08 159.79 10.63 162.03 10.63ZM117.8 0C119.08 0 120.15 0.45 121.02 1.34C121.89 2.23 122.37 3.34 122.46 4.67V10.16H134.25C135.58 10.16 136.65 10.62 137.47 11.53C138.29 12.44 138.7 13.52 138.7 14.75C138.7 15.94 138.24 17 137.33 17.94C136.42 18.88 135.39 19.35 134.24 19.35H122.45V26.89C122.45 27.94 122.64 28.94 123.03 29.87C123.42 30.81 123.96 31.64 124.64 32.37C125.33 33.1 126.14 33.67 127.07 34.08C128.01 34.49 129.02 34.7 130.12 34.7C131.31 34.7 132.33 34.54 133.17 34.22C134.02 33.9 134.76 33.42 135.4 32.78C136.36 31.96 137.42 31.53 138.59 31.51C139.76 31.49 140.84 31.93 141.85 32.85C142.31 33.26 142.65 33.73 142.88 34.26C143.11 34.79 143.23 35.33 143.26 35.91C143.28 36.48 143.2 37.04 143.02 37.59C142.84 38.14 142.54 38.62 142.13 39.03C140.53 40.58 138.77 41.77 136.85 42.6C134.93 43.42 132.87 43.83 130.68 43.83C128.3 43.83 126.06 43.43 123.96 42.63C121.86 41.83 120.01 40.69 118.41 39.2C116.81 37.71 115.54 35.93 114.6 33.85C113.66 31.77 113.17 29.45 113.13 26.89V4.32C113.13 3.09 113.6 2.06 114.54 1.23C115.48 0.41 116.57 0 117.8 0ZM103.27 10.49C104.5 10.49 105.53 10.96 106.36 11.9C107.18 12.84 107.59 13.83 107.59 14.88C107.59 16.07 107.14 17.11 106.25 18C105.36 18.89 104.36 19.34 103.27 19.34H91.4798C90.9298 19.34 90.4598 19.5 90.0698 19.82C89.6798 20.14 89.4898 20.6 89.4898 21.19C89.4898 21.83 89.6798 22.32 90.0698 22.66C90.4598 23 90.9298 23.17 91.4798 23.17H99.2298C100.65 23.17 101.96 23.47 103.17 24.06C104.38 24.65 105.43 25.44 106.32 26.43C107.21 27.41 107.91 28.45 108.41 29.55C108.91 30.65 109.16 31.88 109.16 33.25C109.21 34.76 108.94 36.18 108.37 37.5C107.8 38.83 107.03 39.95 106.07 40.86C105.11 41.77 103.99 42.49 102.71 43.02C101.43 43.55 99.9898 43.81 98.3898 43.81H85.7798C84.5898 43.81 83.5598 43.4 82.6898 42.58C81.8198 41.76 81.3898 40.73 81.3898 39.49C81.3898 38.35 81.7998 37.31 82.6198 36.37C83.4398 35.43 84.4498 34.94 85.6398 34.9H98.2598C99.4898 34.9 100.11 34.35 100.11 33.25C100.11 32.02 99.4898 31.4 98.2598 31.4H90.7198C89.3498 31.4 88.0598 31.11 86.8498 30.54C85.6398 29.97 84.5898 29.18 83.6998 28.17C82.8098 27.16 82.1098 26.07 81.6098 24.88C81.1098 23.69 80.8598 22.41 80.8598 21.04C80.8598 19.67 81.1198 18.34 81.6498 17.06C82.1798 15.78 82.8998 14.66 83.8098 13.7C84.7198 12.74 85.7998 11.97 87.0298 11.4C88.2598 10.83 89.6098 10.52 91.0798 10.47H103.27V10.49ZM60.2098 34.9C61.2598 34.9 62.2598 34.71 63.1898 34.32C64.1298 33.93 64.9398 33.39 65.6198 32.71C66.3098 32.02 66.8498 31.21 67.2698 30.28C67.6798 29.34 67.8898 28.33 67.8898 27.23C67.8898 26.22 67.6798 25.25 67.2698 24.32C66.8598 23.38 66.2998 22.56 65.5898 21.85C64.8798 21.14 64.0598 20.58 63.1198 20.17C62.1798 19.76 61.2098 19.55 60.2098 19.55C59.1998 19.55 58.2398 19.76 57.3298 20.17C56.4198 20.58 55.5998 21.14 54.8998 21.85C54.1898 22.56 53.6298 23.38 53.2198 24.32C52.8098 25.26 52.5998 26.23 52.5998 27.23C52.5998 28.28 52.8198 29.28 53.2498 30.21C53.6798 31.15 54.2598 31.96 54.9598 32.64C55.6698 33.33 56.4798 33.87 57.3898 34.29C58.3098 34.69 59.2498 34.9 60.2098 34.9ZM62.1998 10.7C64.2598 10.93 66.1898 11.52 67.9898 12.48C69.7998 13.44 71.3498 14.66 72.6498 16.15C73.9498 17.64 74.9798 19.33 75.7398 21.22C76.4898 23.12 76.8698 25.12 76.8698 27.22V39.36C76.8698 40.59 76.4098 41.65 75.4998 42.51C74.5898 43.38 73.5598 43.81 72.4098 43.81C70.8098 43.81 69.5298 43.08 68.5698 41.62C68.3398 41.71 68.1398 41.81 67.9498 41.93C67.7698 42.04 67.5798 42.15 67.3998 42.24C66.2998 42.74 65.1798 43.13 64.0398 43.41C62.8498 43.68 61.5898 43.82 60.2698 43.82C56.8398 43.82 53.7798 42.89 51.0798 41.04C48.3798 39.19 46.3698 36.8 45.0498 33.87C44.5898 32.82 44.2398 31.74 43.9898 30.65C43.7398 29.55 43.6098 28.41 43.6098 27.22C43.6098 26.03 43.7398 24.89 43.9898 23.79C44.2398 22.69 44.5998 21.62 45.0498 20.57C46.3798 17.6 48.3898 15.2 51.0798 13.37C53.7798 11.54 56.8398 10.63 60.2698 10.63C60.6398 10.63 60.9698 10.63 61.2598 10.63C61.5698 10.63 61.8798 10.65 62.1998 10.7ZM12.2198 10.63C13.5898 10.63 14.9298 10.85 16.2298 11.28C17.5298 11.71 18.7298 12.39 19.8298 13.3C22.0198 11.52 24.5798 10.63 27.5098 10.63C29.1098 10.63 30.6498 10.94 32.1398 11.56C33.6298 12.18 34.9298 13.01 36.0498 14.06C37.1698 15.11 38.0598 16.37 38.7198 17.83C39.3798 19.29 39.7098 20.85 39.7098 22.49V39.7C39.7098 40.8 39.2498 41.76 38.3398 42.58C37.4298 43.4 36.3698 43.81 35.1898 43.81C33.9998 43.81 32.9598 43.36 32.0698 42.47C31.1798 41.58 30.7298 40.54 30.7298 39.35V22.69C30.7298 21.82 30.4198 21.09 29.7998 20.5C29.1798 19.91 28.4198 19.61 27.4998 19.61C26.7198 19.61 25.9998 19.87 25.3398 20.4C24.6798 20.93 24.3498 21.69 24.3498 22.7V39.36C24.3498 40.59 23.8998 41.65 23.0098 42.51C22.1198 43.38 21.0598 43.81 19.8198 43.81C18.6798 43.81 17.6498 43.41 16.7298 42.61C15.8198 41.81 15.3598 40.84 15.3598 39.7V22.7C15.3098 21.79 14.9698 21.04 14.3298 20.47C13.6898 19.9 12.9798 19.61 12.1998 19.61C11.3298 19.61 10.5898 19.91 9.96975 20.5C9.34975 21.09 9.01975 21.85 8.97975 22.76V39.76C8.88975 40.86 8.41975 41.81 7.56975 42.61C6.71975 43.41 5.70975 43.81 4.51975 43.81C3.87975 43.81 3.28975 43.7 2.73975 43.47C2.18975 43.24 1.70975 42.92 1.29975 42.51C0.889753 42.1 0.559753 41.62 0.309753 41.07C0.0597534 40.52 -0.0402466 39.95 -0.000246568 39.36V22.49C-0.000246568 20.89 0.319753 19.37 0.959753 17.93C1.59975 16.49 2.46975 15.23 3.56975 14.16C4.66975 13.09 5.95975 12.23 7.43975 11.59C8.93975 10.95 10.5198 10.63 12.2198 10.63Z" fill="#D22222"/>
<path d="M306.77 27.2209C306.77 28.3609 306.98 29.4009 307.39 30.3409C307.8 31.2809 308.36 32.0909 309.07 32.7709C309.78 33.4609 310.6 33.9909 311.54 34.3809C312.48 34.7709 313.45 34.9609 314.45 34.9609C315.55 34.9609 316.55 34.7509 317.47 34.3409C318.38 33.9309 319.18 33.3709 319.87 32.6609C320.56 31.9509 321.09 31.1309 321.48 30.1909C321.87 29.2509 322.06 28.2609 322.06 27.2109C322.06 26.1609 321.85 25.1609 321.44 24.2309C321.03 23.2909 320.48 22.4809 319.79 21.8009C319.1 21.1109 318.3 20.5809 317.39 20.1909C316.48 19.8009 315.49 19.6109 314.44 19.6109C313.34 19.6109 312.33 19.8209 311.39 20.2309C310.45 20.6409 309.64 21.1909 308.96 21.8809C308.27 22.5709 307.74 23.3709 307.35 24.2809C306.96 25.1909 306.77 26.1709 306.77 27.2209ZM314.45 10.6309C316.69 10.6309 318.82 11.0609 320.83 11.9309C322.84 12.8009 324.6 13.9909 326.11 15.5009C327.62 17.0109 328.82 18.7709 329.71 20.7809C330.6 22.7909 331.05 24.9409 331.05 27.2309C331.05 29.5209 330.63 31.6609 329.78 33.6809C328.93 35.6909 327.77 37.4509 326.28 38.9609C324.79 40.4709 323.03 41.6609 321 42.5309C318.97 43.4009 316.78 43.8309 314.45 43.8309C311.62 43.8309 309.06 43.2609 306.77 42.1209V50.0009C306.77 51.1909 306.34 52.2209 305.47 53.0909C304.6 53.9609 303.53 54.3909 302.25 54.3909C301.11 54.3909 300.09 53.9909 299.2 53.1909C298.31 52.3909 297.84 51.4009 297.79 50.2109V27.2209C297.79 24.9809 298.24 22.8509 299.13 20.8409C300.02 18.8309 301.22 17.0709 302.73 15.5609C304.24 14.0509 306 12.8509 308.01 11.9609C310.01 11.0709 312.16 10.6309 314.45 10.6309ZM283.94 23.3809C283.16 21.9609 282.25 20.9709 281.2 20.4009C280.15 19.8309 278.98 19.5409 277.7 19.5409C276.37 19.5409 275.2 19.8309 274.17 20.4009C273.14 20.9709 272.24 21.9709 271.46 23.3809H283.94ZM277.7 10.6309C279.89 10.6309 282 11.0909 284.01 12.0009C286.02 12.9109 287.79 14.1409 289.32 15.6709C290.85 17.2009 292.07 18.9609 292.99 20.9509C293.9 22.9409 294.36 25.0309 294.36 27.2209C294.36 28.4109 293.91 29.3509 293.02 30.0309C292.13 30.7209 291.02 31.0409 289.69 30.9909H271.45C272.96 33.6009 275.04 34.9009 277.69 34.9009C278.42 34.9009 279.04 34.8309 279.54 34.6909C280.04 34.5509 280.49 34.3909 280.88 34.2109C281.27 34.0309 281.66 33.8709 282.05 33.7309C282.44 33.5909 282.88 33.5209 283.39 33.5209C284.35 33.5709 285.18 33.8409 285.89 34.3409C286.6 34.8409 287.12 35.4709 287.47 36.2309C287.81 36.9809 287.93 37.8009 287.81 38.6609C287.7 39.5309 287.3 40.3309 286.61 41.0609C285.38 42.0709 284 42.7609 282.5 43.1509C280.99 43.5409 279.39 43.7609 277.7 43.8009C275.51 43.8909 273.4 43.4909 271.39 42.6009C269.38 41.7109 267.61 40.5009 266.08 38.9709C264.55 37.4409 263.34 35.6409 262.45 33.5909C261.56 31.5309 261.11 29.4109 261.11 27.2109C261.11 25.0609 261.56 22.9809 262.45 20.9709C263.34 18.9609 264.54 17.1909 266.05 15.6609C267.56 14.1309 269.32 12.9109 271.33 11.9909C273.33 11.0809 275.46 10.6309 277.7 10.6309ZM243.76 43.8809C242.53 43.8809 241.5 43.4809 240.67 42.6809C239.85 41.8809 239.39 40.8209 239.3 39.4909V26.8109C239.35 24.6209 239.81 22.5509 240.71 20.6009C241.6 18.6609 242.79 16.9709 244.28 15.5309C245.77 14.0909 247.5 12.9509 249.49 12.1009C251.48 11.2509 253.59 10.7909 255.83 10.6909C257.11 10.6909 258.17 11.1209 259.02 11.9909C259.87 12.8609 260.33 13.9109 260.43 15.1409C260.43 16.3709 260 17.4109 259.13 18.2609C258.26 19.1109 257.19 19.5509 255.91 19.6009C254.86 19.6009 253.88 19.7909 252.96 20.1809C252.05 20.5709 251.25 21.1109 250.56 21.7909C249.87 22.4809 249.33 23.2909 248.91 24.2209C248.5 25.1609 248.29 26.1709 248.29 27.2709V39.7509C248.2 40.9409 247.75 41.9209 246.95 42.7009C246.15 43.4909 245.08 43.8809 243.76 43.8809ZM212.49 27.2209C212.49 28.3609 212.7 29.4009 213.11 30.3409C213.52 31.2809 214.08 32.0909 214.79 32.7709C215.5 33.4609 216.32 33.9909 217.26 34.3809C218.2 34.7709 219.17 34.9609 220.17 34.9609C221.27 34.9609 222.27 34.7509 223.19 34.3409C224.1 33.9309 224.9 33.3709 225.59 32.6609C226.28 31.9509 226.81 31.1309 227.2 30.1909C227.59 29.2509 227.78 28.2609 227.78 27.2109C227.78 26.1609 227.57 25.1609 227.16 24.2309C226.75 23.2909 226.2 22.4809 225.51 21.8009C224.82 21.1109 224.02 20.5809 223.11 20.1909C222.2 19.8009 221.21 19.6109 220.16 19.6109C219.06 19.6109 218.05 19.8209 217.11 20.2309C216.17 20.6409 215.36 21.1909 214.68 21.8809C213.99 22.5709 213.46 23.3709 213.07 24.2809C212.69 25.1909 212.49 26.1709 212.49 27.2209ZM220.17 10.6309C222.41 10.6309 224.54 11.0609 226.55 11.9309C228.56 12.8009 230.32 13.9909 231.83 15.5009C233.34 17.0109 234.54 18.7709 235.43 20.7809C236.32 22.7909 236.77 24.9409 236.77 27.2309C236.77 29.5209 236.35 31.6609 235.5 33.6809C234.65 35.6909 233.49 37.4509 232 38.9609C230.51 40.4709 228.75 41.6609 226.72 42.5309C224.69 43.4009 222.5 43.8309 220.17 43.8309C217.34 43.8309 214.78 43.2609 212.49 42.1209V50.0009C212.49 51.1909 212.06 52.2209 211.19 53.0909C210.32 53.9609 209.25 54.3909 207.97 54.3909C206.83 54.3909 205.81 53.9909 204.92 53.1909C204.03 52.3909 203.56 51.4009 203.51 50.2109V27.2209C203.51 24.9809 203.96 22.8509 204.85 20.8409C205.74 18.8309 206.94 17.0709 208.45 15.5609C209.96 14.0509 211.72 12.8509 213.73 11.9609C215.74 11.0709 217.89 10.6309 220.17 10.6309Z" fill="black"/>
<path fill-rule="evenodd" clip-rule="evenodd" d="M316.45 8.85L336.3 5.75L333.19 25.66C332.7 15.08 324.84 9.1 316.45 8.85Z" fill="#D22222"/>
</g>
<defs>
<clipPath id="clip0_785_2139">
<rect width="336.29" height="54.37" fill="white"/>
</clipPath>
</defs>
</svg>
