<?xml version="1.0" standalone="no"?>
<!DOCTYPE svg PUBLIC "-//W3C//DTD SVG 20010904//EN"
 "http://www.w3.org/TR/2001/REC-SVG-20010904/DTD/svg10.dtd">
<svg version="1.0" xmlns="http://www.w3.org/2000/svg"
 width="700.000000pt" height="700.000000pt" viewBox="0 0 700.000000 700.000000"
 preserveAspectRatio="xMidYMid meet">
<metadata>
Created by potrace 1.14, written by Peter Selinger 2001-2017
</metadata>
<g transform="translate(0.000000,700.000000) scale(0.100000,-0.100000)"
fill="#000000" stroke="none">
<path d="M1802 6989 c-79 -10 -113 -15 -182 -29 -30 -7 -68 -14 -85 -17 -140
-24 -475 -171 -635 -279 -155 -103 -328 -259 -427 -382 -21 -26 -44 -53 -51
-61 -18 -19 -121 -174 -157 -236 -132 -228 -219 -497 -254 -785 -11 -87 -9
-3392 2 -3429 3 -14 9 -45 12 -71 3 -25 19 -101 35 -168 176 -719 733 -1283
1451 -1466 74 -19 158 -37 188 -41 30 -4 63 -10 75 -13 34 -10 3343 -12 3426
-1 282 35 542 118 767 245 98 55 211 129 255 166 14 13 46 39 69 58 66 53 187
176 255 260 192 235 354 571 409 850 4 23 24 147 35 215 14 93 6 3396 -8 3465
-6 30 -14 71 -17 90 -3 19 -14 69 -25 110 -11 41 -23 86 -26 99 -11 51 -67
191 -120 301 -128 264 -322 507 -544 682 -123 98 -127 100 -220 156 -184 110
-390 194 -596 241 -211 49 -192 49 -1934 49 -899 -1 -1663 -4 -1698 -9z"/>
</g>
</svg>
