<svg width="28" height="28" viewBox="0 0 28 28" fill="none" xmlns="http://www.w3.org/2000/svg">
<path d="M5.46078 23.587L5.51496 14.1188H4.44713V26.1652C5.91681 25.7859 7.38874 25.5444 8.87422 25.5353C10.2446 25.5263 11.6149 25.7182 12.9898 26.1832C12.1364 25.4924 11.1837 24.9845 10.1701 24.6526C8.89002 24.235 7.50839 24.0973 6.09064 24.2192C5.77006 24.2463 5.49013 24.007 5.46304 23.6886C5.45852 23.6525 5.45852 23.6209 5.46078 23.587ZM7.1088 7.79989C6.97335 7.80215 6.85144 7.75022 6.76114 7.66669C6.66858 7.57865 6.60988 7.459 6.60536 7.31903C6.60085 7.18357 6.65277 7.05489 6.73856 6.96459C6.8266 6.87203 6.94626 6.81333 7.08622 6.80882L8.16986 6.7727C8.30531 6.76818 8.43399 6.82011 8.52429 6.90589C8.61685 6.99394 8.67555 7.11359 8.68007 7.25356V7.26033H8.68232L8.68007 7.27839C8.67781 7.40482 8.62814 7.52221 8.54687 7.608C8.45882 7.70056 8.33917 7.75925 8.1992 7.76377H8.19243V7.76603H8.18114L7.1088 7.79989ZM13.7822 0.485377C13.7867 0.347665 13.8454 0.225757 13.9379 0.137711C14.0282 0.051924 14.1524 0 14.2856 0.00225757V0C14.2969 0 14.3082 0.00225757 14.3195 0.00225757C14.4436 0.0135454 14.5565 0.0699845 14.6378 0.153514C14.7236 0.243817 14.7755 0.365726 14.7732 0.50118H14.7755C14.7755 0.51021 14.7755 0.51924 14.7732 0.526013L14.7461 1.58481H14.7484C14.7484 1.5961 14.7461 1.60739 14.7461 1.61867C14.7371 1.7451 14.6784 1.85572 14.5949 1.93699C14.5046 2.02278 14.3804 2.0747 14.2472 2.07245C14.2359 2.07245 14.2246 2.07245 14.2134 2.07019C14.0869 2.06116 13.9763 2.00246 13.895 1.91893C13.8093 1.82863 13.7573 1.70446 13.7573 1.57127H13.7551C13.7551 1.56224 13.7551 1.55321 13.7573 1.54643L13.7822 0.485377ZM18.4689 1.94602C18.5456 1.83089 18.6608 1.7609 18.7827 1.73607C18.9068 1.71123 19.04 1.73381 19.1552 1.81057L19.1574 1.81283C19.2703 1.88732 19.3425 2.00472 19.3674 2.12888C19.3922 2.25305 19.3674 2.38625 19.2929 2.50138L18.6901 3.40441C18.6134 3.51954 18.4982 3.59179 18.3741 3.61662C18.2499 3.64145 18.1167 3.61888 18.0016 3.54212C17.8864 3.46536 17.8164 3.35023 17.7916 3.22606C17.7668 3.1019 17.7893 2.9687 17.8661 2.85356L18.4689 1.94602ZM20.6045 6.26249L20.6203 6.26023C20.749 6.25346 20.8687 6.29409 20.9635 6.37085C21.0628 6.44986 21.1283 6.56952 21.1441 6.70497V6.70948C21.1441 6.70948 21.1441 6.72303 21.1441 6.72529C21.1509 6.85397 21.1102 6.97588 21.0335 7.06844C20.9545 7.16777 20.8348 7.23324 20.6993 7.24904L19.6202 7.36192C19.4848 7.37547 19.3538 7.33257 19.2568 7.25356C19.1574 7.17454 19.0897 7.05489 19.0762 6.91944C19.0626 6.78398 19.1055 6.65305 19.1845 6.55597C19.2635 6.45664 19.3832 6.38891 19.5186 6.37537C19.8821 6.33924 20.2433 6.29635 20.6045 6.26249ZM8.4069 2.3411C8.30757 2.24628 8.25339 2.12211 8.24887 1.99569C8.24436 1.86926 8.28725 1.74058 8.37981 1.64125C8.47463 1.53966 8.59879 1.48774 8.72522 1.48322C8.85164 1.47871 8.98032 1.5216 9.07966 1.61416L9.87432 2.35464C9.97365 2.4472 10.0278 2.57362 10.0323 2.70005C10.0369 2.82873 9.99397 2.95515 9.90141 3.05449C9.80885 3.15382 9.68243 3.208 9.556 3.21252C9.42732 3.21703 9.3009 3.17414 9.20156 3.08158L8.4069 2.3411ZM10.9015 11.5926C10.7141 11.3781 10.5222 11.1591 10.3371 10.9086C10.1452 10.6512 9.96236 10.36 9.79982 10.0146H9.79756C9.64179 9.67818 9.51762 9.33278 9.43409 8.97834C9.35056 8.62616 9.30767 8.26495 9.31218 7.89245C9.31444 7.52221 9.36411 7.14971 9.46118 6.77044C9.56052 6.39117 9.705 6.00964 9.90367 5.62811L9.92173 5.59425C10.1791 5.15628 10.4906 4.7883 10.8383 4.48578C11.2085 4.16295 11.6172 3.91688 12.0461 3.74079L12.08 3.7295C12.4163 3.59404 12.764 3.50374 13.1139 3.45408C13.4842 3.39989 13.8634 3.39312 14.2427 3.42698C14.6107 3.46085 14.9742 3.53535 15.3241 3.64823C15.6763 3.7611 16.0126 3.91236 16.3264 4.09748C16.7373 4.3413 17.1121 4.64607 17.4304 5.00502C17.7374 5.35269 17.988 5.74776 18.1686 6.18573C18.2657 6.42052 18.347 6.67562 18.4079 6.94879C18.4689 7.21744 18.505 7.50189 18.514 7.79763C18.5231 8.10466 18.5005 8.42072 18.4395 8.74807C18.3831 9.0551 18.2905 9.3689 18.1618 9.68947C18.1506 9.71882 18.1348 9.74591 18.1167 9.77074L16.279 12.6266C16.2136 12.7282 16.1097 12.7914 15.9968 12.8072L12.1432 13.3648C11.94 13.3941 11.7526 13.2655 11.6984 13.0736C11.6014 12.7891 11.4772 12.5024 11.3372 12.2405C11.204 11.9922 11.055 11.7687 10.9015 11.5926ZM10.9828 10.43C11.1521 10.658 11.3304 10.8634 11.5065 11.0643C11.7029 11.2901 11.8858 11.5633 12.0461 11.859C12.159 12.0689 12.2628 12.2924 12.3531 12.5205L15.6988 12.0396L17.4236 9.35761C17.5275 9.09799 17.5997 8.84514 17.6449 8.60358C17.6945 8.33267 17.7148 8.07305 17.7081 7.82246V7.82021C17.7013 7.57865 17.6697 7.34612 17.6223 7.12488C17.5749 6.90815 17.5049 6.69594 17.4214 6.4905C17.2769 6.13381 17.0737 5.81549 16.8299 5.53781C16.5703 5.24433 16.261 4.99373 15.9178 4.79055C15.6537 4.63478 15.3715 4.50836 15.0803 4.41354C14.7845 4.31872 14.4798 4.25551 14.1727 4.22616C13.8612 4.19681 13.5451 4.20584 13.2313 4.24874C12.9401 4.28937 12.6556 4.36387 12.3847 4.47224L12.3531 4.48578C12.0009 4.62801 11.6691 4.82893 11.3733 5.08855C11.0934 5.33237 10.8406 5.63263 10.6283 5.99384L10.6261 5.99835C10.4523 6.33247 10.3281 6.6553 10.2468 6.97136C10.1655 7.28516 10.1249 7.59445 10.1227 7.89922C10.1204 8.19948 10.1565 8.49973 10.2265 8.79548C10.2965 9.09122 10.4003 9.38244 10.5358 9.67367H10.5335C10.6645 9.96489 10.8202 10.2087 10.9828 10.43ZM14.8297 17.39C14.5723 17.5413 14.2833 17.6271 13.9944 17.6451C13.7009 17.6632 13.4074 17.6068 13.1365 17.4781C11.8181 16.8347 12.177 15.3334 11.9152 14.173L15.9607 13.5702C15.674 14.9203 16.2565 16.5638 14.8297 17.39ZM21.1463 13.6244C21.1441 13.5973 21.1396 13.568 21.1396 13.5364C21.1396 13.507 21.1418 13.4777 21.1463 13.4483V11.5316C20.5684 11.4775 20.1824 11.4729 19.6067 11.5226C19.7354 11.1117 19.8753 10.7347 20.0243 10.3329C20.6903 10.308 21.1599 10.3442 21.8123 10.4412C22.1013 10.4819 22.309 10.7325 22.309 11.0147V12.9539H22.3112H23.887C24.2076 12.9539 24.4672 13.2158 24.4672 13.5364V26.9237C24.4672 27.2443 24.2076 27.5039 23.887 27.5039C23.8216 27.5039 23.7583 27.4949 23.6997 27.4723C22.0787 27.0095 20.4691 26.7002 18.8752 26.6889C17.3198 26.6799 15.7666 26.9531 14.2066 27.6394C14.1095 27.7026 13.9944 27.7387 13.8747 27.7365C13.7573 27.7387 13.6422 27.7026 13.5451 27.6394C11.9874 26.9508 10.4319 26.6777 8.87647 26.6889C7.28263 26.698 5.67299 27.0073 4.0498 27.4723C3.9911 27.4926 3.92789 27.5039 3.86242 27.5039C3.54185 27.5084 3.28223 27.2488 3.28223 26.926V13.5364C3.28223 13.2158 3.54185 12.9539 3.86242 12.9539H5.51947L5.53076 11.0124C5.53302 10.7325 5.72943 10.5022 5.99131 10.448C6.58505 10.3238 6.98463 10.2606 7.6461 10.2652C7.72963 10.5045 7.82896 10.7415 7.93733 10.9763C8.01408 11.1411 8.09536 11.2969 8.17889 11.4459C7.58289 11.403 7.23974 11.4233 6.68438 11.5023L6.61891 23.0204C7.96442 22.973 9.28284 23.1423 10.5222 23.5487C11.5088 23.8692 12.4434 24.3411 13.299 24.9619V19.2932L14.4617 19.1216V25.077C15.4482 24.4178 16.4551 23.876 17.4913 23.508C18.6721 23.0881 19.8866 22.8872 21.1418 22.9865V13.6244H21.1463ZM15.0283 26.0952C16.3129 25.6911 17.5952 25.5263 18.8775 25.5331C20.3607 25.5421 21.8372 25.7859 23.3046 26.1629V14.1188H22.309V23.639C22.309 23.9595 22.0494 24.2192 21.7288 24.2192C21.6814 24.2192 21.6362 24.2146 21.5933 24.2034C20.3223 24.0024 19.0874 24.1695 17.8842 24.5984C16.9179 24.9461 15.9652 25.4631 15.0283 26.0952Z" fill="#DF252A"/>
</svg>
