<svg width="63" height="63" viewBox="0 0 63 63" fill="none" xmlns="http://www.w3.org/2000/svg">
<rect width="62.6441" height="62.6441" rx="11" fill="#F4F4F4"/>
<path d="M30.0771 34.5314V34.436C30.0877 33.4231 30.1937 32.617 30.3953 32.0178C30.5968 31.4185 30.8831 30.9333 31.2544 30.5621C31.6256 30.1909 32.071 29.8489 32.5907 29.536C32.9036 29.3451 33.1847 29.1197 33.4339 28.8598C33.6831 28.5947 33.8793 28.2898 34.0225 27.9451C34.171 27.6004 34.2453 27.2185 34.2453 26.7996C34.2453 26.2799 34.1233 25.8292 33.8793 25.4473C33.6354 25.0655 33.3093 24.7712 32.9009 24.5644C32.4926 24.3576 32.0392 24.2542 31.5407 24.2542C31.1059 24.2542 30.6869 24.3443 30.2839 24.5246C29.8809 24.7049 29.5441 24.9886 29.2737 25.3757C29.0032 25.7629 28.8468 26.2693 28.8044 26.8951H26.7998C26.8422 25.9935 27.0756 25.222 27.4998 24.5803C27.9294 23.9386 28.4941 23.4481 29.1941 23.1087C29.8994 22.7693 30.6816 22.5996 31.5407 22.5996C32.474 22.5996 33.2854 22.7852 33.9748 23.1564C34.6695 23.5276 35.2051 24.0367 35.5816 24.6837C35.9634 25.3307 36.1543 26.0678 36.1543 26.8951C36.1543 27.4784 36.0642 28.006 35.8839 28.478C35.7089 28.95 35.4543 29.3716 35.1203 29.7428C34.7915 30.114 34.3937 30.4428 33.9271 30.7292C33.4604 31.0208 33.0865 31.3284 32.8055 31.6519C32.5244 31.9701 32.3203 32.3492 32.193 32.7894C32.0657 33.2295 31.9968 33.7784 31.9862 34.436V34.5314H30.0771ZM31.0953 39.2405C30.7028 39.2405 30.3661 39.1 30.085 38.8189C29.804 38.5379 29.6634 38.2011 29.6634 37.8087C29.6634 37.4163 29.804 37.0795 30.085 36.7985C30.3661 36.5174 30.7028 36.3769 31.0953 36.3769C31.4877 36.3769 31.8244 36.5174 32.1055 36.7985C32.3865 37.0795 32.5271 37.4163 32.5271 37.8087C32.5271 38.0685 32.4608 38.3072 32.3282 38.5246C32.2009 38.742 32.0286 38.917 31.8112 39.0496C31.599 39.1769 31.3604 39.2405 31.0953 39.2405Z" fill="#ED1C24"/>
<path d="M17 31C17 38.7319 23.268 45 31.0001 45C38.7322 45 45 38.7319 45 31C45 23.2681 38.732 17 30.9999 17C23.2678 17 17 23.2679 17 31ZM30.9999 18.8959C37.6848 18.8959 43.1041 24.315 43.1041 31C43.1041 37.685 37.6849 43.1041 30.9999 43.1041C24.3149 43.1041 18.8958 37.685 18.8958 31C18.8958 24.315 24.3151 18.8959 30.9999 18.8959Z" fill="#ED1C24"/>
</svg>
