<svg width="203" height="55" viewBox="0 0 203 55" fill="none" xmlns="http://www.w3.org/2000/svg">
<g clip-path="url(#clip0_295_873)">
<path d="M110.16 37.1987V21.4972C110.16 20.6249 110.008 19.7866 109.704 18.9824C109.401 18.1782 108.938 17.4628 108.316 16.8359C107.695 16.2089 106.901 15.7043 105.934 15.3227C104.968 14.9411 103.821 14.75 102.496 14.75C100.783 14.75 99.3472 14.9815 98.1873 15.4451C97.0274 15.9087 96.0746 16.4808 95.3288 17.1626C94.6936 16.4537 93.8309 15.8746 92.7394 15.4249C91.6485 14.9752 90.1915 14.75 88.3689 14.75C86.4908 14.75 84.9097 14.8793 83.6259 15.1385C82.3414 15.3978 81.1335 15.7996 80.0011 16.3446V37.1981H85.0554V18.5124C85.5526 18.2942 86.0427 18.1377 86.5259 18.0425C87.009 17.9472 87.6238 17.8993 88.3695 17.8993C89.7505 17.8993 90.7928 18.2197 91.497 18.86C92.2013 19.5008 92.5534 20.3524 92.5534 21.4158V37.1993H97.6076V19.4529C98.6295 18.4443 99.8724 17.9397 101.336 17.9397C102.689 17.9397 103.656 18.3011 104.236 19.0234C104.816 19.7456 105.106 20.5839 105.106 21.5382V37.1987H110.16V37.1987ZM72.4616 34.2139C72.075 34.405 71.6123 34.5545 71.0876 34.6637C70.563 34.7728 70.0038 34.827 69.4236 34.827C67.9186 34.827 66.7651 34.5066 65.9439 33.8664C65.1221 33.2255 64.715 32.1829 64.715 30.7384C64.715 29.7298 64.8946 28.8985 65.2537 28.2444C65.6199 27.5903 66.1305 27.0586 66.8002 26.6498C67.4629 26.2411 68.2777 25.9207 69.2305 25.6891C70.1904 25.4576 71.2672 25.2735 72.4616 25.1372V34.2139ZM77.1848 36.0129V22.3557C77.1848 20.9383 76.9707 19.7456 76.5426 18.778C76.1144 17.8104 75.5277 17.0264 74.782 16.4271C74.0362 15.8273 73.1664 15.3983 72.1721 15.1391C71.1777 14.8805 70.1009 14.7506 68.941 14.7506C67.1734 14.7506 65.6339 14.9417 64.322 15.3233C63.01 15.7049 61.9952 16.0732 61.2769 16.4271L62.4368 19.2895C63.127 18.9622 63.9628 18.6556 64.9431 18.3698C65.9234 18.0835 66.9523 17.9403 68.0291 17.9403C68.6918 17.9403 69.2925 17.9951 69.8313 18.1037C70.37 18.2128 70.8326 18.4033 71.2193 18.6758C71.6059 18.9483 71.9095 19.323 72.1306 19.8004C72.3516 20.2773 72.4622 20.8702 72.4622 21.5792V22.765C70.7496 22.9284 69.1411 23.1737 67.6361 23.5011C66.1311 23.8284 64.8121 24.2984 63.6797 24.9115C62.5473 25.5246 61.6501 26.3155 60.9868 27.2831C60.3241 28.2507 59.9924 29.4573 59.9924 30.9018C59.9924 33.0281 60.7452 34.6775 62.2502 35.8495C63.7552 37.0215 66.041 37.608 69.1065 37.608C70.8467 37.608 72.4066 37.4579 73.7876 37.1583C75.1686 36.8581 76.301 36.4765 77.1848 36.0129ZM58.2529 37.1987V21.4972C58.2529 20.5977 58.1008 19.7456 57.7972 18.9414C57.4937 18.1372 56.9965 17.4219 56.3057 16.7949C55.6155 16.1679 54.7042 15.6703 53.5718 15.3025C52.4394 14.9347 51.045 14.7506 49.3879 14.7506C47.4823 14.7506 45.8112 14.8938 44.3752 15.1801C42.9393 15.4665 41.6963 15.855 40.647 16.3457V37.1993H45.7012V18.5124C46.1709 18.3213 46.6611 18.1718 47.1717 18.0627C47.6823 17.9536 48.3526 17.8993 49.1809 17.8993C49.9816 17.8993 50.6379 18.0084 51.1485 18.2266C51.6592 18.4449 52.0668 18.7243 52.3704 19.0649C52.674 19.4055 52.8881 19.801 53.0126 20.2507C53.1372 20.7005 53.1992 21.1433 53.1992 21.5798V37.1993H58.2529V37.1987ZM33.1069 34.2139C32.7202 34.405 32.2576 34.5545 31.7329 34.6637C31.2082 34.7728 30.649 34.827 30.0688 34.827C28.5638 34.827 27.4104 34.5066 26.5892 33.8664C25.7674 33.2255 25.3603 32.1829 25.3603 30.7384C25.3603 29.7298 25.5398 28.8985 25.899 28.2444C26.2651 27.5903 26.7757 27.0586 27.4455 26.6498C28.1082 26.2411 28.923 25.9207 29.8758 25.6891C30.8356 25.4576 31.9125 25.2735 33.1069 25.1372V34.2139V34.2139ZM37.8294 36.0129V22.3557C37.8294 20.9383 37.6154 19.7456 37.1872 18.778C36.7591 17.8104 36.1724 17.0264 35.4266 16.4271C34.6809 15.8273 33.8111 15.3983 32.8167 15.1391C31.8224 14.8805 30.7456 14.7506 29.5851 14.7506C27.8175 14.7506 26.278 14.9417 24.966 15.3233C23.6541 15.7049 22.6392 16.0732 21.921 16.4271L23.0808 19.2895C23.771 18.9622 24.6069 18.6556 25.5872 18.3698C26.5675 18.0835 27.5964 17.9403 28.6732 17.9403C29.3359 17.9403 29.9366 17.9951 30.4753 18.1037C31.014 18.2128 31.4767 18.4033 31.8633 18.6758C32.25 18.9483 32.5535 19.323 32.7746 19.8004C32.9957 20.2773 33.1063 20.8702 33.1063 21.5792V22.765C31.3936 22.9284 29.7851 23.1737 28.2801 23.5011C26.7752 23.8284 25.4562 24.2984 24.3238 24.9115C23.1914 25.5246 22.2941 26.3155 21.6308 27.2831C20.9681 28.2507 20.6365 29.4573 20.6365 30.9018C20.6365 33.0281 21.3893 34.6775 22.8943 35.8495C24.3992 37.0215 26.6851 37.608 29.7506 37.608C31.4907 37.608 33.0507 37.4579 34.4317 37.1583C35.8132 36.8581 36.9456 36.4765 37.8294 36.0129ZM20.3475 36.0949L19.1877 33.0281C18.8285 33.3277 18.4074 33.5662 17.9242 33.7434C17.4411 33.9206 16.8539 34.009 16.1637 34.009C14.5896 34.009 13.3947 33.2931 12.5805 31.8556C11.7657 30.4244 11.3586 28.4753 11.3586 26.0153C11.3586 24.8157 11.4551 23.7187 11.6487 22.7373C11.8423 21.7489 12.1318 20.9176 12.5185 20.2363C12.9051 19.5551 13.4093 19.0234 14.0305 18.655C14.6517 18.2873 15.3904 18.1031 16.2467 18.1031C16.965 18.1031 17.5657 18.2053 18.0488 18.4027C18.532 18.6002 18.9256 18.8253 19.2292 19.084L20.306 16.2626C19.8919 15.9081 19.2701 15.5675 18.4419 15.2407C17.6131 14.9134 16.5088 14.75 15.1278 14.75C13.8848 14.75 12.7249 15.0023 11.6411 15.5063C10.5643 16.0103 9.61788 16.74 8.81012 17.6938C8.00235 18.6481 7.36713 19.8339 6.91149 21.2513C6.44882 22.6686 6.2207 24.2909 6.2207 26.1169C6.2207 27.943 6.4418 29.5653 6.89043 30.9826C7.33204 32.4 7.9538 33.5997 8.74753 34.5811C9.54126 35.5626 10.4806 36.3119 11.5575 36.8298C12.6413 37.3476 13.8152 37.6069 15.0857 37.6069C16.4391 37.6069 17.5364 37.4568 18.3793 37.1571C19.2222 36.8581 19.8779 36.5036 20.3475 36.0949Z" fill="#ED1C24"/>
<path d="M177.519 26.0764C177.519 28.7887 177.029 30.874 176.049 32.3393C175.069 33.8045 173.584 34.5406 171.595 34.5406C170.684 34.5406 169.938 34.4176 169.358 34.1728V18.144C169.717 18.0078 170.104 17.8986 170.518 17.8167C170.932 17.7347 171.416 17.6937 171.968 17.6937C174.012 17.6937 175.448 18.4298 176.276 19.895C177.105 21.3609 177.519 23.419 177.519 26.0764ZM182.531 25.9131C182.531 24.1684 182.29 22.601 181.806 21.2108C181.323 19.8206 180.632 18.6486 179.735 17.6943C178.838 16.7399 177.746 16.0108 176.462 15.5068C175.178 15.0028 173.722 14.7505 172.092 14.7505C170.297 14.7505 168.771 14.9006 167.514 15.2002C166.258 15.4999 165.202 15.8815 164.345 16.3451V45.9965H169.358V37.0416C169.745 37.1778 170.242 37.28 170.85 37.362C171.457 37.444 172.079 37.4844 172.714 37.4844C174.177 37.4844 175.51 37.2188 176.712 36.6871C177.913 36.1554 178.949 35.3922 179.819 34.3974C180.688 33.4027 181.358 32.1897 181.828 30.7586C182.297 29.3274 182.531 27.712 182.531 25.9131ZM157.593 24.0731L148.355 25.4633C148.299 22.8192 148.721 20.8834 149.618 19.6572C150.516 18.4304 151.711 17.8172 153.202 17.8172C154.61 17.8172 155.694 18.301 156.454 19.2686C157.214 20.2362 157.593 21.8377 157.593 24.0731ZM162.316 26.036C162.426 22.3013 161.708 19.4869 160.161 17.5927C158.615 15.6979 156.35 14.7511 153.368 14.7511C151.904 14.7511 150.585 15.0034 149.411 15.5074C148.237 16.0114 147.237 16.7544 146.408 17.7358C145.579 18.7173 144.944 19.91 144.502 21.3135C144.061 22.7176 143.839 24.3191 143.839 26.118C143.839 29.8527 144.772 32.7012 146.636 34.6642C148.5 36.6271 151.02 37.6079 154.197 37.6079C155.909 37.6079 157.366 37.4578 158.567 37.1582C159.768 36.8586 160.77 36.4902 161.571 36.0544L160.369 32.9062C159.761 33.2058 158.995 33.4853 158.07 33.7445C157.144 34.0037 156.033 34.133 154.735 34.133C151.089 34.133 149.06 32.0887 148.646 27.9995L162.316 26.036ZM143.923 14.7915C142.514 14.7643 141.271 14.7713 140.194 14.8117C139.117 14.8527 138.151 14.941 137.294 15.0773C136.438 15.2135 135.679 15.3907 135.015 15.609C134.353 15.8272 133.731 16.0726 133.151 16.3451V37.1986H138.206V18.5937C138.785 18.2664 139.503 18.0828 140.36 18.0418C141.216 18.0008 142.072 18.1301 142.928 18.4304L143.923 14.7915ZM126.15 26.0764C126.15 28.7887 125.66 30.874 124.68 32.3393C123.7 33.8045 122.215 34.5406 120.226 34.5406C119.315 34.5406 118.569 34.4176 117.989 34.1728V18.144C118.348 18.0078 118.735 17.8986 119.149 17.8167C119.563 17.7347 120.047 17.6937 120.599 17.6937C122.643 17.6937 124.079 18.4298 124.908 19.895C125.736 21.3609 126.15 23.419 126.15 26.0764ZM131.163 25.9131C131.163 24.1684 130.922 22.601 130.438 21.2108C129.955 19.8206 129.264 18.6486 128.367 17.6943C127.469 16.7399 126.378 16.0108 125.094 15.5068C123.81 15.0028 122.353 14.7505 120.724 14.7505C118.929 14.7505 117.403 14.9006 116.146 15.2002C114.89 15.4999 113.833 15.8815 112.977 16.3451V45.9965H117.99V37.0416C118.376 37.1778 118.874 37.28 119.481 37.362C120.089 37.444 120.71 37.4844 121.345 37.4844C122.809 37.4844 124.142 37.2188 125.343 36.6871C126.545 36.1554 127.581 35.3922 128.45 34.3974C129.32 33.4027 129.99 32.1897 130.46 30.7586C130.928 29.3274 131.163 27.712 131.163 25.9131Z" fill="black"/>
<path fill-rule="evenodd" clip-rule="evenodd" d="M170.804 11.89L189.5 9.00342L186.571 27.513C186.114 17.6806 178.712 12.1256 170.804 11.89Z" fill="#E53538"/>
<path d="M202.191 0.0146484H0.0146484V54.9858H202.191V0.0146484Z" stroke="white" stroke-width="0.5" stroke-miterlimit="2.6131"/>
</g>
<defs>
<clipPath id="clip0_295_873">
<rect width="202.206" height="55" fill="white"/>
</clipPath>
</defs>
</svg>
