<svg width="247" height="67" viewBox="0 0 247 67" fill="none" xmlns="http://www.w3.org/2000/svg">
<g clip-path="url(#clip0_295_828)">
<path d="M134.563 45.3149V26.1876C134.563 25.1249 134.377 24.1037 134.007 23.1241C133.636 22.1444 133.071 21.273 132.311 20.5092C131.552 19.7455 130.582 19.1308 129.401 18.6659C128.221 18.201 126.82 17.9683 125.201 17.9683C123.109 17.9683 121.355 18.2503 119.938 18.815C118.521 19.3798 117.358 20.0767 116.447 20.9073C115.671 20.0437 114.617 19.3383 113.284 18.7904C111.951 18.2425 110.171 17.9683 107.945 17.9683C105.651 17.9683 103.719 18.1258 102.151 18.4416C100.582 18.7573 99.1067 19.2468 97.7235 19.9107V45.3142H103.897V22.5516C104.505 22.2857 105.103 22.0951 105.694 21.9791C106.284 21.8631 107.035 21.8047 107.946 21.8047C109.633 21.8047 110.906 22.195 111.766 22.975C112.626 23.7556 113.056 24.793 113.056 26.0884V45.3156H119.23V23.6972C120.478 22.4686 121.997 21.8539 123.784 21.8539C125.438 21.8539 126.618 22.2942 127.327 23.174C128.036 24.0538 128.389 25.075 128.389 26.2375V45.3149H134.563V45.3149ZM88.5137 41.6789C88.0414 41.9117 87.4763 42.0938 86.8354 42.2267C86.1945 42.3596 85.5114 42.4258 84.8027 42.4258C82.9643 42.4258 81.5553 42.0354 80.5522 41.2555C79.5483 40.4748 79.051 39.2047 79.051 37.4451C79.051 36.2164 79.2704 35.2037 79.7091 34.4069C80.1563 33.6101 80.7801 32.9623 81.5982 32.4644C82.4077 31.9665 83.403 31.5762 84.5669 31.2941C85.7393 31.0121 87.0547 30.7878 88.5137 30.6218V41.6789ZM94.2832 43.8703V27.2334C94.2832 25.5068 94.0217 24.0538 93.4987 22.8751C92.9757 21.6964 92.2591 20.7413 91.3481 20.0113C90.4371 19.2806 89.3747 18.7581 88.16 18.4423C86.9454 18.1272 85.63 17.969 84.2132 17.969C82.054 17.969 80.1735 18.2018 78.5709 18.6666C76.9683 19.1315 75.7287 19.5802 74.8513 20.0113L76.2681 23.4982C77.1112 23.0994 78.1322 22.726 79.3297 22.3779C80.5272 22.029 81.7839 21.8546 83.0993 21.8546C83.9088 21.8546 84.6426 21.9214 85.3007 22.0537C85.9587 22.1866 86.5239 22.4187 86.9961 22.7506C87.4684 23.0826 87.8392 23.539 88.1093 24.1206C88.3794 24.7015 88.5144 25.4238 88.5144 26.2874V27.732C86.4224 27.931 84.4576 28.2299 82.6192 28.6287C80.7808 29.0274 79.1696 29.5999 77.7864 30.3468C76.4031 31.0937 75.3071 32.0572 74.4969 33.2359C73.6874 34.4146 73.2822 35.8845 73.2822 37.6441C73.2822 40.2343 74.2018 42.2436 76.0402 43.6713C77.8786 45.0989 80.6708 45.8135 84.4154 45.8135C86.541 45.8135 88.4465 45.6306 90.1335 45.2656C91.8204 44.8999 93.2036 44.435 94.2832 43.8703ZM71.1574 45.3149V26.1876C71.1574 25.0918 70.9716 24.0538 70.6008 23.0741C70.23 22.0944 69.6226 21.2231 68.7788 20.4593C67.9357 19.6955 66.8226 19.0893 65.4393 18.6413C64.0561 18.1933 62.3527 17.969 60.3286 17.969C58.0008 17.969 55.9595 18.1434 54.2054 18.4922C52.4513 18.841 50.9331 19.3144 49.6513 19.9121V45.3156H55.8252V22.5516C56.3989 22.3188 56.9976 22.1366 57.6214 22.0037C58.2451 21.8708 59.0639 21.8047 60.0756 21.8047C61.0538 21.8047 61.8554 21.9376 62.4792 22.2035C63.1029 22.4693 63.6009 22.8097 63.9718 23.2246C64.3426 23.6396 64.6041 24.1213 64.7563 24.6692C64.9084 25.217 64.9842 25.7565 64.9842 26.2881V45.3156H71.1574V45.3149ZM40.4408 41.6789C39.9685 41.9117 39.4034 42.0938 38.7625 42.2267C38.1216 42.3596 37.4385 42.4258 36.7297 42.4258C34.8914 42.4258 33.4824 42.0354 32.4793 41.2555C31.4754 40.4748 30.9781 39.2047 30.9781 37.4451C30.9781 36.2164 31.1975 35.2037 31.6362 34.4069C32.0834 33.6101 32.7072 32.9623 33.5253 32.4644C34.3348 31.9665 35.3301 31.5762 36.494 31.2941C37.6664 31.0121 38.9818 30.7878 40.4408 30.6218V41.6789V41.6789ZM46.2096 43.8703V27.2334C46.2096 25.5068 45.9481 24.0538 45.4251 22.8751C44.9021 21.6964 44.1854 20.7413 43.2745 20.0113C42.3635 19.2806 41.301 18.7581 40.0864 18.4423C38.8718 18.1272 37.5564 17.969 36.1389 17.969C33.9797 17.969 32.0991 18.2018 30.4965 18.6666C28.894 19.1315 27.6543 19.5802 26.7769 20.0113L28.1938 23.4982C29.0369 23.0994 30.0579 22.726 31.2553 22.3779C32.4528 22.029 33.7096 21.8546 35.025 21.8546C35.8345 21.8546 36.5683 21.9214 37.2263 22.0537C37.8844 22.1866 38.4495 22.4187 38.9218 22.7506C39.3941 23.0826 39.7649 23.539 40.035 24.1206C40.305 24.7015 40.4401 25.4238 40.4401 26.2874V27.732C38.3481 27.931 36.3832 28.2299 34.5448 28.6287C32.7065 29.0274 31.0953 29.5999 29.712 30.3468C28.3288 31.0937 27.2328 32.0572 26.4225 33.2359C25.613 34.4146 25.2079 35.8845 25.2079 37.6441C25.2079 40.2343 26.1275 42.2436 27.9658 43.6713C29.8042 45.0989 32.5964 45.8135 36.3411 45.8135C38.4667 45.8135 40.3722 45.6306 42.0591 45.2656C43.7467 44.8999 45.13 44.435 46.2096 43.8703ZM24.855 43.9702L23.4381 40.2343C22.9994 40.5993 22.485 40.8898 21.8948 41.1057C21.3047 41.3216 20.5873 41.4292 19.7442 41.4292C17.8215 41.4292 16.3618 40.5571 15.3673 38.8059C14.372 37.0625 13.8747 34.6882 13.8747 31.6915C13.8747 30.2301 13.9926 28.8938 14.2291 27.6982C14.4656 26.4942 14.8193 25.4815 15.2915 24.6516C15.7638 23.8217 16.3797 23.174 17.1385 22.7253C17.8973 22.2773 18.7997 22.053 19.8457 22.053C20.7231 22.053 21.4568 22.1774 22.047 22.418C22.6372 22.6585 23.118 22.9328 23.4888 23.2478L24.8042 19.8109C24.2984 19.3791 23.5389 18.9641 22.5271 18.5661C21.5147 18.1673 20.1658 17.9683 18.4789 17.9683C16.9606 17.9683 15.5437 18.2756 14.2198 18.8896C12.9044 19.5035 11.7484 20.3925 10.7617 21.5543C9.77496 22.7169 8.99903 24.1614 8.44244 25.888C7.87728 27.6145 7.59863 29.5908 7.59863 31.8153C7.59863 34.0398 7.86871 36.016 8.41672 37.7426C8.95616 39.4691 9.71566 40.9306 10.6852 42.1262C11.6548 43.3217 12.8023 44.2346 14.1176 44.8655C15.4416 45.4963 16.8755 45.8121 18.4274 45.8121C20.0807 45.8121 21.4211 45.6292 22.4507 45.2642C23.4803 44.8999 24.2812 44.4681 24.855 43.9702Z" fill="#ED1C24"/>
<path d="M216.845 31.7658C216.845 35.0699 216.246 37.6101 215.049 39.3951C213.851 41.18 212.038 42.0767 209.609 42.0767C208.496 42.0767 207.585 41.9269 206.876 41.6287V22.1027C207.315 21.9367 207.787 21.8038 208.293 21.7039C208.799 21.604 209.389 21.5541 210.064 21.5541C212.56 21.5541 214.314 22.4508 215.327 24.2357C216.339 26.0214 216.845 28.5286 216.845 31.7658ZM222.968 31.5668C222.968 29.4415 222.672 27.532 222.082 25.8385C221.491 24.145 220.648 22.7173 219.552 21.5548C218.456 20.3923 217.122 19.504 215.554 18.8901C213.985 18.2761 212.206 17.9688 210.215 17.9688C208.023 17.9688 206.158 18.1516 204.624 18.5166C203.089 18.8816 201.799 19.3465 200.753 19.9112V56.032H206.876V45.1233C207.348 45.2893 207.955 45.4138 208.698 45.5137C209.44 45.6135 210.199 45.6628 210.975 45.6628C212.763 45.6628 214.391 45.3393 215.858 44.6915C217.326 44.0438 218.591 43.1141 219.654 41.9023C220.716 40.6905 221.534 39.2129 222.108 37.4695C222.681 35.726 222.968 33.7582 222.968 31.5668ZM192.505 29.3254L181.22 31.0189C181.152 27.7979 181.667 25.4398 182.763 23.946C183.859 22.4515 185.319 21.7046 187.14 21.7046C188.861 21.7046 190.185 22.294 191.113 23.4727C192.041 24.6514 192.505 26.6023 192.505 29.3254ZM198.273 31.7166C198.408 27.167 197.531 23.7385 195.642 21.431C193.753 19.1228 190.986 17.9695 187.343 17.9695C185.556 17.9695 183.944 18.2768 182.51 18.8908C181.076 19.5047 179.854 20.4099 178.841 21.6054C177.829 22.801 177.053 24.254 176.514 25.9637C175.974 27.6741 175.704 29.625 175.704 31.8165C175.704 36.366 176.843 39.836 179.12 42.2272C181.397 44.6184 184.476 45.8133 188.356 45.8133C190.448 45.8133 192.227 45.6304 193.694 45.2654C195.162 44.9004 196.385 44.4517 197.363 43.9207L195.896 40.0857C195.153 40.4507 194.217 40.7911 193.087 41.1069C191.957 41.4227 190.599 41.5802 189.014 41.5802C184.56 41.5802 182.081 39.0899 181.575 34.1085L198.273 31.7166ZM175.806 18.0187C174.085 17.9856 172.567 17.9941 171.251 18.0433C169.935 18.0932 168.755 18.2008 167.709 18.3668C166.663 18.5328 165.736 18.7487 164.925 19.0145C164.116 19.2804 163.356 19.5793 162.648 19.9112V45.3146H168.822V22.6505C169.53 22.2518 170.408 22.0281 171.454 21.9782C172.5 21.9283 173.546 22.0858 174.591 22.4515L175.806 18.0187ZM154.097 31.7658C154.097 35.0699 153.498 37.6101 152.3 39.3951C151.103 41.18 149.29 42.0767 146.86 42.0767C145.747 42.0767 144.836 41.9269 144.127 41.6287V22.1027C144.566 21.9367 145.038 21.8038 145.544 21.7039C146.05 21.604 146.641 21.5541 147.315 21.5541C149.812 21.5541 151.566 22.4508 152.578 24.2357C153.591 26.0214 154.097 28.5286 154.097 31.7658ZM160.22 31.5668C160.22 29.4415 159.925 27.532 159.334 25.8385C158.744 24.145 157.9 22.7173 156.804 21.5548C155.708 20.3923 154.375 19.504 152.806 18.8901C151.237 18.2761 149.458 17.9688 147.468 17.9688C145.275 17.9688 143.411 18.1516 141.876 18.5166C140.341 18.8816 139.051 19.3465 138.005 19.9112V56.032H144.128V45.1233C144.6 45.2893 145.208 45.4138 145.95 45.5137C146.692 45.6135 147.451 45.6628 148.227 45.6628C150.015 45.6628 151.643 45.3393 153.111 44.6915C154.578 44.0438 155.844 43.1141 156.906 41.9023C157.968 40.6905 158.786 39.2129 159.36 37.4695C159.933 35.726 160.22 33.7582 160.22 31.5668Z" fill="black"/>
<path fill-rule="evenodd" clip-rule="evenodd" d="M208.642 14.4842L231.48 10.9678L227.901 33.5158C227.343 21.5382 218.302 14.7711 208.642 14.4842Z" fill="#E53538"/>
<path d="M246.982 0.0175781H0.0180664V66.9824H246.982V0.0175781Z" stroke="white" stroke-width="0.5" stroke-miterlimit="2.6131"/>
</g>
<defs>
<clipPath id="clip0_295_828">
<rect width="247" height="67" fill="white"/>
</clipPath>
</defs>
</svg>
