<svg width="496" height="62" fill="none" xmlns="http://www.w3.org/2000/svg"><path opacity=".1" fill-rule="evenodd" clip-rule="evenodd" d="M465 31c17.121 0 31-13.88 31-31h-84c-22.091 0-40 17.909-40 40v22h22c22.091 0 40-17.909 40-40V0c0 17.12 13.879 31 31 31zm0 0h-31c0 17.12 13.879 31 31 31 17.121 0 31-13.88 31-31h-31zM279 62c-17.121 0-31-13.88-31-31 0-17.12 13.879-31 31-31v62zm31-31v31c-17.121 0-31-13.88-31-31 0-17.12 13.879-31 31-31v31zm0 0c0-17.12 13.879-31 31-31 17.121 0 31 13.88 31 31 0 17.12-13.879 31-31 31-17.121 0-31-13.88-31-31zm-124 0c0 17.12 13.879 31 31 31 17.121 0 31-13.88 31-31 0-17.12-13.879-31-31-31-17.121 0-31 13.88-31 31zm0 0v31h-62V22c0 22.091-17.909 40-40 40H62V40c0-22.091 17.909-40 40-40h84v31zM24 0C10.745 0 0 10.745 0 24v38h38c13.255 0 24-10.745 24-24V0H24zm207.826 31c0 8.188-6.638 14.825-14.826 14.825-8.189 0-14.827-6.637-14.827-14.826 0-8.188 6.638-14.826 14.827-14.826 8.188 0 14.826 6.638 14.826 14.826z" fill="#fff"/></svg>