<svg width="24" height="25" viewBox="0 0 24 25" fill="none" xmlns="http://www.w3.org/2000/svg">
<path fill-rule="evenodd" clip-rule="evenodd" d="M23.684 12.6044C24.0868 12.9821 24.1073 13.615 23.7296 14.018L13.7296 24.6846C13.5442 24.8821 13.2869 24.9961 13.0161 25.0005C12.7453 25.0049 12.4844 24.8993 12.2929 24.7077L8.2929 20.7077C7.90237 20.3172 7.90237 19.6841 8.2929 19.2936C8.68343 18.903 9.3165 18.903 9.70704 19.2936L12.9768 22.5633L22.2704 12.65C22.6481 12.2472 23.281 12.2268 23.684 12.6044Z" fill="#DF252A"/>
<path d="M2 3C2 2.44774 2.44774 2 3 2H18.3275C18.8798 2 19.3275 2.44774 19.3275 3V12.8613L21.3275 10.728V3C21.3275 1.3432 19.9843 0 18.3275 0H3C1.3432 0 0 1.3432 0 3V20.9942C0 22.6511 1.3432 23.9942 3 23.9942H8.69428L6.69427 21.9942H3C2.44774 21.9942 2 21.5464 2 20.9942V3Z" fill="#2B2A29"/>
<path d="M4 7.01172C4 6.45932 4.44773 6.01172 5 6.01172H16.3333C16.8856 6.01172 17.3333 6.45932 17.3333 7.01172C17.3333 7.56399 16.8856 8.01172 16.3333 8.01172H5C4.44773 8.01172 4 7.56399 4 7.01172Z" fill="#DF252A"/>
<path d="M4 11.0117C4 10.4593 4.44773 10.0117 5 10.0117H13C13.5523 10.0117 14 10.4593 14 11.0117C14 11.564 13.5523 12.0117 13 12.0117H5C4.44773 12.0117 4 11.564 4 11.0117Z" fill="#DF252A"/>
<path d="M5 14.0117C4.44773 14.0117 4 14.4593 4 15.0117C4 15.564 4.44773 16.0117 5 16.0117H8.66667C9.21894 16.0117 9.66667 15.564 9.66667 15.0117C9.66667 14.4593 9.21894 14.0117 8.66667 14.0117H5Z" fill="#DF252A"/>
</svg>
