<svg width="77" height="77" viewBox="0 0 77 77" fill="none" xmlns="http://www.w3.org/2000/svg">
<circle cx="38.3129" cy="38.3129" r="38.3129" fill="#F4F5F6"/>
<mask id="mask0_171_1306" style="mask-type:alpha" maskUnits="userSpaceOnUse" x="0" y="0" width="77" height="77">
<circle cx="38.3129" cy="38.3129" r="38.3129" fill="#D9D9D9"/>
</mask>
<g mask="url(#mask0_171_1306)">
<path d="M29.8586 10.7754L52.6801 10.8185L52.6343 55.0316L15.5695 55.0747C15.568 44.837 15.5666 34.5992 15.5645 24.3615C19.1412 24.3796 22.7172 24.397 26.294 24.415C26.8904 24.397 28.0001 24.2718 28.7797 23.4914C29.6123 22.6588 29.6417 21.5084 29.6574 20.8984C29.7197 18.4911 29.8178 15.0391 29.8586 10.7754Z" fill="#E1E6E9"/>
<path d="M33.1105 15.5645L51.4828 15.6015L51.4459 53.8403L21.6065 53.8774L21.5602 26.9692L21.5508 26.2828L30.0267 25.8754C30.0267 25.8754 32.2607 24.0581 32.2238 23.7799C32.1869 23.5017 32.0763 20.757 32.0763 20.757L32.1132 15.6204L33.1105 15.5645Z" fill="white"/>
<path d="M14.3904 25.0283C14.3904 25.0283 14.3491 24.6613 14.5012 24.4846C14.6533 24.3078 29.568 9.57821 29.568 9.57821H50.742C50.742 9.57821 54.709 9.50581 54.9864 13.6377V15.577H56.8355C56.8355 15.577 60.6453 15.6494 61.0611 19.5371V59.4173C61.0611 59.4173 61.0611 63.1687 56.942 63.454H24.4733C24.4733 63.454 21.0061 63.6578 20.4513 59.5259V57.4595H18.0654C18.0654 57.4595 14.922 57.2785 14.3672 53.3277L14.3904 25.0283ZM18.0104 23.9501H27.164C27.164 23.9501 28.7452 23.7506 28.9393 22.0924V13.2842C28.9393 13.2842 18.0937 23.9501 18.0104 23.9501ZM16.4017 53.0558C16.4017 55.2577 18.8984 55.5026 18.8984 55.5026C18.8984 55.5026 47.8767 55.5026 50.4284 55.5026C52.9801 55.5026 52.9062 53.0742 52.9062 53.0742C52.9062 53.0742 52.9062 15.7175 52.9062 13.747C52.9062 11.7765 50.7428 11.6268 50.7428 11.6268H31.2693V21.8667C31.0477 25.7814 27.2379 26.0348 27.2379 26.0348H16.4756C16.4756 26.0341 16.4017 50.8539 16.4017 53.0558ZM22.5872 57.5142V59.5259C22.5872 59.5259 23.0312 61.3742 24.4733 61.3742C25.9154 61.3742 57.1593 61.3742 57.1593 61.3742C57.1593 61.3742 58.9164 61.0115 58.9164 59.6522C58.9164 58.2929 58.9164 19.6542 58.9164 19.6542C58.9164 19.6542 58.7687 17.688 56.9101 17.688C55.0516 17.688 55.0516 17.688 55.0516 17.688V52.8109C55.0516 52.8109 55.3015 57.4773 50.2901 57.4773C45.2787 57.4773 22.5872 57.5142 22.5872 57.5142Z" fill="#193651"/>
<path d="M45.5874 33.5235H23.8553C23.2441 33.5235 22.7485 32.9873 22.7485 32.3262C22.7485 31.665 23.2441 31.1289 23.8553 31.1289H45.5874C46.1985 31.1289 46.6941 31.665 46.6941 32.3262C46.6934 32.9873 46.1985 33.5235 45.5874 33.5235Z" fill="#193651"/>
<path d="M45.5723 26.3399H34.6456C34.0262 26.3399 33.5239 25.8037 33.5239 25.1426C33.5239 24.4814 34.0262 23.9453 34.6456 23.9453H45.5723C46.1917 23.9453 46.694 24.4814 46.694 25.1426C46.6932 25.8045 46.1917 26.3399 45.5723 26.3399Z" fill="#193651"/>
<path d="M45.5874 38.3125H23.8553C23.2441 38.3125 22.7485 37.7764 22.7485 37.1152C22.7485 36.4541 23.2441 35.918 23.8553 35.918H45.5874C46.1985 35.918 46.6941 36.4541 46.6941 37.1152C46.6934 37.7764 46.1985 38.3125 45.5874 38.3125Z" fill="#193651"/>
<path d="M45.5874 44.2989H23.8553C23.2441 44.2989 22.7485 43.7627 22.7485 43.1016C22.7485 42.4404 23.2441 41.9043 23.8553 41.9043H45.5874C46.1985 41.9043 46.6941 42.4404 46.6941 43.1016C46.6934 43.7627 46.1985 44.2989 45.5874 44.2989Z" fill="#193651"/>
<path d="M31.1294 47.8916H28.7349V50.2862H31.1294V47.8916Z" fill="#193651"/>
<path d="M35.9185 47.8916H33.5239V50.2862H35.9185V47.8916Z" fill="#193651"/>
<path d="M40.7075 47.8916H38.313V50.2862H40.7075V47.8916Z" fill="#193651"/>
<path d="M45.5723 20.3535H34.6456C34.0262 20.3535 33.5239 19.8174 33.5239 19.1563C33.5239 18.4951 34.0262 17.959 34.6456 17.959H45.5723C46.1917 17.959 46.694 18.4951 46.694 19.1563C46.6932 19.8174 46.1917 20.3535 45.5723 20.3535Z" fill="#193651"/>
</g>
</svg>
