<svg width="97" height="96" viewBox="0 0 97 96" fill="none" xmlns="http://www.w3.org/2000/svg">
<circle cx="48.837" cy="47.9869" r="47.8912" fill="#F4F5F6"/>
<mask id="mask0_171_1336" style="mask-type:alpha" maskUnits="userSpaceOnUse" x="0" y="0" width="97" height="96">
<circle cx="48.837" cy="47.9869" r="47.8912" fill="#D9EFF3"/>
</mask>
<g mask="url(#mask0_171_1336)">
<path d="M56.8954 41.0244V26.5605C56.8954 26.5605 56.2763 23.8974 54.241 23.8828C52.2058 23.8682 27.1283 23.8828 27.1283 23.8828C27.1283 23.8828 24.8474 24.3592 24.8081 26.639C24.7689 28.9188 24.8081 62.3062 24.8081 62.3062C24.8081 62.3062 24.9067 65.0571 27.6003 65.0771C30.294 65.0971 42.4146 65.0771 42.4146 65.0771C42.4146 65.0771 44.0294 65.0332 44.0956 66.7797C44.1618 68.5261 42.4069 68.5038 42.4069 68.5038H26.8734C26.8734 68.5038 21.2405 67.6709 21.2998 62.2177C21.3591 56.7645 21.2998 26.1672 21.2998 26.1672C21.2998 26.1672 21.8596 21.0188 27.2076 20.4492H54.241C54.241 20.4492 59.3526 20.4492 60.2574 26.0895V40.7889V41.0398C60.2574 41.0398 59.9479 42.4691 58.591 42.4253C57.235 42.3806 56.8954 41.0244 56.8954 41.0244Z" fill="#193651"/>
<path d="M40.0845 33.2133H29.7334C28.7562 33.2133 27.9639 32.4212 27.9639 31.4445C27.9639 30.4678 28.7562 29.6758 29.7334 29.6758H40.0852C41.0624 29.6758 41.8548 30.4678 41.8548 31.4445C41.854 32.4212 41.0617 33.2133 40.0845 33.2133Z" fill="#193651"/>
<path d="M42.415 51.5189H29.8223C28.8451 51.5189 28.0527 50.7269 28.0527 49.7502C28.0527 48.7735 28.8451 47.9814 29.8223 47.9814H42.415C43.3922 47.9814 44.1845 48.7735 44.1845 49.7502C44.1845 50.7269 43.3922 51.5189 42.415 51.5189Z" fill="#193651"/>
<path d="M67.7192 62.3959H55.1265C54.1493 62.3959 53.3569 61.6039 53.3569 60.6271C53.3569 59.6504 54.1493 58.8584 55.1265 58.8584H67.7192C68.6964 58.8584 69.4887 59.6504 69.4887 60.6271C69.4887 61.6039 68.6971 62.3959 67.7192 62.3959Z" fill="#193651"/>
<path d="M63.1051 54.3332V66.9199C63.1051 67.8966 62.3127 68.6886 61.3355 68.6886C60.3583 68.6886 59.5659 67.8966 59.5659 66.9199V54.3332C59.5659 53.3565 60.3583 52.5645 61.3355 52.5645C62.3127 52.5652 63.1051 53.3565 63.1051 54.3332Z" fill="#193651"/>
<path d="M51.5873 42.3217H29.9112C28.934 42.3217 28.1416 41.5296 28.1416 40.5529C28.1416 39.5762 28.934 38.7842 29.9112 38.7842H51.5873C52.5645 38.7842 53.3569 39.5762 53.3569 40.5529C53.3562 41.5296 52.5645 42.3217 51.5873 42.3217Z" fill="#193651"/>
<path d="M76.3739 60.5734C76.3739 68.8306 69.6768 75.5238 61.4165 75.5238C53.1561 75.5238 46.459 68.8298 46.459 60.5734C46.459 52.317 53.1561 45.623 61.4165 45.623C69.6768 45.623 76.3739 52.3162 76.3739 60.5734ZM61.2817 49.3252C55.052 49.3252 50.0012 54.3736 50.0012 60.6004C50.0012 66.8271 55.052 71.8755 61.2817 71.8755C67.5114 71.8755 72.5622 66.8271 72.5622 60.6004C72.5622 54.3736 67.5114 49.3252 61.2817 49.3252Z" fill="#193651"/>
</g>
</svg>
