<svg width="116" height="116" viewBox="0 0 116 116" fill="none" xmlns="http://www.w3.org/2000/svg">
<circle cx="57.8366" cy="58.2389" r="57.4694" fill="#F4F5F6"/>
<path d="M41.6228 68.5978L41.623 68.5981C44.3983 72.2973 48.2432 75.0232 52.5099 76.3067V83.9965C52.5099 84.4393 52.8606 84.8215 53.3105 84.8215H63.3347C63.7785 84.8215 64.1383 84.4522 64.1202 83.9912V76.3067C68.3869 75.0232 72.2318 72.2974 75.007 68.5982C78.0045 64.6078 79.5827 59.8132 79.5827 54.7506V32.2156C79.5827 31.7728 79.232 31.3906 78.7821 31.3906H37.848C37.3981 31.3906 37.0474 31.7728 37.0474 32.2156V54.7506C37.0474 59.8135 38.6334 64.6 41.6228 68.5978ZM63.1343 74.886L63.1343 74.8859L63.1285 74.8876C62.7803 74.9898 62.5341 75.3162 62.5341 75.6867V83.1794H54.1186V75.6867C54.1186 75.3123 53.8752 74.9795 53.5177 74.8858C44.7723 72.5459 38.6561 64.2704 38.6561 54.7506V33.0406H77.9966V54.7506C77.9966 64.2705 71.8727 72.5463 63.1343 74.886Z" fill="#193651" stroke="#193651" stroke-width="0.5"/>
<path d="M82.4565 32.2215L82.4566 32.2215V32.2156V23.575C82.4566 23.1322 82.1058 22.75 81.6559 22.75H34.9969C34.547 22.75 34.1963 23.1322 34.1963 23.575V32.2156C34.1963 32.6585 34.547 33.0406 34.9969 33.0406H81.6484C82.0969 33.0406 82.446 32.6689 82.4565 32.2215ZM80.8553 24.4V31.3907H35.7975V24.4H80.8553Z" fill="#193651" stroke="#193651" stroke-width="0.5"/>
<path d="M63.5126 60.042L63.5075 60.0383L63.5075 60.0382L58.3263 56.0893L53.1378 60.0381L63.5126 60.042ZM63.5126 60.042C63.6484 60.1402 63.812 60.1997 63.9834 60.1997C64.1434 60.1997 64.3091 60.1548 64.4542 60.0499L64.4543 60.0501L64.4631 60.0431C64.7318 59.8299 64.8492 59.4626 64.7422 59.1262C64.7422 59.1259 64.7421 59.1256 64.742 59.1254L62.7433 52.7335L67.9583 48.791L67.9583 48.7911L67.9629 48.7874C68.2318 48.574 68.3492 48.2063 68.2418 47.8697C68.1358 47.5377 67.8414 47.3019 67.4832 47.3019H61.0376L59.064 40.9121C58.9652 40.5629 58.6573 40.3311 58.3037 40.3311C57.9496 40.3311 57.65 40.5782 57.5451 40.9067L57.5444 40.909L55.5699 47.3016L49.1472 47.294H49.1469C48.7982 47.294 48.4949 47.5278 48.3883 47.8618L48.3882 47.8618L48.3862 47.8688C48.2922 48.1959 48.3939 48.5653 48.6785 48.7824L48.6794 48.7831L53.8943 52.7256L51.8952 59.1189L51.8952 59.1189M63.5126 60.042L51.8952 59.1189M51.8952 59.1189L51.8935 59.1245M51.8952 59.1189L51.8935 59.1245M51.8935 59.1245C51.7996 59.4516 51.9013 59.821 52.1858 60.0381C52.4714 60.2561 52.8519 60.2561 53.1376 60.0383L51.8935 59.1245ZM56.9436 48.3818L58.3339 43.8782L59.7233 48.3787C59.8221 48.7278 60.13 48.9597 60.4836 48.9597H60.4839L65.0399 48.953L61.3359 51.7555L61.3351 51.7562C61.0557 51.9694 60.9374 52.3387 61.0447 52.676C61.0448 52.6762 61.0448 52.6765 61.0449 52.6768L62.461 57.1942L58.8024 54.4027C58.8024 54.4027 58.8024 54.4027 58.8023 54.4027C58.5167 54.1847 58.136 54.1847 57.8504 54.4027C57.8504 54.4027 57.8504 54.4027 57.8504 54.4027L54.1903 57.1953L55.6007 52.6752L55.6008 52.6753L55.6024 52.6698C55.6963 52.3427 55.5946 51.9733 55.3101 51.7562L55.3093 51.7555L51.6038 48.9519H56.1842C56.5329 48.9519 56.8362 48.7181 56.9429 48.384L56.9436 48.3818Z" fill="#193651" stroke="#193651" stroke-width="0.5"/>
<path d="M43.347 93.3207H73.299C73.7445 93.3207 74.0996 92.9509 74.0996 92.5036V84.0047C74.0996 83.5619 73.7489 83.1797 73.299 83.1797H43.347C42.8971 83.1797 42.5464 83.5619 42.5464 84.0047V92.4957C42.5464 92.9385 42.8971 93.3207 43.347 93.3207ZM72.4984 84.8218V91.6707H44.1476V84.8218H72.4984Z" fill="#193651" stroke="#193651" stroke-width="0.5"/>
<path d="M90.6844 40.7991L90.6843 40.7986C90.1438 38.8148 88.6325 37.6055 86.6491 37.6055C84.0747 37.6055 81.0772 39.5629 78.1927 42.9934C78.0583 43.1468 77.9965 43.3409 77.9965 43.5345V54.7508C77.9965 55.6998 77.9295 56.6497 77.8101 57.5772C77.7689 57.8816 77.8917 58.1999 78.1595 58.3766C78.2924 58.4681 78.447 58.5138 78.601 58.5138C78.7518 58.5138 78.8887 58.4657 79.0037 58.4102L79.0174 58.4036L79.0302 58.3955C83.8079 55.3307 87.0002 51.9925 88.8603 48.8943C90.717 45.8019 91.2591 42.9244 90.6844 40.7991ZM89.1381 41.2365L89.1383 41.237C89.6101 42.9765 89.0372 45.4392 87.5055 48.0064C85.8229 50.8251 83.0987 53.5918 79.555 56.0644C79.5785 55.6284 79.5902 55.1896 79.5902 54.7508V43.8396C80.8492 42.374 82.119 41.2284 83.3204 40.4478C84.5436 39.6529 85.6783 39.2476 86.6491 39.2476C87.2911 39.2476 87.8223 39.4263 88.2349 39.7544C88.6483 40.0833 88.9606 40.5767 89.1381 41.2365Z" fill="#193651" stroke="#193651" stroke-width="0.5"/>
<path d="M25.9685 40.7989L25.9685 40.799C25.3937 42.9206 25.9359 45.7981 27.7925 48.8904C29.6524 51.9882 32.8442 55.326 37.621 58.3866C37.7449 58.4684 37.8979 58.5139 38.0443 58.5139C38.5067 58.5139 38.8421 58.1275 38.8523 57.6868L38.8524 57.6868V57.681C38.8524 57.6135 38.8424 57.5509 38.8343 57.5074C38.7157 56.6071 38.6563 55.6831 38.6563 54.7509V43.5267C38.6563 43.3331 38.5945 43.139 38.4601 42.9856C35.5757 39.5551 32.5781 37.5977 30.0038 37.5977C28.0201 37.5977 26.5089 38.8073 25.9685 40.7989ZM27.5146 41.237L27.5147 41.2365C27.6922 40.5768 28.0046 40.0833 28.418 39.7545C28.8305 39.4263 29.3618 39.2476 30.0038 39.2476C30.9706 39.2476 32.1034 39.6529 33.3268 40.4478C34.5282 41.2285 35.8 42.3742 37.0626 43.8398V54.7509C37.0626 55.1895 37.0743 55.6281 37.0978 56.0639C33.5605 53.5913 30.8297 50.8247 29.1474 48.0064L29.1471 48.006C27.6084 45.4396 27.0427 42.9769 27.5146 41.237Z" fill="#193651" stroke="#193651" stroke-width="0.5"/>
</svg>
