<svg width="24" height="24" fill="none" xmlns="http://www.w3.org/2000/svg"><path d="M12 12.763l.458.594.737-.569-.712-.599-.483.574zm-3.443 2.655l-.458-.594.458.594zm3.926-3.229L8.908 9.182l-.966 1.147 3.575 3.008.966-1.148zM7.75 6.695V4h-1.5v2.695h1.5zm3.792 5.474l-3.443 2.655.916 1.188 3.443-2.655-.916-1.188zM6.25 18.585V21h1.5v-2.415h-1.5zm1.85-3.761a4.75 4.75 0 00-1.85 3.761h1.5a3.25 3.25 0 011.265-2.573L8.1 14.824zm.808-5.642A3.25 3.25 0 017.75 6.695h-1.5a4.75 4.75 0 001.692 3.634l.966-1.147z" fill="#727271"/><path d="M12 12.763l-.458.594-.737-.569.712-.599.483.574zm3.443 2.655l.458-.594-.458.594zm-3.926-3.229l3.575-3.007.966 1.147-3.575 3.008-.966-1.148zm4.733-5.494V4h1.5v2.695h-1.5zm-3.792 5.474l3.443 2.655-.916 1.188-3.443-2.655.916-1.188zm5.292 6.416V21h-1.5v-2.415h1.5zm-1.85-3.761a4.75 4.75 0 011.85 3.761h-1.5a3.25 3.25 0 00-1.265-2.573l.916-1.188zm-.808-5.642a3.25 3.25 0 001.158-2.487h1.5a4.75 4.75 0 01-1.692 3.634l-.966-1.147z" fill="#727271"/><path d="M4 21h16M4 4h16" stroke="#727271" stroke-width="1.5"/></svg>