<svg width="40" height="40" fill="none" xmlns="http://www.w3.org/2000/svg"><circle cx="20" cy="20" r="20" fill="#DF252A" fill-opacity=".15"/><path d="M11.666 14.333a1 1 0 011-1h3.5a2.93 2.93 0 012.122.922 3.23 3.23 0 01.878 2.226V27.5c0-.626-.236-1.227-.659-1.67a2.198 2.198 0 00-1.59-.691h-4.25a1 1 0 01-1-1v-9.806z" fill="#DF252A"/><path d="M28.333 14.333a1 1 0 00-1-1h-3.5a2.93 2.93 0 00-2.121.922 3.229 3.229 0 00-.879 2.226V27.5c0-.626.237-1.227.659-1.67a2.198 2.198 0 011.591-.691h4.25a1 1 0 001-1v-9.806z" fill="#DF252A" fill-opacity=".5"/></svg>