<svg width="220" height="75" viewBox="0 0 220 75" fill="none" xmlns="http://www.w3.org/2000/svg">
<path d="M53.3446 55.6436L51.8668 59.4573C51.5549 60.2616 50.9703 60.9356 50.2117 61.3658C49.4531 61.7959 48.5668 61.9559 47.7021 61.8187L43.6026 61.1737C43.3376 61.1327 43.0668 61.1467 42.8076 61.215C42.5484 61.2832 42.3067 61.4041 42.098 61.5698L38.8775 64.1424C38.1988 64.6859 37.3501 64.9827 36.4747 64.9827C35.5992 64.9827 34.7505 64.6859 34.0718 64.1424L30.8513 61.5698C30.6422 61.4036 30.3998 61.2824 30.1399 61.2142C29.88 61.1459 29.6085 61.1321 29.3428 61.1737L25.2434 61.8187C24.3787 61.9559 23.4924 61.7959 22.7338 61.3658C21.9751 60.9356 21.3906 60.2616 21.0786 59.4573L19.6008 55.6436C19.5049 55.3978 19.3576 55.1745 19.1685 54.9881C18.9795 54.8016 18.7528 54.6561 18.503 54.5609L14.6224 53.1086C13.8035 52.8027 13.1173 52.2283 12.6795 51.4826C12.2417 50.7369 12.0792 49.8656 12.2195 49.0157L12.8759 44.987C12.9203 44.7278 12.909 44.4624 12.8429 44.2078C12.7768 43.9531 12.6573 43.7149 12.492 43.5083L9.85502 40.3434C9.30199 39.6764 9 38.8423 9 37.9819C9 37.1215 9.30199 36.2875 9.85502 35.6205L12.4728 32.4556C12.6381 32.249 12.7576 32.0107 12.8237 31.7561C12.8898 31.5014 12.9011 31.236 12.8567 30.9769L12.2195 26.9481C12.0792 26.0983 12.2417 25.227 12.6795 24.4813C13.1173 23.7356 13.8035 23.1612 14.6224 22.8552L18.503 21.3991C18.7534 21.306 18.9807 21.1617 19.17 20.9757C19.3592 20.7897 19.5061 20.5663 19.6008 20.3203L21.0825 16.5065C21.3938 15.7018 21.9783 15.0274 22.737 14.5972C23.4958 14.1669 24.3825 14.0072 25.2472 14.1451L29.3428 14.7902C29.6065 14.8338 29.8766 14.8228 30.1357 14.7578C30.3948 14.6928 30.6373 14.5754 30.8475 14.4129L34.0679 11.8403C34.7466 11.2968 35.5953 11 36.4708 11C37.3463 11 38.195 11.2968 38.8737 11.8403L42.0941 14.4129C42.3044 14.5754 42.5468 14.6928 42.8059 14.7578C43.065 14.8228 43.3351 14.8338 43.5988 14.7902L47.6983 14.1451C48.563 14.0072 49.4496 14.1669 50.2084 14.5972C50.9672 15.0274 51.5516 15.7018 51.863 16.5065L53.3408 20.3203C53.4376 20.5657 53.5857 20.7885 53.7754 20.9743C53.9651 21.1601 54.1924 21.3048 54.4424 21.3991L58.3231 22.8552C59.1415 23.1618 59.8273 23.7363 60.265 24.4818C60.7027 25.2273 60.8655 26.0984 60.726 26.9481L60.0734 30.9731C60.0317 31.2336 60.046 31.4997 60.1154 31.7545C60.1848 32.0092 60.3078 32.2467 60.4765 32.4518L63.0943 35.6167C63.6473 36.2837 63.9493 37.1178 63.9493 37.9782C63.9493 38.8385 63.6473 39.6726 63.0943 40.3396L60.4765 43.5045C60.3078 43.7096 60.1848 43.9472 60.1154 44.2019C60.046 44.4566 60.0317 44.7227 60.0734 44.9832L60.7298 49.012C60.8693 49.8617 60.7065 50.7327 60.2689 51.4783C59.8312 52.2238 59.1453 52.7983 58.3269 53.1049L54.4463 54.5572C54.1954 54.6523 53.9678 54.7982 53.778 54.9854C53.5882 55.1725 53.4406 55.3968 53.3446 55.6436Z" fill="url(#paint0_linear_645_1592)"/>
<path d="M47.0993 34.3678C48.1053 36.5645 48.3008 39.0371 47.6522 41.3602C47.0036 43.6833 45.5513 45.7116 43.5454 47.096C41.5395 48.4805 39.1052 49.1347 36.6616 48.9459C34.2179 48.7571 31.9175 47.7373 30.1564 46.0618C28.2962 46.73 26.2706 46.8127 24.3605 46.2983C22.4504 45.7839 20.7506 44.6979 19.497 43.1911C19.373 43.0408 19.2871 42.8637 19.2461 42.6745C19.2051 42.4852 19.2103 42.2891 19.2612 42.1022C19.3121 41.9153 19.4073 41.7429 19.539 41.5991C19.6707 41.4553 19.8352 41.3442 20.019 41.2748L25.1203 39.3359L22.5294 35.7032C22.1935 35.2305 21.9817 34.6835 21.913 34.111C21.8442 33.5384 21.9205 32.9581 22.1352 32.4215C22.3499 31.885 22.6962 31.4089 23.1433 31.0357C23.5905 30.6625 24.1246 30.4038 24.6981 30.2825C27.6153 29.6714 29.491 29.0791 30.3252 28.5057C31.1595 27.9324 32.3468 26.4235 33.8873 23.979C34.1981 23.4887 34.6278 23.0817 35.1378 22.7945C35.6479 22.5074 36.2225 22.3491 36.8102 22.3337C37.3978 22.3184 37.9802 22.4466 38.505 22.7067C39.0299 22.9669 39.4809 23.3509 39.8177 23.8244L42.3933 27.4306L45.9324 23.4283C46.0613 23.282 46.2236 23.1678 46.406 23.095C46.5885 23.0222 46.7859 22.9929 46.9821 23.0095C47.1782 23.026 47.3677 23.088 47.5348 23.1903C47.7019 23.2926 47.8421 23.4323 47.9437 23.598C48.9511 25.2594 49.4107 27.1863 49.2595 29.1145C49.1083 31.0427 48.3537 32.8778 47.0993 34.3678ZM37.9561 51.5391L35.2193 51.1618C34.7586 51.0963 34.2903 51.2133 33.9175 51.4871C33.5446 51.7609 33.2976 52.169 33.231 52.6217C33.1643 53.0744 33.2833 53.5346 33.5619 53.9011C33.8405 54.2675 34.2558 54.5102 34.7164 54.5757L37.4532 54.9529C37.9144 55.016 38.3822 54.8964 38.7536 54.6205C39.125 54.3446 39.3697 53.935 39.4339 53.4818C39.498 53.0286 39.3763 52.5689 39.0956 52.2038C38.8148 51.8388 38.3981 51.5983 37.9369 51.5353L37.9561 51.5391ZM52.3387 39.4679C51.8842 39.3728 51.4099 39.4588 51.0198 39.707C50.6298 39.9552 50.3559 40.3454 50.2583 40.7919L49.6864 43.4665C49.6309 43.6908 49.6218 43.9239 49.6597 44.1518C49.6976 44.3797 49.7817 44.5978 49.907 44.7931C50.0323 44.9885 50.1963 45.1571 50.3892 45.289C50.5821 45.4208 50.7999 45.5133 51.0299 45.5608C51.2598 45.6083 51.4972 45.61 51.7278 45.5656C51.9584 45.5213 52.1775 45.4318 52.3723 45.3026C52.5671 45.1734 52.7334 45.0071 52.8615 44.8135C52.9896 44.6199 53.0768 44.403 53.1179 44.1756L53.6899 41.5351C53.7879 41.0864 53.7006 40.6178 53.4473 40.2323C53.1939 39.8468 52.7952 39.576 52.3387 39.4792V39.4679Z" fill="white"/>
<path d="M193.452 41.4262C193.452 36.545 197.29 33.1009 202.361 33.1009C207.432 33.1009 211.285 36.545 211.285 41.4262C211.285 46.3075 207.447 49.7554 202.376 49.7554C197.306 49.7554 193.452 46.2736 193.452 41.4262ZM206.253 41.4262C206.253 39.1629 204.771 37.4654 202.415 37.4654C200.058 37.4654 198.576 39.144 198.576 41.4262C198.576 43.7084 200.058 45.3871 202.415 45.3871C204.771 45.3871 206.253 43.7688 206.253 41.4262ZM190.109 37.5748C190.44 38.2264 190.603 38.9478 190.585 39.6759C190.585 41.4451 189.633 43.0709 188.097 44.3196C190.205 45.2966 191.46 47.6731 191.46 49.9025C191.46 54.0859 187.963 56.8849 182.631 56.8849C177.3 56.8849 173.803 54.1425 173.803 49.9025C173.786 48.7578 174.09 47.6306 174.684 46.6454C175.277 45.6603 176.136 44.8553 177.165 44.3196C175.588 43.0672 174.678 41.4451 174.678 39.6759C174.678 36.0093 177.641 33.3008 182.355 33.3008C185.13 33.3008 185.944 33.761 187.541 33.761C188.622 33.8055 189.692 33.5295 190.611 32.9689C190.931 32.7696 191.297 32.6552 191.675 32.6369C192.3 32.6369 192.623 33.248 192.623 33.9836C192.661 34.7701 192.436 35.5472 191.982 36.1959C191.528 36.8445 190.87 37.3289 190.109 37.5748ZM186.5 49.7554C186.5 47.8956 185.019 46.5867 182.662 46.5867C180.305 46.5867 178.824 47.8391 178.824 49.7554C178.824 51.5245 180.455 52.924 182.662 52.924C184.869 52.924 186.5 51.5245 186.5 49.7554ZM179.549 39.9475C179.589 40.7257 179.931 41.4592 180.505 41.9963C181.08 42.5334 181.842 42.8329 182.635 42.8329C183.428 42.8329 184.191 42.5334 184.765 41.9963C185.339 41.4592 185.682 40.7257 185.721 39.9475C185.721 38.2689 184.47 37.107 182.651 37.107C180.831 37.107 179.549 38.2198 179.549 39.9551V39.9475ZM171.488 41.7507V47.5712C171.488 48.7029 171.051 49.1556 169.815 49.1556H168.145C166.89 49.1556 166.471 48.6954 166.471 47.5712V41.9129C166.471 40.4756 166.226 39.4458 165.704 38.8008C165.394 38.4395 165.003 38.1547 164.561 37.9693C164.119 37.7839 163.639 37.703 163.159 37.7332C162.666 37.7131 162.175 37.7982 161.719 37.9825C161.263 38.1668 160.854 38.4459 160.518 38.8008C159.95 39.4458 159.57 40.4756 159.57 41.8789V47.5373C159.57 48.6991 159.04 49.1216 157.9 49.1216H156.242C155.09 49.1216 154.572 48.6991 154.572 47.5373V34.5004C154.572 33.746 154.956 33.4291 155.52 33.4291C156.376 33.4291 157.589 34.1307 158.484 35.4774C159.172 34.7419 160.009 34.1554 160.941 33.7553C161.873 33.3552 162.879 33.1503 163.896 33.1537C166.349 33.1537 168.302 33.9836 169.596 35.3831C170.89 36.7826 171.496 38.6838 171.496 41.7582L171.488 41.7507ZM145.322 28.6421C145.339 27.9327 145.639 27.2583 146.157 26.7643C146.676 26.2703 147.371 25.9964 148.093 26.0015H148.189C148.562 25.9912 148.932 26.0573 149.278 26.1954C149.623 26.3336 149.935 26.5409 150.195 26.8041C150.454 27.0674 150.655 27.3808 150.784 27.7244C150.914 28.068 150.969 28.4344 150.947 28.8001C150.924 29.1659 150.824 29.523 150.654 29.8489C150.483 30.1747 150.246 30.4621 149.956 30.6928C149.666 30.9234 149.331 31.0923 148.971 31.1887C148.611 31.285 148.235 31.3068 147.867 31.2525C147.179 31.2308 146.528 30.9454 146.052 30.4575C145.577 29.9695 145.314 29.3178 145.322 28.6421ZM145.648 47.5712V35.3454C145.648 34.2137 146.085 33.7271 147.318 33.7271H148.991C150.243 33.7271 150.661 34.1873 150.661 35.3454V47.5712C150.661 48.7029 150.223 49.1556 148.991 49.1556H147.318C146.101 49.148 145.648 48.7029 145.648 47.5712ZM136.777 47.5712V32.2333C136.777 28.3818 138.981 26.1977 140.861 26.1977C141.429 26.1977 141.809 26.5749 141.809 27.2652V47.5712C141.809 48.7293 141.337 49.1556 140.14 49.1556H138.466C137.322 49.148 136.793 48.7406 136.793 47.5712H136.777ZM116.092 41.4262C116.092 36.545 119.93 33.1009 125.001 33.1009C130.071 33.1009 133.91 36.545 133.91 41.4262C133.91 46.3075 130.071 49.7554 125.001 49.7554C119.93 49.7554 116.092 46.2736 116.092 41.4262ZM128.839 41.4262C128.839 39.1629 127.358 37.4654 125.001 37.4654C122.644 37.4654 121.162 39.144 121.162 41.4262C121.162 43.7084 122.644 45.3871 125.001 45.3871C127.358 45.3871 128.836 43.7688 128.836 41.4262H128.839ZM113.505 35.3454V48.3747C113.505 49.1292 113.121 49.4423 112.557 49.4423C111.701 49.4423 110.484 48.7406 109.632 47.4354C108.965 48.1689 108.144 48.7512 107.225 49.142C106.306 49.5328 105.312 49.7228 104.312 49.6988C102.404 49.7547 100.548 49.089 99.1259 47.8391C97.6443 46.4396 96.8229 44.3007 96.8229 41.2414V35.3454C96.8229 34.2137 97.2605 33.7271 98.4964 33.7271H100.166C101.421 33.7271 101.84 34.1873 101.84 35.3454V40.8378C101.84 42.6975 102.181 43.6745 102.788 44.3196C103.087 44.6028 103.442 44.8226 103.83 44.9654C104.219 45.1081 104.634 45.1708 105.049 45.1494C105.495 45.1567 105.938 45.0741 106.351 44.9067C106.763 44.7393 107.137 44.4907 107.448 44.1762C108.073 43.5312 108.396 42.5013 108.396 40.917V35.3454C108.396 34.1873 108.929 33.7271 110.069 33.7271H111.739C112.975 33.7082 113.505 34.1873 113.505 35.3454ZM93.3721 27.2577V48.3823C93.3721 49.1367 92.9883 49.4498 92.4202 49.4498C91.568 49.4498 90.3513 48.7482 89.4953 47.4958C88.432 48.7142 86.2863 49.7818 83.799 49.7818C78.809 49.7818 75.4619 46.2434 75.4619 41.4526C75.4619 36.6619 78.9165 33.1235 83.799 33.1235C85.435 33.1224 87.0358 33.5904 88.4052 34.4702V32.2333C88.4052 28.3818 90.666 26.1977 92.4893 26.1977C93.0305 26.1901 93.3721 26.5598 93.3721 27.2577ZM88.3821 41.4262C88.3821 39.0497 86.6548 37.4654 84.5091 37.4654C83.9823 37.4578 83.4595 37.5558 82.9725 37.7535C82.4856 37.9511 82.0447 38.2442 81.6769 38.6149C81.309 38.9856 81.0219 39.426 80.8331 39.9094C80.6442 40.3928 80.5576 40.9089 80.5786 41.4262C80.5786 43.8028 82.3059 45.3871 84.5091 45.3871C86.7124 45.3871 88.3744 43.8593 88.3744 41.4262H88.3821Z" fill="#4B4B4B"/>
<defs>
<linearGradient id="paint0_linear_645_1592" x1="17.6164" y1="19.4489" x2="54.6768" y2="57.1598" gradientUnits="userSpaceOnUse">
<stop stop-color="#FFC100"/>
<stop offset="1" stop-color="#FFA300"/>
</linearGradient>
</defs>
</svg>
