<svg width="264" height="91" viewBox="0 0 264 91" fill="none" xmlns="http://www.w3.org/2000/svg">
<path d="M50.4884 52.4883C50.4884 57.1089 50.4884 61.4848 50.4884 66.0636C62.3566 66.0636 74.1997 66.0636 86.1367 66.0636C86.1367 70.6186 86.1367 74.9825 86.1367 79.4539C68.5533 79.4539 51.0012 79.4539 33.2928 79.4539C33.2678 79.024 33.2115 78.5823 33.2115 78.1405C33.2052 57.1985 33.2115 36.2624 33.199 15.3204C33.199 14.3891 33.2365 13.8101 34.5496 13.8101C51.4076 13.8518 68.2719 13.8399 85.1299 13.8399C85.4113 13.8399 85.699 13.8698 86.1054 13.8936C86.1054 18.2516 86.1054 22.5558 86.1054 27.0869C74.2935 27.0869 62.4504 27.0869 50.526 27.0869C50.526 31.3075 50.526 35.3013 50.526 39.4981C62.3629 39.4981 74.206 39.4981 86.1429 39.4981C86.1429 43.9097 86.1429 48.1244 86.1429 52.4943C74.256 52.4883 62.4504 52.4883 50.4884 52.4883Z" fill="#D22222"/>
<path d="M245.27 32.6742C239.886 32.6742 234.589 32.6742 229.418 32.6742C229.243 32.4593 229.149 32.3936 229.131 32.322C228.099 27.1163 225.96 24.9971 220.495 24.1016C217.619 23.63 214.711 23.5882 211.947 24.7404C209.865 25.6119 208.152 26.8775 207.858 29.1998C207.539 31.6773 208.733 33.6712 210.978 34.6681C214.236 36.1188 217.663 37.253 221.064 38.4052C226.148 40.1245 231.375 41.5155 236.359 43.4616C241.887 45.6227 246.02 49.3717 247.239 55.1923C249.472 65.8603 245.082 74.5463 233.62 78.4327C228.311 80.2355 222.79 80.6952 217.2 80.534C214.549 80.4564 211.872 80.3788 209.265 79.9549C198.141 78.1521 191.112 70.8391 189.993 60.1054C189.893 59.1502 189.793 58.1951 189.674 57.0429C190.712 57.0429 191.619 57.0429 192.519 57.0429C196.678 57.0429 200.83 57.0668 204.988 57.025C205.951 57.013 206.313 57.2936 206.457 58.2309C207.483 64.8096 211.266 68.1109 218.232 68.284C220.764 68.3497 223.372 68.1646 225.842 67.6512C229.656 66.8572 231.213 64.5171 230.906 60.8815C230.756 59.0487 229.787 57.6637 228.099 56.9832C225.71 56.0221 223.222 55.2878 220.752 54.5177C215.755 52.9655 210.716 51.5507 205.757 49.8911C201.643 48.518 198.06 46.2495 195.258 43.0019C188.161 34.7696 190.3 22.1316 199.817 15.9051C204.669 12.7291 210.159 11.4098 215.924 11.0874C222.89 10.6994 229.65 11.5232 235.702 15.1708C242.118 19.0332 244.976 24.8239 245.338 31.8922C245.338 32.1608 245.288 32.4294 245.27 32.6742Z" fill="#D22222"/>
<path d="M167.576 79.4772C161.692 79.4772 156.021 79.4772 150.155 79.4772C150.155 78.8146 150.155 78.2295 150.155 77.6445C150.155 61.4126 150.155 45.1808 150.155 28.9489C150.155 27.152 150.155 27.146 148.273 27.146C142.914 27.146 137.549 27.146 132.19 27.146C131.615 27.146 131.04 27.146 130.352 27.146C130.352 22.6866 130.352 18.3406 130.352 13.917C149.311 13.917 168.22 13.917 187.242 13.917C187.242 18.263 187.242 22.5672 187.242 27.1102C180.732 27.1102 174.21 27.1102 167.576 27.1102C167.576 44.6674 167.576 61.9917 167.576 79.4772Z" fill="#D22222"/>
<path d="M93.2524 79.4476C93.2524 57.6101 93.2524 35.8562 93.2524 13.9172C93.7589 13.8873 94.2654 13.8396 94.7719 13.8396C99.5554 13.8336 104.339 13.8814 109.116 13.8038C110.423 13.7799 110.717 14.1679 110.717 15.3619C110.679 31.4564 110.692 47.551 110.692 63.6515C110.692 64.2007 110.692 64.7499 110.692 65.4424C121.453 65.4424 132.102 65.4424 142.882 65.4424C142.882 70.1705 142.882 74.7493 142.882 79.4476C126.412 79.4476 109.923 79.4476 93.2524 79.4476Z" fill="#D22222"/>
<path d="M25.4833 79.4863C19.6368 79.4863 13.8653 79.4863 8 79.4863C8 57.619 8 35.7994 8 13.9082C13.834 13.9082 19.6055 13.9082 25.4833 13.9082C25.4833 35.7815 25.4833 57.5951 25.4833 79.4863Z" fill="#D22222"/>
<path d="M252.504 18.3002C252.761 17.2854 253.005 16.3183 253.255 15.3571C253.743 13.4587 253.743 13.4587 256 13.6319C256 16.1631 256 18.7122 256 21.3866C255.643 21.4165 255.243 21.4463 254.662 21.4881C254.662 19.8106 254.662 18.2405 254.662 16.6705C254.568 16.6645 254.474 16.6526 254.38 16.6466C254.068 17.8824 253.749 19.1181 253.436 20.3539C253.292 20.927 253.249 21.6971 252.354 21.4404C251.948 21.3269 251.523 20.8255 251.385 20.4136C250.954 19.1241 250.654 17.7988 250.022 16.5332C250.022 18.1271 250.022 19.7151 250.022 21.3866C249.516 21.3866 249.115 21.3866 248.64 21.3866C248.64 18.8136 248.64 16.2944 248.64 13.7811C250.716 13.22 250.922 13.3334 251.429 15.2318C251.679 16.169 251.954 17.0943 252.229 18.0256C252.242 18.1032 252.348 18.157 252.504 18.3002Z" fill="black"/>
<path d="M247.564 13.5444C247.564 14.0578 247.564 14.4101 247.564 14.8399C246.857 14.8936 246.194 14.9473 245.375 15.007C245.375 17.1084 245.375 19.1978 245.375 21.3947C244.756 21.4246 244.306 21.4484 243.668 21.4783C243.668 19.2814 243.668 17.186 243.668 15.0309C242.843 14.9652 242.186 14.9115 241.461 14.8518C241.267 14.1653 241.08 13.5444 242.193 13.5444C243.918 13.5444 245.65 13.5444 247.564 13.5444Z" fill="black"/>
</svg>
