<svg width="264" height="91" viewBox="0 0 264 91" fill="none" xmlns="http://www.w3.org/2000/svg">
<path d="M199.808 33.5498H197.166V64.6288H199.808V33.5498Z" fill="black"/>
<path d="M229.774 57.6371H226.995V43.0119H221.993V40.6279H234.776V43.0119H229.774V57.6371Z" fill="black"/>
<path d="M54.2341 23.3352C65.2505 29.5731 67.8147 43.5641 60.15 57.7149C53.4156 70.1566 38.7037 75.4702 27.7454 69.1358C16.787 62.8014 14.6435 45.13 19.3534 34.96C26.1913 20.1927 42.0605 16.4422 54.2331 23.3362" fill="#007FA3"/>
<path d="M53.976 33.8258C54.9771 35.0125 55.7138 36.3993 56.1368 37.8934C56.5599 39.3874 56.6596 40.9547 56.4294 42.4903C56.1676 44.2141 55.5189 45.856 54.532 47.2932C53.5451 48.7304 52.2456 49.9254 50.7311 50.7884C47.8417 52.3516 44.593 53.1289 41.3092 53.0434C41.2833 53.5781 41.1756 55.4272 41.1227 55.7153C41.0668 56.0481 40.9238 56.3603 40.7083 56.6201C40.2801 57.097 39.7154 57.4301 39.091 57.5745C38.6567 57.7002 38.2077 57.7685 37.7556 57.7769C37.698 57.778 37.6405 57.7739 37.5836 57.7653C37.194 57.7253 36.8307 57.5499 36.5569 57.2698C36.303 56.9815 36.1521 56.6169 36.1279 56.2335L36.0999 55.8686C36.0295 55.5577 35.6347 39.6741 35.7114 39.956C35.7694 38.0532 38.8392 37.7226 40.5063 38.0563C42.1733 38.39 41.7496 40.4254 41.7081 42.9189C41.7081 42.9189 41.6283 46.1993 41.474 49.666C43.3595 49.5766 45.2023 49.0736 46.8718 48.1924C48.3609 47.5754 49.6262 46.5181 50.4984 45.1622C51.3707 43.8063 51.8083 42.2162 51.7527 40.6048C51.7527 37.0272 48.2725 33.0227 41.8511 33.0227C35.4296 33.0227 32.6758 34.6415 29.5666 37.2127C28.8673 37.7942 28.3233 38.3787 27.8146 38.7673C27.3059 39.156 25.9497 39.211 25.5861 38.3104C25.1488 37.2273 25.9674 36.0171 26.4481 35.4294C27.7667 33.8779 29.3523 32.5745 31.13 31.582C33.963 29.9568 37.1475 29.0428 40.411 28.9177C44.0558 28.8264 49.8069 29.1248 53.9501 33.803M40.0546 60.127C39.7349 59.8732 39.3613 59.6959 38.9625 59.6088C38.8337 59.5848 38.703 59.5727 38.5719 59.5718C38.1969 59.5839 37.8303 59.6861 37.5032 59.8699C37.176 60.0537 36.898 60.3138 36.6926 60.628C36.3121 61.1632 36.1546 61.8252 36.2533 62.4745C36.3043 62.8494 36.457 63.2034 36.6947 63.4977C36.9938 63.8233 37.3823 64.053 37.8115 64.1586C38.0866 64.2364 38.3711 64.2761 38.6569 64.276C39.2382 64.2886 39.8058 64.0988 40.2628 63.7391C40.5084 63.5431 40.7057 63.2929 40.8394 63.0084C40.973 62.7239 41.0395 62.4128 41.0336 62.0985C41.0281 61.7179 40.9372 61.3432 40.7678 61.0024C40.5984 60.6616 40.3546 60.3636 40.0546 60.1295" fill="white"/>
<path d="M124.736 56.5002C124.557 56.5454 124.374 56.5752 124.19 56.5893C123.248 56.5893 122.962 55.8017 122.962 54.5798V45.5074C122.962 42.0811 120.92 40.3442 116.891 40.3442C113.284 40.3442 110.456 42.0532 110.456 44.2317C110.432 44.4984 110.465 44.7674 110.552 45.0206C110.639 45.2738 110.779 45.5055 110.963 45.7007C111.146 45.896 111.369 46.0502 111.616 46.1531C111.863 46.2561 112.129 46.3057 112.397 46.2984C112.663 46.3097 112.929 46.2675 113.178 46.1749C113.428 46.0823 113.657 45.941 113.852 45.7589C114.046 45.5768 114.202 45.3579 114.311 45.1147C114.42 44.8715 114.479 44.6089 114.485 44.3425C114.482 43.9648 114.401 43.5917 114.247 43.2469C114.093 42.9021 113.869 42.5931 113.589 42.3391C114.427 41.5992 115.522 41.2188 116.637 41.2799C118.73 41.2799 119.623 42.5239 119.623 45.4351V47.6505C115.712 48.6651 109.874 49.4321 109.874 53.8875C109.874 55.7841 111.074 57.9096 114.453 57.9096C115.481 57.8662 116.487 57.6061 117.407 57.1459C118.326 56.6858 119.138 56.0365 119.789 55.2402C119.954 57.1792 120.732 57.9096 122.483 57.9096C123.351 57.9009 124.204 57.6829 124.969 57.2735C125.073 57.2255 125.156 57.1408 125.202 57.0356C125.248 56.9305 125.253 56.812 125.217 56.7032C125.138 56.472 124.925 56.4651 124.741 56.4962M119.629 53.93C119.203 54.5747 117.748 56.2037 116.077 56.2037C113.939 56.2037 113.471 54.6191 113.471 53.2894C113.471 51.0995 115.145 49.8084 119.628 48.7016L119.629 53.93Z" fill="black"/>
<path d="M136.708 40.3456C135.05 40.3456 133.454 41.2784 132.083 43.518V41.0121C132.086 40.9478 132.075 40.8835 132.051 40.8238C132.027 40.7641 131.991 40.7103 131.945 40.6654C131.899 40.6205 131.844 40.5854 131.784 40.5632C131.723 40.541 131.659 40.5321 131.595 40.5364L127.14 40.6523C127.088 40.6544 127.036 40.6667 126.989 40.6887C126.941 40.7107 126.899 40.7418 126.863 40.7803C126.828 40.8188 126.8 40.8642 126.783 40.9134C126.765 40.9625 126.756 41.0144 126.759 41.0667C126.752 41.1643 126.782 41.2608 126.843 41.3374C126.904 41.4141 126.991 41.4652 127.087 41.4812C128.554 41.6884 128.745 42.3842 128.745 43.1056V55.5877C128.745 56.4738 128.52 56.7637 127.111 56.8528C127.008 56.8561 126.91 56.9003 126.839 56.9758C126.768 57.0512 126.731 57.1517 126.734 57.2551C126.737 57.3584 126.781 57.4561 126.857 57.5268C126.932 57.5976 127.033 57.6354 127.136 57.6321H134.094C134.144 57.6324 134.195 57.6228 134.241 57.6038C134.288 57.5847 134.33 57.5568 134.366 57.5213C134.402 57.4858 134.431 57.4433 134.45 57.3968C134.47 57.3502 134.48 57.3005 134.48 57.25C134.481 57.1496 134.442 57.0526 134.373 56.9798C134.303 56.907 134.209 56.8642 134.108 56.8594C132.498 56.7847 132.081 56.5214 132.081 55.5887V45.3286C132.378 44.5843 132.832 43.9126 133.411 43.3596C133.991 42.8066 134.683 42.385 135.441 42.1238C135.371 42.3722 135.333 42.6289 135.328 42.8869C135.328 43.4408 135.548 43.972 135.939 44.3636C136.331 44.7552 136.862 44.9749 137.416 44.9749C137.969 44.9749 138.5 44.7552 138.892 44.3636C139.283 43.972 139.503 43.4408 139.503 42.8869C139.511 42.5286 139.442 42.1723 139.301 41.843C139.16 41.5136 138.949 41.2187 138.684 40.9776C138.419 40.7366 138.105 40.5555 137.764 40.4463C137.422 40.3371 137.062 40.3024 136.706 40.3446" fill="black"/>
<path d="M189.484 56.8559C188.075 56.7678 187.85 56.4753 187.85 55.5913V45.4006C187.85 42.1878 186.142 40.3462 182.989 40.3462C181.797 40.3613 180.628 40.6758 179.589 41.2611C178.55 41.8464 177.675 42.6836 177.044 43.6957V41.0127C177.047 40.9482 177.036 40.8838 177.012 40.8239C176.988 40.764 176.952 40.7099 176.906 40.665C176.859 40.6201 176.804 40.5854 176.744 40.5633C176.683 40.5412 176.619 40.5324 176.554 40.537L172.099 40.6529C172.047 40.6549 171.996 40.6673 171.948 40.6893C171.901 40.7112 171.858 40.7424 171.822 40.7809C171.787 40.8194 171.759 40.8643 171.742 40.9135C171.724 40.9627 171.716 41.015 171.718 41.0673C171.711 41.1648 171.741 41.2613 171.801 41.338C171.862 41.4147 171.949 41.466 172.045 41.4818C173.512 41.689 173.703 42.3848 173.703 43.1062V55.5903C173.703 56.4743 173.478 56.7642 172.071 56.8544C171.973 56.864 171.882 56.9111 171.817 56.9855C171.751 57.0598 171.717 57.1558 171.72 57.2547C171.723 57.3536 171.764 57.4478 171.834 57.5178C171.903 57.5878 171.997 57.6284 172.096 57.6317H178.501C178.6 57.6284 178.694 57.5878 178.764 57.5178C178.834 57.4478 178.874 57.3536 178.877 57.2547C178.88 57.1558 178.846 57.0598 178.781 56.9855C178.715 56.9111 178.624 56.864 178.526 56.8544C177.179 56.7684 177.041 56.4712 177.041 55.5903V45.8803C178.069 43.7868 179.873 42.2181 181.621 42.2181C183.767 42.2181 184.51 43.3836 184.51 46.3798V55.5903C184.51 56.4619 184.329 56.7489 183.193 56.8473C183.095 56.8592 183.005 56.9079 182.941 56.9834C182.876 57.059 182.843 57.1561 182.847 57.2552C182.852 57.3542 182.893 57.4479 182.963 57.5178C183.033 57.5877 183.127 57.6281 183.226 57.6317H189.455C189.554 57.6286 189.648 57.5882 189.718 57.5183C189.788 57.4484 189.829 57.3541 189.832 57.2552C189.836 57.1563 189.801 57.0599 189.736 56.9855C189.671 56.911 189.58 56.8641 189.481 56.8544" fill="black"/>
<path d="M162.696 40.3441C160.942 40.2621 159.204 40.7075 157.705 41.6228C156.207 42.5382 155.016 43.8817 154.288 45.4799C153.56 47.0782 153.326 48.8579 153.619 50.59C153.911 52.322 154.715 53.9268 155.927 55.1975C157.139 56.4682 158.704 57.3463 160.42 57.7191C162.136 58.0919 163.924 57.9421 165.554 57.289C167.184 56.6358 168.582 55.5096 169.566 54.0548C170.55 52.6001 171.076 50.884 171.076 49.1275C171.113 47.9977 170.924 46.872 170.521 45.8159C170.118 44.7599 169.509 43.7948 168.728 42.977C167.948 42.1593 167.013 41.5051 165.977 41.053C164.942 40.601 163.826 40.36 162.696 40.3441ZM162.696 56.9884C159.07 56.9884 158.09 53.4647 158.09 49.1285C158.09 44.7923 159.072 41.2676 162.696 41.2676C166.32 41.2676 167.302 44.7912 167.302 49.1285C167.302 53.4657 166.32 56.9884 162.696 56.9884Z" fill="black"/>
<path d="M73.4495 34.5816C76.0303 34.8314 76.5836 35.7217 76.5836 36.9985V54.4155C76.5836 55.6851 76.0303 56.5805 73.4495 56.8334C73.3979 56.8353 73.3472 56.8477 73.3005 56.8699C73.2538 56.892 73.2122 56.9237 73.178 56.9625C73.1439 57.0013 73.118 57.0464 73.102 57.0956C73.086 57.1447 73.0801 57.1969 73.0848 57.2484C73.0829 57.3015 73.0916 57.3545 73.1104 57.4042C73.1291 57.454 73.1576 57.4992 73.1941 57.5378C73.2307 57.5764 73.2746 57.6075 73.3233 57.6289C73.3719 57.6504 73.4244 57.6619 73.4775 57.6628H83.6505C83.7035 57.6616 83.7557 57.65 83.8041 57.6284C83.8525 57.6069 83.8961 57.5759 83.9324 57.5373C83.9688 57.4988 83.9971 57.4533 84.0158 57.4037C84.0344 57.3541 84.043 57.3013 84.0411 57.2484C84.0462 57.1968 84.0407 57.1444 84.0248 57.095C84.009 57.0457 83.9832 57.0003 83.949 56.9615C83.9147 56.9226 83.8728 56.8914 83.826 56.8694C83.7791 56.8474 83.7282 56.8349 83.6764 56.8334C80.905 56.6261 80.3185 55.7421 80.3185 54.4155V48.094H83.4702C87.9594 48.094 93.1843 46.7942 93.1843 40.9127C93.1843 35.109 87.5895 33.7451 82.8952 33.7451H73.4775C73.4244 33.7462 73.372 33.758 73.3235 33.7795C73.2749 33.801 73.231 33.8315 73.1945 33.8701C73.1579 33.9087 73.1294 33.9545 73.1106 34.0042C73.0918 34.0539 73.083 34.1065 73.0848 34.1596C73.0804 34.211 73.0865 34.2629 73.1026 34.3119C73.1188 34.3609 73.1446 34.4062 73.1787 34.445C73.2128 34.4837 73.2544 34.5148 73.3009 34.5371C73.3474 34.5593 73.398 34.5718 73.4495 34.574M80.3185 34.8468H82.9481C88.2091 34.8468 88.9737 37.7623 88.9737 40.9067C88.9737 44.0821 88.2091 46.9661 82.9481 46.9661H80.3185V34.8468Z" fill="black"/>
<path d="M100.912 40.3433C96.4831 40.3433 92.8818 44.3676 92.8818 49.2998C92.8818 54.2879 96.2593 57.9106 100.912 57.9106C102.308 57.9825 103.694 57.6499 104.905 56.9522C106.116 56.2544 107.1 55.2213 107.738 53.9776C107.909 53.6481 107.861 53.3124 107.659 53.1973C107.568 53.1503 107.464 53.1385 107.365 53.1639C107.266 53.1893 107.18 53.2505 107.123 53.3355C105.874 55.0185 104.43 56.183 102.254 56.183C97.3379 56.183 96.3702 51.1276 96.5785 48.063H107.281C107.817 48.063 107.914 47.7522 107.914 47.2174C107.914 44.841 106.691 40.3433 100.912 40.3433ZM96.6396 46.9416C97.0105 43.3049 98.4785 41.3134 100.708 41.3134C103.696 41.3134 104.215 43.8369 104.215 45.8941C104.215 46.2599 104.199 46.5809 104.173 46.9416H96.6396Z" fill="black"/>
<path d="M147.288 47.1488C144.26 46.269 143.011 45.4151 143.011 44.0346C143.015 43.6574 143.097 43.2851 143.251 42.9406C143.404 42.5961 143.627 42.2864 143.904 42.0312C144.182 41.776 144.509 41.5808 144.865 41.4569C145.222 41.333 145.599 41.2833 145.975 41.3111C147.949 41.3111 149.23 42.3637 150.894 45.5599C151.006 45.7775 151.108 45.9247 151.338 45.9247C151.611 45.9247 151.752 45.7309 151.752 45.3848V40.8456C151.752 40.5222 151.691 40.3491 151.464 40.3491C151.384 40.3572 151.305 40.3818 151.234 40.421C151.163 40.4602 151.1 40.5133 151.05 40.5773L150.325 41.3192C149.171 40.7105 147.891 40.3784 146.587 40.3491C143.055 40.3491 140.66 42.5465 140.66 45.6722C140.66 48.6062 142.665 49.6359 145.965 50.6132C149.21 51.575 150.385 52.4365 150.385 54.1662C150.328 54.9555 149.962 55.6901 149.366 56.2111C148.771 56.7321 147.994 56.9974 147.204 56.9489C144.747 56.9489 143.109 55.7127 141.466 52.1496C141.363 51.9278 141.238 51.7225 141.005 51.7225C140.732 51.7225 140.591 51.9153 140.591 52.2614V57.4433C140.591 57.7491 140.717 57.919 140.902 57.919C140.987 57.9129 141.07 57.8889 141.146 57.8492C141.222 57.8094 141.289 57.7545 141.342 57.6877L142.354 56.6999C143.698 57.5178 145.244 57.9405 146.817 57.919C150.435 57.919 152.546 55.6183 152.546 52.3227C152.546 49.6457 151.14 48.2808 147.28 47.1615" fill="black"/>
<path d="M220.504 45.7709C220.55 46.5401 220.417 47.3096 220.114 48.0182C219.811 48.7268 219.348 49.3549 218.76 49.8532C217.318 50.8854 215.563 51.3875 213.793 51.2741H212.025V57.6387H209.246V40.6264H214.14C215.834 40.5003 217.52 40.96 218.916 41.929C219.458 42.4039 219.883 42.9978 220.159 43.6642C220.434 44.3306 220.552 45.0515 220.503 45.7709M212.024 48.9332H213.501C214.6 49.0183 215.698 48.7583 216.642 48.1898C216.986 47.9126 217.256 47.5555 217.431 47.1499C217.605 46.7442 217.677 46.3025 217.641 45.8625C217.672 45.4535 217.607 45.0427 217.452 44.6632C217.297 44.2836 217.055 43.9452 216.746 43.6754C215.923 43.128 214.94 42.8728 213.955 42.9502H212.023L212.024 48.9332Z" fill="black"/>
<path d="M247 57.6372H237.377V40.625H246.996V42.9776H240.158V47.6084H246.567V49.9337H240.158V55.2735H246.996L247 57.6372Z" fill="black"/>
</svg>
