<svg width="30" height="30" viewBox="0 0 30 30" fill="none" xmlns="http://www.w3.org/2000/svg">
<path fill-rule="evenodd" clip-rule="evenodd" d="M7.87737 0L9.66134 0.517647C9.24034 1.77529 9.99333 3.11294 11.3423 3.50471C12.6913 3.89647 14.1253 3.19471 14.5453 1.93706L16.4962 2.50353C16.0762 3.76118 16.8292 5.09882 18.1782 5.49C19.5272 5.88235 20.9601 5.18 21.3811 3.92294L23.3251 4.48765C22.9051 5.74471 23.6581 7.08177 25.0071 7.47412C26.3551 7.86588 27.789 7.16412 28.21 5.90647L30 6.42647L22.1221 30L20.3322 29.48C20.7521 28.2224 19.9992 26.8859 18.6502 26.4935C17.3012 26.1018 15.8682 26.8035 15.4472 28.0612L13.5033 27.4965C13.9233 26.2388 13.1703 24.9012 11.8213 24.51C10.4723 24.1176 9.03935 24.82 8.61835 26.0771L6.66839 25.5106C7.08838 24.2529 6.3354 22.9159 4.98642 22.5241C3.63754 22.1318 2.20406 22.8341 1.78347 24.0918L0 23.5735L7.87737 0ZM8.39636 11.3124C9.56534 11.3124 10.1383 11.9606 10.1383 13.1506V14.1176C10.1383 15.3076 9.56534 15.9559 8.39636 15.9559H7.84337V18.75H6.67439V11.3124H8.39636ZM8.39636 12.3747H7.84337V14.8929H8.39636C8.76835 14.8929 8.97035 14.7229 8.97035 14.1918V13.0765C8.97035 12.5447 8.76835 12.3753 8.39636 12.3753V12.3747ZM13.5253 11.3124L14.7153 18.75H13.5363L13.3343 17.4006H11.9003L11.6983 18.75H10.6243L11.8143 11.3124H13.5253ZM12.5243 12.63L11.9613 16.3912H13.0873L12.5243 12.63ZM15.6572 13.0976C15.6572 11.9076 16.2412 11.2271 17.3782 11.2271C18.5152 11.2271 19.0992 11.9076 19.0992 13.0976V13.3312H17.9942V13.0229C17.9942 12.4918 17.7822 12.29 17.4092 12.29C17.0382 12.29 16.8252 12.4918 16.8252 13.0229C16.8252 14.5529 19.1102 14.84 19.1102 16.9647C19.1102 18.1547 18.5152 18.8353 17.3672 18.8353C16.2202 18.8353 15.6252 18.1547 15.6252 16.9647V16.5082H16.7302V17.0394C16.7302 17.5706 16.9632 17.7618 17.3352 17.7618C17.7072 17.7618 17.9412 17.5706 17.9412 17.0394C17.9412 15.5094 15.6572 15.2224 15.6572 13.0976ZM20.0312 13.0976C20.0312 11.9076 20.6162 11.2271 21.7521 11.2271C22.8901 11.2271 23.4741 11.9076 23.4741 13.0976V13.3312H22.3691V13.0229C22.3691 12.4918 22.1571 12.29 21.7851 12.29C21.4121 12.29 21.2001 12.4918 21.2001 13.0229C21.2001 14.5529 23.4841 14.84 23.4841 16.9647C23.4841 18.1547 22.8901 18.8353 21.7421 18.8353C20.5952 18.8353 20.0002 18.1547 20.0002 16.9647V16.5082H21.1051V17.0394C21.1051 17.5706 21.3381 17.7618 21.7111 17.7618C22.0821 17.7618 22.3161 17.5706 22.3161 17.0394C22.3161 15.5094 20.0312 15.2224 20.0312 13.0976Z" fill="#25CD71"/>
</svg>
