<svg width="248" height="71" viewBox="0 0 248 71" fill="none" xmlns="http://www.w3.org/2000/svg">
<path d="M42.4884 42.4292C42.4884 47.0499 42.4884 51.4257 42.4884 56.0045C54.3566 56.0045 66.1997 56.0045 78.1367 56.0045C78.1367 60.5595 78.1367 64.9234 78.1367 69.3948C60.5533 69.3948 43.0012 69.3948 25.2928 69.3948C25.2678 68.965 25.2115 68.5232 25.2115 68.0814C25.2052 47.1394 25.2115 26.2034 25.199 5.26133C25.199 4.33005 25.2365 3.75098 26.5496 3.75098C43.4076 3.79277 60.2719 3.78083 77.1299 3.78083C77.4113 3.78083 77.699 3.81067 78.1054 3.83455C78.1054 8.1925 78.1054 12.4967 78.1054 17.0278C66.2935 17.0278 54.4504 17.0278 42.526 17.0278C42.526 21.2484 42.526 25.2422 42.526 29.439C54.3629 29.439 66.206 29.439 78.1429 29.439C78.1429 33.8507 78.1429 38.0653 78.1429 42.4352C66.256 42.4292 54.4504 42.4292 42.4884 42.4292Z" fill="#D22222"/>
<path d="M237.27 22.6151C231.886 22.6151 226.589 22.6151 221.418 22.6151C221.243 22.4002 221.149 22.3345 221.131 22.2629C220.099 17.0573 217.96 14.938 212.495 14.0425C209.619 13.5709 206.711 13.5291 203.947 14.6813C201.865 15.5529 200.152 16.8185 199.858 19.1407C199.539 21.6182 200.733 23.6121 202.978 24.609C206.236 26.0597 209.663 27.194 213.064 28.3461C218.148 30.0654 223.375 31.4564 228.359 33.4025C233.887 35.5636 238.02 39.3126 239.239 45.1332C241.472 55.8012 237.082 64.4872 225.62 68.3736C220.311 70.1764 214.79 70.6361 209.2 70.4749C206.549 70.3973 203.872 70.3197 201.265 69.8959C190.141 68.093 183.112 60.78 181.993 50.0463C181.893 49.0911 181.793 48.136 181.674 46.9838C182.712 46.9838 183.619 46.9838 184.519 46.9838C188.678 46.9838 192.83 47.0077 196.988 46.9659C197.951 46.954 198.313 47.2345 198.457 48.1718C199.483 54.7505 203.266 58.0518 210.232 58.2249C212.764 58.2906 215.372 58.1055 217.842 57.5921C221.656 56.7981 223.213 54.458 222.906 50.8224C222.756 48.9897 221.787 47.6047 220.099 46.9241C217.71 45.963 215.222 45.2287 212.752 44.4586C207.755 42.9064 202.716 41.4916 197.757 39.832C193.643 38.4589 190.06 36.1904 187.258 32.9429C180.161 24.7105 182.3 12.0725 191.817 5.84599C196.669 2.67006 202.159 1.35073 207.924 1.02837C214.89 0.640329 221.65 1.46416 227.702 5.1117C234.118 8.97416 236.976 14.7649 237.338 21.8331C237.338 22.1017 237.288 22.3704 237.27 22.6151Z" fill="#D22222"/>
<path d="M159.576 69.4181C153.692 69.4181 148.021 69.4181 142.155 69.4181C142.155 68.7555 142.155 68.1705 142.155 67.5854C142.155 51.3536 142.155 35.1217 142.155 18.8898C142.155 17.0929 142.155 17.087 140.273 17.087C134.914 17.087 129.549 17.087 124.19 17.087C123.615 17.087 123.04 17.087 122.352 17.087C122.352 12.6275 122.352 8.28152 122.352 3.85791C141.311 3.85791 160.22 3.85791 179.242 3.85791C179.242 8.20392 179.242 12.5081 179.242 17.0511C172.732 17.0511 166.21 17.0511 159.576 17.0511C159.576 34.6083 159.576 51.9326 159.576 69.4181Z" fill="#D22222"/>
<path d="M85.2524 69.3885C85.2524 47.551 85.2524 25.7971 85.2524 3.85811C85.7589 3.82826 86.2654 3.7805 86.7719 3.7805C91.5554 3.77453 96.339 3.82229 101.116 3.74468C102.423 3.7208 102.717 4.10884 102.717 5.3028C102.679 21.3973 102.692 37.4919 102.692 53.5924C102.692 54.1416 102.692 54.6909 102.692 55.3834C113.453 55.3834 124.102 55.3834 134.882 55.3834C134.882 60.1114 134.882 64.6903 134.882 69.3885C118.412 69.3885 101.923 69.3885 85.2524 69.3885Z" fill="#D22222"/>
<path d="M17.4833 69.4273C11.6368 69.4273 5.86529 69.4273 0 69.4273C0 47.5599 0 25.7403 0 3.84912C5.83403 3.84912 11.6055 3.84912 17.4833 3.84912C17.4833 25.7224 17.4833 47.536 17.4833 69.4273Z" fill="#D22222"/>
<path d="M244.504 8.24117C244.761 7.2263 245.005 6.25919 245.255 5.29806C245.743 3.39966 245.743 3.39966 248 3.57279C248 6.10398 248 8.65308 248 11.3275C247.643 11.3574 247.243 11.3872 246.662 11.429C246.662 9.75152 246.662 8.18147 246.662 6.61141C246.568 6.60544 246.474 6.5935 246.38 6.58753C246.068 7.82328 245.749 9.05903 245.436 10.2948C245.292 10.8679 245.249 11.638 244.354 11.3813C243.948 11.2678 243.523 10.7664 243.385 10.3545C242.954 9.065 242.654 7.7397 242.022 6.47411C242.022 8.06804 242.022 9.656 242.022 11.3275C241.516 11.3275 241.115 11.3275 240.64 11.3275C240.64 8.75457 240.64 6.23532 240.64 3.72203C242.716 3.16087 242.922 3.2743 243.429 5.17269C243.679 6.10995 243.954 7.03527 244.229 7.96655C244.242 8.04416 244.348 8.09789 244.504 8.24117Z" fill="black"/>
<path d="M239.564 3.48535C239.564 3.99875 239.564 4.35097 239.564 4.7808C238.857 4.83452 238.194 4.88825 237.375 4.94795C237.375 7.04932 237.375 9.13874 237.375 11.3356C236.756 11.3655 236.306 11.3894 235.668 11.4192C235.668 9.22232 235.668 7.12692 235.668 4.97183C234.843 4.90616 234.186 4.85243 233.461 4.79274C233.267 4.10621 233.08 3.48535 234.193 3.48535C235.918 3.48535 237.65 3.48535 239.564 3.48535Z" fill="black"/>
</svg>
