<svg width="260" height="260" viewBox="0 0 260 260" fill="none" xmlns="http://www.w3.org/2000/svg">
<path d="M64.9376 135.139C64.9376 138.829 64.9376 142.325 64.9376 145.982C74.4172 145.982 83.8769 145.982 93.4115 145.982C93.4115 149.62 93.4115 153.106 93.4115 156.677C79.3668 156.677 65.3471 156.677 51.2026 156.677C51.1826 156.334 51.1377 155.981 51.1377 155.628C51.1327 138.901 51.1377 122.178 51.1277 105.451C51.1277 104.707 51.1577 104.245 52.2065 104.245C65.6718 104.278 79.1421 104.268 92.6074 104.268C92.8321 104.268 93.0619 104.292 93.3865 104.311C93.3865 107.792 93.3865 111.23 93.3865 114.849C83.9518 114.849 74.4922 114.849 64.9676 114.849C64.9676 118.221 64.9676 121.411 64.9676 124.763C74.4222 124.763 83.8819 124.763 93.4165 124.763C93.4165 128.287 93.4165 131.653 93.4165 135.144C83.9218 135.139 74.4921 135.139 64.9376 135.139Z" fill="#D22222"/>
<path d="M220.518 119.312C216.218 119.312 211.988 119.312 207.857 119.312C207.717 119.141 207.642 119.088 207.627 119.031C206.803 114.873 205.095 113.18 200.73 112.465C198.432 112.088 196.11 112.055 193.902 112.975C192.239 113.671 190.871 114.682 190.636 116.537C190.381 118.516 191.335 120.109 193.128 120.905C195.73 122.064 198.467 122.97 201.184 123.89C205.245 125.263 209.42 126.374 213.401 127.929C217.816 129.655 221.118 132.649 222.092 137.298C223.875 145.819 220.368 152.757 211.213 155.862C206.973 157.302 202.563 157.669 198.098 157.54C195.98 157.478 193.842 157.416 191.76 157.078C182.874 155.637 177.261 149.796 176.367 141.223C176.287 140.46 176.207 139.697 176.112 138.777C176.941 138.777 177.665 138.777 178.384 138.777C181.706 138.777 185.022 138.796 188.343 138.762C189.113 138.753 189.402 138.977 189.517 139.725C190.336 144.98 193.358 147.617 198.922 147.755C200.945 147.808 203.027 147.66 205 147.25C208.047 146.616 209.291 144.747 209.046 141.843C208.926 140.379 208.152 139.273 206.803 138.729C204.895 137.961 202.908 137.375 200.935 136.76C196.944 135.52 192.918 134.39 188.958 133.064C185.671 131.967 182.809 130.155 180.572 127.561C174.903 120.986 176.611 110.891 184.213 105.918C188.089 103.381 192.474 102.327 197.079 102.07C202.643 101.76 208.042 102.418 212.877 105.331C218.001 108.417 220.284 113.042 220.573 118.688C220.573 118.902 220.533 119.117 220.518 119.312Z" fill="#D22222"/>
<path d="M158.461 156.696C153.761 156.696 149.231 156.696 144.546 156.696C144.546 156.167 144.546 155.699 144.546 155.232C144.546 142.267 144.546 129.302 144.546 116.337C144.546 114.902 144.546 114.897 143.043 114.897C138.762 114.897 134.477 114.897 130.197 114.897C129.737 114.897 129.278 114.897 128.728 114.897C128.728 111.335 128.728 107.863 128.728 104.33C143.872 104.33 158.975 104.33 174.169 104.33C174.169 107.801 174.169 111.239 174.169 114.868C168.969 114.868 163.76 114.868 158.461 114.868C158.461 128.892 158.461 142.73 158.461 156.696Z" fill="#D22222"/>
<path d="M99.095 156.672C99.095 139.23 99.095 121.854 99.095 104.33C99.4995 104.306 99.9041 104.268 100.309 104.268C104.129 104.263 107.95 104.302 111.766 104.24C112.81 104.221 113.045 104.53 113.045 105.484C113.015 118.34 113.025 131.195 113.025 144.055C113.025 144.494 113.025 144.933 113.025 145.486C121.62 145.486 130.126 145.486 138.737 145.486C138.737 149.262 138.737 152.92 138.737 156.672C125.581 156.672 112.41 156.672 99.095 156.672Z" fill="#D22222"/>
<path d="M44.9647 156.703C40.2948 156.703 35.6849 156.703 31 156.703C31 139.237 31 121.808 31 104.323C35.6599 104.323 40.2699 104.323 44.9647 104.323C44.9647 121.794 44.9647 139.218 44.9647 156.703Z" fill="#D22222"/>
<path d="M226.297 107.831C226.502 107.02 226.697 106.248 226.896 105.48C227.286 103.964 227.286 103.964 229.089 104.102C229.089 106.124 229.089 108.16 229.089 110.296C228.804 110.32 228.485 110.344 228.02 110.377C228.02 109.037 228.02 107.783 228.02 106.529C227.945 106.524 227.87 106.515 227.795 106.51C227.546 107.497 227.291 108.484 227.041 109.471C226.926 109.929 226.891 110.544 226.177 110.339C225.853 110.248 225.513 109.848 225.403 109.519C225.058 108.489 224.819 107.43 224.314 106.419C224.314 107.693 224.314 108.961 224.314 110.296C223.91 110.296 223.59 110.296 223.21 110.296C223.21 108.241 223.21 106.229 223.21 104.221C224.869 103.773 225.033 103.864 225.438 105.38C225.638 106.129 225.858 106.868 226.077 107.611C226.087 107.673 226.172 107.716 226.297 107.831Z" fill="black"/>
<path d="M222.351 104.032C222.351 104.442 222.351 104.724 222.351 105.067C221.786 105.11 221.257 105.153 220.603 105.2C220.603 106.879 220.603 108.548 220.603 110.303C220.108 110.326 219.749 110.346 219.239 110.369C219.239 108.615 219.239 106.941 219.239 105.22C218.58 105.167 218.055 105.124 217.476 105.076C217.321 104.528 217.171 104.032 218.06 104.032C219.439 104.032 220.822 104.032 222.351 104.032Z" fill="black"/>
</svg>
