<svg width="76" height="20" viewBox="0 0 76 20" fill="none" xmlns="http://www.w3.org/2000/svg">
<path d="M12.9498 11.9268C12.9498 13.2553 12.9498 14.5134 12.9498 15.8298C16.5671 15.8298 20.1767 15.8298 23.8149 15.8298C23.8149 17.1394 23.8149 18.394 23.8149 19.6796C18.4557 19.6796 13.1061 19.6796 7.70876 19.6796C7.70114 19.556 7.68399 19.429 7.68399 19.302C7.68208 13.281 7.68399 7.26181 7.68018 1.24088C7.68018 0.973126 7.69161 0.806641 8.09183 0.806641C13.23 0.818655 18.37 0.815222 23.5081 0.815222C23.5939 0.815222 23.6815 0.823804 23.8054 0.830669C23.8054 2.0836 23.8054 3.32109 23.8054 4.62379C20.2053 4.62379 16.5956 4.62379 12.9612 4.62379C12.9612 5.83725 12.9612 6.98548 12.9612 8.19207C16.569 8.19207 20.1786 8.19207 23.8168 8.19207C23.8168 9.46045 23.8168 10.6722 23.8168 11.9286C20.1939 11.9268 16.5956 11.9268 12.9498 11.9268Z" fill="#D22222"/>
<path d="M72.3168 6.23145C70.6759 6.23145 69.0616 6.23145 67.4855 6.23145C67.4322 6.16966 67.4036 6.15078 67.3979 6.13018C67.0834 4.63353 66.4316 4.02423 64.7659 3.76677C63.8892 3.63118 63.003 3.61917 62.1606 3.95042C61.526 4.20101 61.0038 4.56487 60.9142 5.23253C60.817 5.94482 61.181 6.51808 61.8652 6.80471C62.8582 7.22178 63.9026 7.54788 64.9393 7.87914C66.4888 8.37344 68.0821 8.77335 69.601 9.33288C71.2858 9.9542 72.5455 11.0321 72.9171 12.7055C73.5975 15.7726 72.2596 18.2699 68.7662 19.3872C67.1482 19.9056 65.4653 20.0377 63.7615 19.9914C62.9535 19.9691 62.1378 19.9468 61.343 19.8249C57.9526 19.3066 55.8104 17.204 55.4693 14.1181C55.4388 13.8434 55.4083 13.5688 55.3721 13.2376C55.6884 13.2376 55.9648 13.2376 56.2392 13.2376C57.5066 13.2376 58.7721 13.2444 60.0394 13.2324C60.3329 13.229 60.4435 13.3097 60.4873 13.5791C60.7999 15.4705 61.9529 16.4197 64.076 16.4694C64.8479 16.4883 65.6426 16.4351 66.3954 16.2875C67.5579 16.0592 68.0325 15.3864 67.9391 14.3412C67.8934 13.8143 67.598 13.4161 67.0834 13.2204C66.3554 12.9441 65.5968 12.733 64.844 12.5116C63.3213 12.0653 61.7852 11.6585 60.2739 11.1814C59.0198 10.7866 57.9278 10.1344 57.074 9.20072C54.9109 6.83388 55.5627 3.20038 58.4633 1.41023C59.9423 0.497136 61.6156 0.117824 63.3727 0.0251415C65.4958 -0.0864209 67.556 0.150435 69.4009 1.19912C71.3563 2.3096 72.2272 3.97445 72.3378 6.0066C72.3378 6.08384 72.3225 6.16108 72.3168 6.23145Z" fill="#D22222"/>
<path d="M48.6369 19.6868C46.8435 19.6868 45.1149 19.6868 43.3273 19.6868C43.3273 19.4963 43.3273 19.3281 43.3273 19.1599C43.3273 14.4931 43.3273 9.82639 43.3273 5.15965C43.3273 4.64303 43.3273 4.64131 42.7536 4.64131C41.1203 4.64131 39.4851 4.64131 37.8518 4.64131C37.6765 4.64131 37.5011 4.64131 37.2915 4.64131C37.2915 3.3592 37.2915 2.1097 37.2915 0.837891C43.07 0.837891 48.8332 0.837891 54.6307 0.837891C54.6307 2.08739 54.6307 3.32487 54.6307 4.63101C52.6468 4.63101 50.659 4.63101 48.6369 4.63101C48.6369 9.67878 48.6369 14.6596 48.6369 19.6868Z" fill="#D22222"/>
<path d="M25.9839 19.6799C25.9839 13.4015 25.9839 7.14711 25.9839 0.839547C26.1383 0.830965 26.2926 0.817234 26.447 0.817234C27.905 0.815518 29.3629 0.829249 30.819 0.806936C31.2173 0.800071 31.3069 0.911633 31.3069 1.2549C31.2954 5.88217 31.2992 10.5094 31.2992 15.1384C31.2992 15.2963 31.2992 15.4542 31.2992 15.6533C34.5792 15.6533 37.8248 15.6533 41.1105 15.6533C41.1105 17.0127 41.1105 18.3291 41.1105 19.6799C36.0905 19.6799 31.0648 19.6799 25.9839 19.6799Z" fill="#D22222"/>
<path d="M5.3287 19.69C3.54675 19.69 1.78767 19.69 0 19.69C0 13.403 0 7.12977 0 0.835938C1.77814 0.835938 3.53722 0.835938 5.3287 0.835938C5.3287 7.12462 5.3287 13.3961 5.3287 19.69Z" fill="#D22222"/>
<path d="M74.522 2.10096C74.6002 1.80918 74.6745 1.53114 74.7507 1.25481C74.8994 0.709008 74.8994 0.709007 75.5874 0.758781C75.5874 1.48651 75.5874 2.21939 75.5874 2.98831C75.4788 2.9969 75.3568 3.00548 75.1796 3.01749C75.1796 2.5352 75.1796 2.0838 75.1796 1.6324C75.151 1.63068 75.1224 1.62725 75.0938 1.62554C74.9985 1.98082 74.9013 2.3361 74.806 2.69139C74.7622 2.85616 74.7488 3.07756 74.4763 3.00376C74.3524 2.97115 74.2228 2.82698 74.1809 2.70855C74.0494 2.33782 73.9579 1.95679 73.7654 1.59293C73.7654 2.05119 73.7654 2.50774 73.7654 2.98831C73.6111 2.98831 73.4891 2.98831 73.3442 2.98831C73.3442 2.24857 73.3442 1.52427 73.3442 0.80169C73.977 0.640354 74.0399 0.672964 74.1942 1.21876C74.2705 1.48823 74.3543 1.75426 74.4382 2.02201C74.442 2.04432 74.4744 2.05977 74.522 2.10096Z" fill="black"/>
<path d="M73.0163 0.732422C73.0163 0.880028 73.0163 0.981292 73.0163 1.10487C72.8009 1.12032 72.5989 1.13576 72.3493 1.15293C72.3493 1.75708 72.3493 2.3578 72.3493 2.98942C72.1606 2.998 72.0234 3.00486 71.829 3.01344C71.829 2.38183 71.829 1.77939 71.829 1.15979C71.5774 1.14091 71.3773 1.12546 71.1562 1.1083C71.0971 0.910922 71.04 0.732422 71.3792 0.732422C71.9052 0.732422 72.4331 0.732422 73.0163 0.732422Z" fill="black"/>
</svg>
