<svg width="63" height="63" viewBox="0 0 63 63" fill="none" xmlns="http://www.w3.org/2000/svg">
<rect width="62.6441" height="62.6441" rx="11" fill="#F4F4F4"/>
<path d="M18.4736 34.4895V30.8965C18.4736 30.8965 18.3956 29.8028 19.49 30.0376C20.5844 30.2724 24.805 31.0142 24.805 31.0142C24.805 31.0142 30.9795 27.9681 37.1931 31.0533L42.4691 30.0766C42.4691 30.0766 43.4464 29.7248 43.5245 30.9745C43.6025 32.2242 43.5245 34.4895 43.5245 34.4895C43.5245 34.4895 44.9311 34.5285 44.961 35.6022C44.9901 36.676 45 39.1172 45 39.1172C45 39.1172 44.9219 40.2598 43.7395 40.308L43.5145 40.347L43.5635 44.057C43.5635 44.057 43.6416 44.6085 42.9161 44.7553C42.1906 44.9014 31.1946 46.9472 31.1946 46.9472L19.49 44.8578C19.49 44.8578 18.5004 44.7897 18.4729 44.0961C18.4446 43.4031 18.4729 40.3662 18.4729 40.3662C18.4729 40.3662 17.028 40.4052 17.0088 38.9796C16.9889 37.554 17.0088 35.7384 17.0088 35.7384C17.0088 35.7384 16.9889 34.7227 18.1813 34.4497L18.4736 34.4895ZM19.9293 35.9541H18.4637V38.7953H19.9293V35.9541ZM43.5827 35.9541H42.1171V38.7953H43.5827V35.9541V35.9541ZM27.7262 31.5894L30.9994 32.2341L34.1449 31.5894H27.7262ZM21.3849 35.5434C21.3849 35.5434 21.5219 38.0626 21.3849 39.1654C21.2479 40.269 19.9293 40.3287 19.9293 40.3287V43.4521L30.2173 45.3557V33.5809L19.9293 31.5894V34.4015C21.2096 34.5285 21.3849 35.5434 21.3849 35.5434ZM42.1171 34.4015V31.5894L31.829 33.5809V45.3557L42.1171 43.4521V40.3287C42.1171 40.3287 40.7985 40.269 40.6615 39.1654C40.5245 38.0618 40.6615 35.5434 40.6615 35.5434C40.6615 35.5434 40.8375 34.5285 42.1171 34.4015Z" fill="#DF252A"/>
<path d="M38.3627 23.329C38.3627 27.3771 35.0796 30.658 31.0288 30.658C26.978 30.658 23.6948 27.3771 23.6948 23.329C23.6948 19.281 26.978 16 31.0288 16C35.0796 16 38.3627 19.281 38.3627 23.329ZM31.0288 17.4516C27.7808 17.4516 25.1474 20.0832 25.1474 23.329C25.1474 26.5748 27.7808 29.2065 31.0288 29.2065C34.2767 29.2065 36.9102 26.5748 36.9102 23.329C36.9102 20.0832 34.2767 17.4516 31.0288 17.4516Z" fill="#DF252A"/>
</svg>
