<svg width="328" height="328" viewBox="0 0 328 328" fill="none" xmlns="http://www.w3.org/2000/svg">
<path opacity="0.1" fill-rule="evenodd" clip-rule="evenodd" d="M205 -1.79217e-06C227.644 -2.78195e-06 246 18.3563 246 41C246 63.6437 227.644 82 205 82C182.356 82 164 63.6437 164 41C164 18.3563 182.356 -8.0238e-07 205 -1.79217e-06ZM205 164C227.644 164 246 145.644 246 123L246 164L205 164ZM287 123C287 100.356 268.644 82 246 82L246 123C246 100.356 227.644 82 205 82C182.356 82 164 100.356 164 123C164 145.644 182.356 164 205 164L164 164L164 246L164 280C164 306.51 185.49 328 212 328L246 328L246 294C246 267.49 224.51 246 198 246L246 246L246 198C246 224.51 267.49 246 294 246L328 246L328 212C328 185.49 306.51 164 280 164L246 164C268.644 164 287 145.644 287 123ZM287 82C309.644 82 328 63.6437 328 41C328 18.3563 309.644 -6.36629e-06 287 -5.3765e-06C264.356 -4.38671e-06 246 18.3563 246 41C246 63.6437 264.356 82 287 82ZM287 82L287 123L287 164C309.644 164 328 145.644 328 123C328 100.356 309.644 82 287 82ZM328 287C328 264.356 309.644 246 287 246C264.356 246 246 264.356 246 287C246 309.644 264.356 328 287 328C309.644 328 328 309.644 328 287ZM205 103.391C215.829 103.391 224.608 112.17 224.608 123C224.608 133.829 215.829 142.608 205 142.608C194.17 142.608 185.391 133.829 185.391 123C185.391 112.17 194.17 103.391 205 103.391Z" fill="#727271"/>
<path opacity="0.1" fill-rule="evenodd" clip-rule="evenodd" d="M164 130C164 103.49 142.51 82 116 82L164 82L164 24C164 10.7452 153.255 7.15971e-06 140 6.58032e-06L82 4.04506e-06L82 41C82 18.3563 63.6437 3.24268e-06 41 2.25289e-06C18.3563 1.26311e-06 -8.02381e-07 18.3563 -1.79217e-06 41L82 41L82 58C82 71.2548 92.7452 82 106 82L82 82L82 82.25C82 59.6063 63.6437 41.25 41 41.25C18.3563 41.25 -2.60548e-06 59.6063 -3.59526e-06 82.25L36.4465 82.25C15.9458 84.5152 -4.45399e-06 101.895 -5.3765e-06 123C-6.36629e-06 145.644 18.3563 164 41 164C63.6437 164 82 145.644 82 123C82 101.895 66.0542 84.5152 45.5535 82.25L82 82.25L82 116C82 142.51 103.49 164 130 164L82 164L82 212C82 185.49 60.5097 164 34 164L-7.16867e-06 164L-8.65485e-06 198C-9.81363e-06 224.51 21.4903 246 48 246L82 246C59.3563 246 41 264.356 41 287L41 246C18.3563 246 -1.15554e-05 264.356 -1.25452e-05 287C-1.3535e-05 309.644 18.3563 328 41 328L41 287C41 309.644 59.3563 328 82 328L82 287C82 309.644 100.356 328 123 328C145.644 328 164 309.644 164 287C164 264.356 145.644 246 123 246L164 246L164 164L164 130ZM123 246L82 246L82 287C82 264.356 100.356 246 123 246ZM123 306.609C112.171 306.609 103.392 297.83 103.392 287C103.392 276.171 112.171 267.392 123 267.392C133.83 267.392 142.609 276.171 142.609 287C142.609 297.83 133.83 306.609 123 306.609Z" fill="#727271"/>
</svg>