<svg width="335" height="53" viewBox="0 0 335 53" fill="none" xmlns="http://www.w3.org/2000/svg">
<path d="M0 5C0 2.23858 2.23858 0 5 0H195.417V51.1805H5C2.23858 51.1805 0 48.942 0 46.1805V5Z" fill="white"/>
<path d="M192.764 1H330.402C331.276 1 331.73 2.04231 331.134 2.68173L311.693 23.5451C310.62 24.6972 310.62 26.4833 311.693 27.6355L331.134 48.4988C331.73 49.1382 331.276 50.1805 330.402 50.1805H192.764C192.211 50.1805 191.764 49.7328 191.764 49.1805V2C191.764 1.44772 192.211 1 192.764 1Z" stroke="white" stroke-width="2"/>
<path d="M31.1647 9.86641V14.2964C31.1647 14.8231 31.3013 15.2197 31.5747 15.4864C31.8547 15.7531 32.2413 15.8864 32.7347 15.8864C33.2347 15.8864 33.6213 15.7531 33.8947 15.4864C34.1747 15.2197 34.3147 14.8231 34.3147 14.2964V9.86641H35.4547V14.2764C35.4547 14.8431 35.3313 15.3231 35.0847 15.7164C34.838 16.1097 34.508 16.4031 34.0947 16.5964C33.6813 16.7897 33.2247 16.8864 32.7247 16.8864C32.2247 16.8864 31.768 16.7897 31.3547 16.5964C30.948 16.4031 30.6247 16.1097 30.3847 15.7164C30.1447 15.3231 30.0247 14.8431 30.0247 14.2764V9.86641H31.1647ZM38.939 16.9064C38.5056 16.9064 38.1156 16.8297 37.769 16.6764C37.429 16.5164 37.159 16.3031 36.959 16.0364C36.759 15.7631 36.6523 15.4597 36.639 15.1264H37.819C37.839 15.3597 37.949 15.5564 38.149 15.7164C38.3556 15.8697 38.6123 15.9464 38.919 15.9464C39.239 15.9464 39.4856 15.8864 39.659 15.7664C39.839 15.6397 39.929 15.4797 39.929 15.2864C39.929 15.0797 39.829 14.9264 39.629 14.8264C39.4356 14.7264 39.1256 14.6164 38.699 14.4964C38.2856 14.3831 37.949 14.2731 37.689 14.1664C37.429 14.0597 37.2023 13.8964 37.009 13.6764C36.8223 13.4564 36.729 13.1664 36.729 12.8064C36.729 12.5131 36.8156 12.2464 36.989 12.0064C37.1623 11.7597 37.409 11.5664 37.729 11.4264C38.0556 11.2864 38.429 11.2164 38.849 11.2164C39.4756 11.2164 39.979 11.3764 40.359 11.6964C40.7456 12.0097 40.9523 12.4397 40.979 12.9864H39.839C39.819 12.7397 39.719 12.5431 39.539 12.3964C39.359 12.2497 39.1156 12.1764 38.809 12.1764C38.509 12.1764 38.279 12.2331 38.119 12.3464C37.959 12.4597 37.879 12.6097 37.879 12.7964C37.879 12.9431 37.9323 13.0664 38.039 13.1664C38.1456 13.2664 38.2756 13.3464 38.429 13.4064C38.5823 13.4597 38.809 13.5297 39.109 13.6164C39.509 13.7231 39.8356 13.8331 40.089 13.9464C40.349 14.0531 40.5723 14.2131 40.759 14.4264C40.9456 14.6397 41.0423 14.9231 41.049 15.2764C41.049 15.5897 40.9623 15.8697 40.789 16.1164C40.6156 16.3631 40.369 16.5564 40.049 16.6964C39.7356 16.8364 39.3656 16.9064 38.939 16.9064ZM47.3308 13.9264C47.3308 14.1331 47.3174 14.3197 47.2908 14.4864H43.0808C43.1141 14.9264 43.2774 15.2797 43.5708 15.5464C43.8641 15.8131 44.2241 15.9464 44.6508 15.9464C45.2641 15.9464 45.6974 15.6897 45.9508 15.1764H47.1808C47.0141 15.6831 46.7108 16.0997 46.2708 16.4264C45.8374 16.7464 45.2974 16.9064 44.6508 16.9064C44.1241 16.9064 43.6508 16.7897 43.2308 16.5564C42.8174 16.3164 42.4908 15.9831 42.2508 15.5564C42.0174 15.1231 41.9008 14.6231 41.9008 14.0564C41.9008 13.4897 42.0141 12.9931 42.2408 12.5664C42.4741 12.1331 42.7974 11.7997 43.2108 11.5664C43.6308 11.3331 44.1108 11.2164 44.6508 11.2164C45.1708 11.2164 45.6341 11.3297 46.0408 11.5564C46.4474 11.7831 46.7641 12.1031 46.9908 12.5164C47.2174 12.9231 47.3308 13.3931 47.3308 13.9264ZM46.1408 13.5664C46.1341 13.1464 45.9841 12.8097 45.6908 12.5564C45.3974 12.3031 45.0341 12.1764 44.6008 12.1764C44.2074 12.1764 43.8708 12.3031 43.5908 12.5564C43.3108 12.8031 43.1441 13.1397 43.0908 13.5664H46.1408ZM50.6703 13.3264C50.6703 12.6464 50.827 12.0364 51.1403 11.4964C51.4603 10.9564 51.8903 10.5364 52.4303 10.2364C52.977 9.92974 53.5736 9.77641 54.2203 9.77641C54.9603 9.77641 55.617 9.95974 56.1903 10.3264C56.7703 10.6864 57.1903 11.1997 57.4503 11.8664H56.0803C55.9003 11.4997 55.6503 11.2264 55.3303 11.0464C55.0103 10.8664 54.6403 10.7764 54.2203 10.7764C53.7603 10.7764 53.3503 10.8797 52.9903 11.0864C52.6303 11.2931 52.347 11.5897 52.1403 11.9764C51.9403 12.3631 51.8403 12.8131 51.8403 13.3264C51.8403 13.8397 51.9403 14.2897 52.1403 14.6764C52.347 15.0631 52.6303 15.3631 52.9903 15.5764C53.3503 15.7831 53.7603 15.8864 54.2203 15.8864C54.6403 15.8864 55.0103 15.7964 55.3303 15.6164C55.6503 15.4364 55.9003 15.1631 56.0803 14.7964H57.4503C57.1903 15.4631 56.7703 15.9764 56.1903 16.3364C55.617 16.6964 54.9603 16.8764 54.2203 16.8764C53.567 16.8764 52.9703 16.7264 52.4303 16.4264C51.8903 16.1197 51.4603 15.6964 51.1403 15.1564C50.827 14.6164 50.6703 14.0064 50.6703 13.3264ZM61.1747 16.9064C60.6547 16.9064 60.1847 16.7897 59.7647 16.5564C59.3447 16.3164 59.0147 15.9831 58.7747 15.5564C58.5347 15.1231 58.4147 14.6231 58.4147 14.0564C58.4147 13.4964 58.538 12.9997 58.7847 12.5664C59.0313 12.1331 59.368 11.7997 59.7947 11.5664C60.2213 11.3331 60.698 11.2164 61.2247 11.2164C61.7513 11.2164 62.228 11.3331 62.6547 11.5664C63.0813 11.7997 63.418 12.1331 63.6647 12.5664C63.9113 12.9997 64.0347 13.4964 64.0347 14.0564C64.0347 14.6164 63.908 15.1131 63.6547 15.5464C63.4013 15.9797 63.0547 16.3164 62.6147 16.5564C62.1813 16.7897 61.7013 16.9064 61.1747 16.9064ZM61.1747 15.9164C61.468 15.9164 61.7413 15.8464 61.9947 15.7064C62.2547 15.5664 62.4647 15.3564 62.6247 15.0764C62.7847 14.7964 62.8647 14.4564 62.8647 14.0564C62.8647 13.6564 62.788 13.3197 62.6347 13.0464C62.4813 12.7664 62.278 12.5564 62.0247 12.4164C61.7713 12.2764 61.498 12.2064 61.2047 12.2064C60.9113 12.2064 60.638 12.2764 60.3847 12.4164C60.138 12.5564 59.9413 12.7664 59.7947 13.0464C59.648 13.3197 59.5747 13.6564 59.5747 14.0564C59.5747 14.6497 59.7247 15.1097 60.0247 15.4364C60.3313 15.7564 60.7147 15.9164 61.1747 15.9164ZM64.7816 14.0364C64.7816 13.4831 64.895 12.9931 65.1216 12.5664C65.355 12.1397 65.6683 11.8097 66.0616 11.5764C66.4616 11.3364 66.905 11.2164 67.3916 11.2164C67.7516 11.2164 68.105 11.2964 68.4516 11.4564C68.805 11.6097 69.085 11.8164 69.2916 12.0764V9.41641H70.4416V16.8164H69.2916V15.9864C69.105 16.2531 68.845 16.4731 68.5116 16.6464C68.185 16.8197 67.8083 16.9064 67.3816 16.9064C66.9016 16.9064 66.4616 16.7864 66.0616 16.5464C65.6683 16.2997 65.355 15.9597 65.1216 15.5264C64.895 15.0864 64.7816 14.5897 64.7816 14.0364ZM69.2916 14.0564C69.2916 13.6764 69.2116 13.3464 69.0516 13.0664C68.8983 12.7864 68.695 12.5731 68.4416 12.4264C68.1883 12.2797 67.915 12.2064 67.6216 12.2064C67.3283 12.2064 67.055 12.2797 66.8016 12.4264C66.5483 12.5664 66.3416 12.7764 66.1816 13.0564C66.0283 13.3297 65.9516 13.6564 65.9516 14.0364C65.9516 14.4164 66.0283 14.7497 66.1816 15.0364C66.3416 15.3231 66.5483 15.5431 66.8016 15.6964C67.0616 15.8431 67.335 15.9164 67.6216 15.9164C67.915 15.9164 68.1883 15.8431 68.4416 15.6964C68.695 15.5497 68.8983 15.3364 69.0516 15.0564C69.2116 14.7697 69.2916 14.4364 69.2916 14.0564ZM76.989 13.9264C76.989 14.1331 76.9756 14.3197 76.949 14.4864H72.739C72.7723 14.9264 72.9356 15.2797 73.229 15.5464C73.5223 15.8131 73.8823 15.9464 74.309 15.9464C74.9223 15.9464 75.3556 15.6897 75.609 15.1764H76.839C76.6723 15.6831 76.369 16.0997 75.929 16.4264C75.4956 16.7464 74.9556 16.9064 74.309 16.9064C73.7823 16.9064 73.309 16.7897 72.889 16.5564C72.4756 16.3164 72.149 15.9831 71.909 15.5564C71.6756 15.1231 71.559 14.6231 71.559 14.0564C71.559 13.4897 71.6723 12.9931 71.899 12.5664C72.1323 12.1331 72.4556 11.7997 72.869 11.5664C73.289 11.3331 73.769 11.2164 74.309 11.2164C74.829 11.2164 75.2923 11.3297 75.699 11.5564C76.1056 11.7831 76.4223 12.1031 76.649 12.5164C76.8756 12.9231 76.989 13.3931 76.989 13.9264ZM75.799 13.5664C75.7923 13.1464 75.6423 12.8097 75.349 12.5564C75.0556 12.3031 74.6923 12.1764 74.259 12.1764C73.8656 12.1764 73.529 12.3031 73.249 12.5564C72.969 12.8031 72.8023 13.1397 72.749 13.5664H75.799Z" fill="#4D4D4D"/>
<path d="M213.168 16.8164L212.308 15.9564C211.975 16.2897 211.612 16.5397 211.218 16.7064C210.825 16.8664 210.385 16.9464 209.898 16.9464C209.405 16.9464 208.968 16.8597 208.588 16.6864C208.208 16.5131 207.915 16.2664 207.708 15.9464C207.502 15.6197 207.398 15.2431 207.398 14.8164C207.398 14.3364 207.535 13.9097 207.808 13.5364C208.082 13.1564 208.488 12.8564 209.028 12.6364C208.835 12.4031 208.698 12.1864 208.618 11.9864C208.538 11.7797 208.498 11.5531 208.498 11.3064C208.498 10.9997 208.575 10.7264 208.728 10.4864C208.888 10.2464 209.115 10.0564 209.408 9.91641C209.702 9.77641 210.042 9.70641 210.428 9.70641C210.822 9.70641 211.155 9.78307 211.428 9.93641C211.708 10.0831 211.915 10.2864 212.048 10.5464C212.188 10.8064 212.245 11.0964 212.218 11.4164H211.078C211.085 11.1697 211.025 10.9797 210.898 10.8464C210.772 10.7064 210.598 10.6364 210.378 10.6364C210.158 10.6364 209.978 10.7031 209.838 10.8364C209.705 10.9631 209.638 11.1197 209.638 11.3064C209.638 11.4864 209.688 11.6664 209.788 11.8464C209.895 12.0197 210.078 12.2464 210.338 12.5264L212.178 14.3564L212.888 13.1864H214.118L213.218 14.7264L212.968 15.1364L214.658 16.8164H213.168ZM209.898 15.9764C210.525 15.9764 211.078 15.7197 211.558 15.2064L209.718 13.3564C208.932 13.6697 208.538 14.1431 208.538 14.7764C208.538 15.1164 208.665 15.4031 208.918 15.6364C209.172 15.8631 209.498 15.9764 209.898 15.9764ZM223.033 11.8664C222.853 11.5197 222.603 11.2597 222.283 11.0864C221.963 10.9064 221.593 10.8164 221.173 10.8164C220.713 10.8164 220.303 10.9197 219.943 11.1264C219.583 11.3331 219.3 11.6264 219.093 12.0064C218.893 12.3864 218.793 12.8264 218.793 13.3264C218.793 13.8264 218.893 14.2697 219.093 14.6564C219.3 15.0364 219.583 15.3297 219.943 15.5364C220.303 15.7431 220.713 15.8464 221.173 15.8464C221.793 15.8464 222.297 15.6731 222.683 15.3264C223.07 14.9797 223.307 14.5097 223.393 13.9164H220.783V13.0064H224.613V13.8964C224.54 14.4364 224.347 14.9331 224.033 15.3864C223.727 15.8397 223.323 16.2031 222.823 16.4764C222.33 16.7431 221.78 16.8764 221.173 16.8764C220.52 16.8764 219.923 16.7264 219.383 16.4264C218.843 16.1197 218.413 15.6964 218.093 15.1564C217.78 14.6164 217.623 14.0064 217.623 13.3264C217.623 12.6464 217.78 12.0364 218.093 11.4964C218.413 10.9564 218.843 10.5364 219.383 10.2364C219.93 9.92974 220.527 9.77641 221.173 9.77641C221.913 9.77641 222.57 9.95974 223.143 10.3264C223.723 10.6864 224.143 11.1997 224.403 11.8664H223.033ZM230.788 13.9264C230.788 14.1331 230.774 14.3197 230.748 14.4864H226.538C226.571 14.9264 226.734 15.2797 227.028 15.5464C227.321 15.8131 227.681 15.9464 228.108 15.9464C228.721 15.9464 229.154 15.6897 229.408 15.1764H230.638C230.471 15.6831 230.168 16.0997 229.728 16.4264C229.294 16.7464 228.754 16.9064 228.108 16.9064C227.581 16.9064 227.108 16.7897 226.688 16.5564C226.274 16.3164 225.948 15.9831 225.708 15.5564C225.474 15.1231 225.358 14.6231 225.358 14.0564C225.358 13.4897 225.471 12.9931 225.698 12.5664C225.931 12.1331 226.254 11.7997 226.668 11.5664C227.088 11.3331 227.568 11.2164 228.108 11.2164C228.628 11.2164 229.091 11.3297 229.498 11.5564C229.904 11.7831 230.221 12.1031 230.448 12.5164C230.674 12.9231 230.788 13.3931 230.788 13.9264ZM229.598 13.5664C229.591 13.1464 229.441 12.8097 229.148 12.5564C228.854 12.3031 228.491 12.1764 228.058 12.1764C227.664 12.1764 227.328 12.3031 227.048 12.5564C226.768 12.8031 226.601 13.1397 226.548 13.5664H229.598ZM233.24 12.2364V15.2864C233.24 15.4931 233.286 15.6431 233.38 15.7364C233.48 15.8231 233.646 15.8664 233.88 15.8664H234.58V16.8164H233.68C233.166 16.8164 232.773 16.6964 232.5 16.4564C232.226 16.2164 232.09 15.8264 232.09 15.2864V12.2364H231.44V11.3064H232.09V9.93641H233.24V11.3064H234.58V12.2364H233.24ZM239.368 10.7864V12.8264H241.768V13.7564H239.368V15.8864H242.068V16.8164H238.228V9.85641H242.068V10.7864H239.368ZM245.832 14.0264L247.612 16.8164H246.322L245.132 14.9464L244.012 16.8164H242.822L244.602 14.1064L242.822 11.3064H244.112L245.302 13.1764L246.422 11.3064H247.612L245.832 14.0264ZM249.792 12.2364V15.2864C249.792 15.4931 249.839 15.6431 249.932 15.7364C250.032 15.8231 250.199 15.8664 250.432 15.8664H251.132V16.8164H250.232C249.719 16.8164 249.326 16.6964 249.052 16.4564C248.779 16.2164 248.642 15.8264 248.642 15.2864V12.2364H247.992V11.3064H248.642V9.93641H249.792V11.3064H251.132V12.2364H249.792ZM253.323 12.1064C253.49 11.8264 253.71 11.6097 253.983 11.4564C254.263 11.2964 254.593 11.2164 254.973 11.2164V12.3964H254.683C254.236 12.3964 253.896 12.5097 253.663 12.7364C253.436 12.9631 253.323 13.3564 253.323 13.9164V16.8164H252.183V11.3064H253.323V12.1064ZM255.641 14.0364C255.641 13.4831 255.754 12.9931 255.981 12.5664C256.214 12.1397 256.528 11.8097 256.921 11.5764C257.321 11.3364 257.761 11.2164 258.241 11.2164C258.674 11.2164 259.051 11.3031 259.371 11.4764C259.698 11.6431 259.958 11.8531 260.151 12.1064V11.3064H261.301V16.8164H260.151V15.9964C259.958 16.2564 259.694 16.4731 259.361 16.6464C259.028 16.8197 258.648 16.9064 258.221 16.9064C257.748 16.9064 257.314 16.7864 256.921 16.5464C256.528 16.2997 256.214 15.9597 255.981 15.5264C255.754 15.0864 255.641 14.5897 255.641 14.0364ZM260.151 14.0564C260.151 13.6764 260.071 13.3464 259.911 13.0664C259.758 12.7864 259.554 12.5731 259.301 12.4264C259.048 12.2797 258.774 12.2064 258.481 12.2064C258.188 12.2064 257.914 12.2797 257.661 12.4264C257.408 12.5664 257.201 12.7764 257.041 13.0564C256.888 13.3297 256.811 13.6564 256.811 14.0364C256.811 14.4164 256.888 14.7497 257.041 15.0364C257.201 15.3231 257.408 15.5431 257.661 15.6964C257.921 15.8431 258.194 15.9164 258.481 15.9164C258.774 15.9164 259.048 15.8431 259.301 15.6964C259.554 15.5497 259.758 15.3364 259.911 15.0564C260.071 14.7697 260.151 14.4364 260.151 14.0564Z" fill="white"/>
<path d="M29.9847 32.4473C29.9847 31.0739 30.2913 29.8473 30.9047 28.7673C31.5313 27.6739 32.378 26.8273 33.4447 26.2273C34.5247 25.6139 35.7313 25.3073 37.0647 25.3073C38.6247 25.3073 39.9913 25.7073 41.1647 26.5073C42.338 27.3073 43.158 28.4139 43.6247 29.8273H40.4047C40.0847 29.1606 39.6313 28.6606 39.0447 28.3273C38.4713 27.9939 37.8047 27.8273 37.0447 27.8273C36.2313 27.8273 35.5047 28.0206 34.8647 28.4073C34.238 28.7806 33.7447 29.3139 33.3847 30.0073C33.038 30.7006 32.8647 31.5139 32.8647 32.4473C32.8647 33.3673 33.038 34.1806 33.3847 34.8873C33.7447 35.5806 34.238 36.1206 34.8647 36.5073C35.5047 36.8806 36.2313 37.0673 37.0447 37.0673C37.8047 37.0673 38.4713 36.9006 39.0447 36.5673C39.6313 36.2206 40.0847 35.7139 40.4047 35.0473H43.6247C43.158 36.4739 42.338 37.5873 41.1647 38.3873C40.0047 39.1739 38.638 39.5673 37.0647 39.5673C35.7313 39.5673 34.5247 39.2673 33.4447 38.6673C32.378 38.0539 31.5313 37.2073 30.9047 36.1273C30.2913 35.0473 29.9847 33.8206 29.9847 32.4473ZM54.5762 36.7873H49.0162L48.0962 39.4473H45.1562L50.1762 25.4673H53.4362L58.4562 39.4473H55.4962L54.5762 36.7873ZM53.8162 34.5473L51.7962 28.7073L49.7762 34.5473H53.8162ZM72.2726 39.4473H69.4726L63.1326 29.8673V39.4473H60.3326V25.4673H63.1326L69.4726 35.0673V25.4673H72.2726V39.4473ZM83.5997 36.7873H78.0397L77.1197 39.4473H74.1797L79.1997 25.4673H82.4597L87.4797 39.4473H84.5197L83.5997 36.7873ZM82.8397 34.5473L80.8197 28.7073L78.7997 34.5473H82.8397ZM104.576 25.4873V39.4473H101.776V30.3673L98.0361 39.4473H95.9161L92.1561 30.3673V39.4473H89.3561V25.4873H92.5361L96.9761 35.8673L101.416 25.4873H104.576ZM117.524 29.8073C117.524 30.5539 117.344 31.2539 116.984 31.9073C116.638 32.5606 116.084 33.0873 115.324 33.4873C114.578 33.8873 113.631 34.0873 112.484 34.0873H110.144V39.4473H107.344V25.4873H112.484C113.564 25.4873 114.484 25.6739 115.244 26.0473C116.004 26.4206 116.571 26.9339 116.944 27.5873C117.331 28.2406 117.524 28.9806 117.524 29.8073ZM112.364 31.8273C113.138 31.8273 113.711 31.6539 114.084 31.3073C114.458 30.9473 114.644 30.4473 114.644 29.8073C114.644 28.4473 113.884 27.7673 112.364 27.7673H110.144V31.8273H112.364ZM126.712 39.4473L123.632 34.0073H122.312V39.4473H119.512V25.4873H124.752C125.832 25.4873 126.752 25.6806 127.512 26.0673C128.272 26.4406 128.839 26.9539 129.212 27.6073C129.599 28.2473 129.792 28.9673 129.792 29.7673C129.792 30.6873 129.526 31.5206 128.992 32.2673C128.459 33.0006 127.666 33.5073 126.612 33.7873L129.952 39.4473H126.712ZM122.312 31.9073H124.652C125.412 31.9073 125.979 31.7273 126.352 31.3673C126.726 30.9939 126.912 30.4806 126.912 29.8273C126.912 29.1873 126.726 28.6939 126.352 28.3473C125.979 27.9873 125.412 27.8073 124.652 27.8073H122.312V31.9073ZM135.125 27.7473V31.2473H139.825V33.4673H135.125V37.1673H140.425V39.4473H132.325V25.4673H140.425V27.7473H135.125ZM153.149 29.8073C153.149 30.5539 152.969 31.2539 152.609 31.9073C152.263 32.5606 151.709 33.0873 150.949 33.4873C150.203 33.8873 149.256 34.0873 148.109 34.0873H145.769V39.4473H142.969V25.4873H148.109C149.189 25.4873 150.109 25.6739 150.869 26.0473C151.629 26.4206 152.196 26.9339 152.569 27.5873C152.956 28.2406 153.149 28.9806 153.149 29.8073ZM147.989 31.8273C148.763 31.8273 149.336 31.6539 149.709 31.3073C150.083 30.9473 150.269 30.4473 150.269 29.8073C150.269 28.4473 149.509 27.7673 147.989 27.7673H145.769V31.8273H147.989Z" fill="#FF212F"/>
<path d="M208.932 27.4473V24.8673H213.752V39.4473H210.872V27.4473H208.932ZM216.518 31.9673C216.518 29.6606 216.931 27.8539 217.758 26.5473C218.598 25.2406 219.985 24.5873 221.918 24.5873C223.851 24.5873 225.231 25.2406 226.058 26.5473C226.898 27.8539 227.318 29.6606 227.318 31.9673C227.318 34.2873 226.898 36.1073 226.058 37.4273C225.231 38.7473 223.851 39.4073 221.918 39.4073C219.985 39.4073 218.598 38.7473 217.758 37.4273C216.931 36.1073 216.518 34.2873 216.518 31.9673ZM224.558 31.9673C224.558 30.9806 224.491 30.1539 224.358 29.4873C224.238 28.8073 223.985 28.2539 223.598 27.8273C223.225 27.4006 222.665 27.1873 221.918 27.1873C221.171 27.1873 220.605 27.4006 220.218 27.8273C219.845 28.2539 219.591 28.8073 219.458 29.4873C219.338 30.1539 219.278 30.9806 219.278 31.9673C219.278 32.9806 219.338 33.8339 219.458 34.5273C219.578 35.2073 219.831 35.7606 220.218 36.1873C220.605 36.6006 221.171 36.8073 221.918 36.8073C222.665 36.8073 223.231 36.6006 223.618 36.1873C224.005 35.7606 224.258 35.2073 224.378 34.5273C224.498 33.8339 224.558 32.9806 224.558 31.9673ZM229.128 28.4473C229.128 27.4339 229.421 26.6406 230.008 26.0673C230.608 25.4939 231.374 25.2073 232.308 25.2073C233.241 25.2073 234.001 25.4939 234.588 26.0673C235.188 26.6406 235.488 27.4339 235.488 28.4473C235.488 29.4739 235.188 30.2739 234.588 30.8473C234.001 31.4206 233.241 31.7073 232.308 31.7073C231.374 31.7073 230.608 31.4206 230.008 30.8473C229.421 30.2739 229.128 29.4739 229.128 28.4473ZM241.968 25.4473L234.108 39.4473H231.388L239.228 25.4473H241.968ZM232.288 26.8873C231.554 26.8873 231.188 27.4073 231.188 28.4473C231.188 29.5006 231.554 30.0273 232.288 30.0273C232.648 30.0273 232.928 29.9006 233.128 29.6473C233.328 29.3806 233.428 28.9806 233.428 28.4473C233.428 27.4073 233.048 26.8873 232.288 26.8873ZM237.908 36.4273C237.908 35.4006 238.201 34.6073 238.788 34.0473C239.388 33.4739 240.154 33.1873 241.088 33.1873C242.021 33.1873 242.774 33.4739 243.348 34.0473C243.934 34.6073 244.228 35.4006 244.228 36.4273C244.228 37.4539 243.934 38.2539 243.348 38.8273C242.774 39.4006 242.021 39.6873 241.088 39.6873C240.141 39.6873 239.374 39.4006 238.788 38.8273C238.201 38.2539 237.908 37.4539 237.908 36.4273ZM241.068 34.8673C240.308 34.8673 239.928 35.3873 239.928 36.4273C239.928 37.4806 240.308 38.0073 241.068 38.0073C241.814 38.0073 242.188 37.4806 242.188 36.4273C242.188 35.3873 241.814 34.8673 241.068 34.8673ZM257.595 39.5873C256.289 39.5873 255.089 39.2806 253.995 38.6673C252.902 38.0539 252.035 37.2073 251.395 36.1273C250.755 35.0339 250.435 33.8006 250.435 32.4273C250.435 31.0673 250.755 29.8473 251.395 28.7673C252.035 27.6739 252.902 26.8206 253.995 26.2073C255.089 25.5939 256.289 25.2873 257.595 25.2873C258.915 25.2873 260.115 25.5939 261.195 26.2073C262.289 26.8206 263.149 27.6739 263.775 28.7673C264.415 29.8473 264.735 31.0673 264.735 32.4273C264.735 33.8006 264.415 35.0339 263.775 36.1273C263.149 37.2073 262.289 38.0539 261.195 38.6673C260.102 39.2806 258.902 39.5873 257.595 39.5873ZM257.595 37.0873C258.435 37.0873 259.175 36.9006 259.815 36.5273C260.455 36.1406 260.955 35.5939 261.315 34.8873C261.675 34.1806 261.855 33.3606 261.855 32.4273C261.855 31.4939 261.675 30.6806 261.315 29.9873C260.955 29.2806 260.455 28.7406 259.815 28.3673C259.175 27.9939 258.435 27.8073 257.595 27.8073C256.755 27.8073 256.009 27.9939 255.355 28.3673C254.715 28.7406 254.215 29.2806 253.855 29.9873C253.495 30.6806 253.315 31.4939 253.315 32.4273C253.315 33.3606 253.495 34.1806 253.855 34.8873C254.215 35.5939 254.715 36.1406 255.355 36.5273C256.009 36.9006 256.755 37.0873 257.595 37.0873ZM275.438 25.4873V27.7473H269.618V31.3273H274.078V33.5473H269.618V39.4473H266.818V25.4873H275.438ZM286.044 25.4873V27.7473H280.224V31.3273H284.684V33.5473H280.224V39.4473H277.424V25.4873H286.044Z" fill="white"/>
</svg>
