<svg width="41" height="41" viewBox="0 0 41 41" fill="none" xmlns="http://www.w3.org/2000/svg">
<rect width="41" height="41" rx="20.5" fill="#F2F2F2"/>
<g clip-path="url(#clip0_421_682)">
<path d="M20.4995 8C23.9507 8 27.0767 9.39941 29.3384 11.6611C31.6001 13.9229 33 17.0483 33 20.5C33 23.9512 31.6001 27.0767 29.3384 29.3384C27.0767 31.6001 23.9507 33 20.4995 33C17.0483 33 13.9229 31.6001 11.6611 29.3384C9.39941 27.0767 8 23.9512 8 20.5C8 17.0493 9.39941 13.9229 11.6611 11.6611C13.9229 9.39941 17.0483 8 20.4995 8ZM24.2788 21.1743C24.9502 20.7407 24.9478 20.2578 24.2788 19.874L18.8945 16.1255C18.3481 15.7817 17.7769 15.9839 17.792 16.6978L17.8135 24.2402C17.8604 25.0146 18.3027 25.2271 18.9546 24.8687L24.2788 21.1743ZM28.1533 12.8462C26.1953 10.8882 23.4883 9.67627 20.4995 9.67627C17.5107 9.67627 14.8047 10.8882 12.8462 12.8462C10.8882 14.8047 9.67627 17.5112 9.67627 20.5C9.67627 23.4893 10.8882 26.1953 12.8462 28.1533C14.8047 30.1118 17.5107 31.3237 20.4995 31.3237C23.4883 31.3237 26.1953 30.1118 28.1533 28.1533C30.1118 26.1953 31.3237 23.4893 31.3237 20.5C31.3237 17.5107 30.1118 14.8047 28.1533 12.8462Z" fill="#ED1C24"/>
</g>
<defs>
<clipPath id="clip0_421_682">
<rect width="25" height="25" fill="white" transform="translate(8 8)"/>
</clipPath>
</defs>
</svg>
