<svg width="63" height="63" viewBox="0 0 63 63" fill="none" xmlns="http://www.w3.org/2000/svg">
<rect width="62.6441" height="62.6441" rx="11" fill="#F4F4F4"/>
<path d="M39.4874 43.6403C43.5199 43.153 43.6983 39.1243 43.6983 39.1243V22.2629C42.9175 18.6567 39.6657 18.3806 39.6657 18.3806H22.2197C18.708 19.1441 18.317 22.2629 18.317 22.2629V35.737C18.2444 36.8339 18.894 38.198 18.894 38.198C18.894 38.198 20.1384 40.748 23.0641 40.9427C25.9899 41.1374 30.4377 36.9064 30.4377 36.9064L26.5108 33.934L24.8932 39.23C24.8932 39.23 24.7225 39.6117 24.1532 39.4654C23.5838 39.319 23.8118 38.6535 23.8118 38.6535L25.474 32.972C25.6816 32.2047 25.8765 32.1067 25.8765 32.1067L32.4858 24.066C34.3632 22.8482 36.0471 23.7492 36.0471 23.7492L38.2417 25.3334C40.2656 27.1606 38.6888 29.4103 38.6888 29.4103L33.3392 35.835C31.3152 38.198 29.4365 39.4654 29.4365 39.4654C25.6319 42.56 22.8514 42.2432 22.8514 42.2432C17.5362 41.7075 17 36.5667 17 36.5667V22.5072C17.0484 18.0727 22.0082 17 22.0082 17H39.3091C44.8701 17.6502 45 22.3609 45 22.3609V39.2707C44.4141 44.7041 39.5371 44.9993 39.5371 44.9993H25.7262C25.7262 44.9993 25.0409 45.0451 25.0333 44.3873C25.0244 43.7294 25.716 43.7218 25.716 43.7218L39.4874 43.6403ZM27.1336 32.692L28.7551 34.0078L33.4016 28.4649L31.6095 27.1123L27.0967 32.7658M29.8288 34.7636L31.4388 36.0183L36.1579 30.511L34.4384 29.1826L29.8288 34.7636ZM32.4794 26.0638L36.9349 29.4422L37.8621 28.3377C37.8621 28.3377 38.35 27.1034 37.4074 26.3717L35.6191 25.0394C35.6191 25.0394 34.3021 24.3243 33.2615 25.1692L32.4794 26.0638Z" fill="#ED1C24"/>
</svg>
