<svg width="45" height="24" viewBox="0 0 45 24" fill="none" xmlns="http://www.w3.org/2000/svg">
<path fill-rule="evenodd" clip-rule="evenodd" d="M45 22.5012C45 10.068 34.9248 0 22.5012 0C10.0752 0 0 10.068 0 22.5012H9.78135C9.78135 15.4753 15.4753 9.78376 22.5012 9.78376C29.5271 9.78376 35.2186 15.4753 35.2186 22.5012H45Z" fill="#2B2A29"/>
<path fill-rule="evenodd" clip-rule="evenodd" d="M21.3177 22.9909C20.4531 22.7501 19.9545 21.8396 20.1953 20.9725L27.6885 0.595703L23.3434 21.8757C23.0953 22.7428 22.1897 23.239 21.3177 22.9909Z" fill="#3F3E40"/>
<path fill-rule="evenodd" clip-rule="evenodd" d="M9.78135 22.5012C9.78135 15.4753 15.4753 9.78376 22.5012 9.78376C23.1034 9.78376 23.6911 9.81989 24.2715 9.90419L27.6893 0.597335C26.025 0.202323 24.286 0 22.5012 0C10.0752 0 0 10.068 0 22.5012H9.78135Z" fill="#DF252A"/>
</svg>
