<svg width="32" height="15" viewBox="0 0 32 15" fill="none" xmlns="http://www.w3.org/2000/svg">
<path d="M3.1 9.76V15H0.28V0.879999H5.42C7.08667 0.879999 8.34 1.28 9.18 2.08C10.0333 2.88 10.46 3.96667 10.46 5.34C10.46 6.68667 10.02 7.76 9.14 8.56C8.27333 9.36 7.03333 9.76 5.42 9.76H3.1ZM5.12 7.5C6.77333 7.5 7.6 6.78 7.6 5.34C7.6 4.63333 7.40667 4.09333 7.02 3.72C6.63333 3.34667 6 3.16 5.12 3.16H3.1V7.5H5.12ZM21.8917 0.879999V3.12H17.9917V15H15.1717V3.12H11.2917V0.879999H21.8917ZM26.2641 3.12V6.78H31.2641V8.94H26.2641V12.74H31.8641V15H23.4441V0.879999H31.8641V3.12H26.2641Z" fill="#007EA1"/>
</svg>
