<svg width="27" height="26" viewBox="0 0 27 26" fill="none" xmlns="http://www.w3.org/2000/svg">
<path fill-rule="evenodd" clip-rule="evenodd" d="M8.51043 11.6181C8.52075 11.481 8.55352 11.3475 8.60694 11.2249C8.45149 11.0861 8.32313 10.9099 8.23046 10.7083C8.13779 10.5067 8.08293 10.2842 8.06956 10.0557H8.03885C7.97116 10.0565 7.90452 10.0361 7.84583 9.99657C7.74589 9.92581 7.66877 9.81828 7.62649 9.69076C7.52778 9.43378 7.44882 8.72708 7.69887 8.52664L7.655 8.48038V8.40328C7.655 8.26194 7.64403 8.08977 7.63965 7.91245C7.63965 7.25458 7.61991 6.80486 7.16806 6.64553L6.97504 6.57615L7.10226 6.39112C7.43659 5.89613 7.81611 5.44545 8.23406 5.04711C8.61079 4.67033 9.06405 4.41366 9.55011 4.30186C9.77574 4.25916 10.0066 4.2745 10.2267 4.34684C10.4467 4.41917 10.6507 4.54676 10.8245 4.72074C10.9452 4.84703 11.0548 4.98738 11.1513 5.13962C12.1274 5.25013 12.6384 6.12643 12.5924 7.16207C12.5772 7.70189 12.3883 8.21503 12.0638 8.59859C12.121 8.60019 12.1772 8.61688 12.2283 8.64742C12.3074 8.71013 12.3652 8.80339 12.3917 8.91093C12.4181 9.01847 12.4115 9.13347 12.373 9.2359C12.3248 9.41579 12.2612 9.62395 12.2041 9.79869C12.1317 10.0351 12.0287 10.0788 11.8269 10.0557C11.8159 10.6416 11.5856 10.9268 11.2763 11.2712L11.3465 11.5642C11.1513 12.6743 9.07194 12.7977 8.51043 11.6258V11.6181ZM13.3535 23.1052C11.2873 23.1052 12.6472 23.2953 12.928 20.6664C13.3513 16.732 16.5405 16.732 17.0121 20.6664C17.3148 23.1951 18.6111 23.1052 16.5888 23.1052H15.7926C15.7926 23.7502 15.7048 23.6757 16.2729 24.038C16.5646 24.223 17.1064 24.3592 17.5692 24.5725C18.2755 23.8684 19.5279 24.3335 19.6573 23.0307C19.6771 22.8328 19.2801 22.3471 19.1901 21.9873C19.0817 21.7916 19.0199 21.5654 19.011 21.3323C19.0022 21.0992 19.0466 20.8676 19.1397 20.6613C19.1982 20.4785 19.2149 20.2809 19.188 20.0882C19.188 17.9938 22.3201 17.9913 22.3201 20.0882C22.3201 20.3452 22.2697 20.4942 22.3903 20.6998C22.5965 21.0493 22.4912 21.6687 22.3179 21.9847C22.2061 22.3651 21.7849 22.8148 21.82 23.0281C22.1096 24.755 24.0376 22.9561 24.2196 25.5979H2.74396C2.97426 22.5064 5.95072 24.4132 6.16787 22.2546C6.192 22.0104 5.69848 21.3474 5.58442 20.8977C5.34315 20.4454 5.25541 19.7259 5.52081 19.2479C5.6261 19.0577 5.58223 18.8753 5.58223 18.6157C5.58223 16.0125 9.47334 16.0125 9.47334 18.6157C9.47334 18.9447 9.40973 19.0372 9.56107 19.2967C9.8177 19.731 9.6861 20.4968 9.47114 20.8977C9.33296 21.368 8.81312 21.9873 8.8526 22.2546C9.17942 24.1973 11.3597 22.6709 11.9519 24.8244C12.4279 24.48 13.2328 24.3541 13.7373 23.9995C14.2418 23.6448 14.1519 23.6988 14.1475 23.1129L13.3535 23.1052ZM4.98562 15.2184C5.18303 12.2349 5.66119 13.3527 7.83705 11.7595C8.43585 13.584 11.3158 13.7048 11.9475 11.7595C13.8185 13.1651 14.7551 12.1038 14.7441 15.2184H7.77564C7.69229 15.2184 7.60894 15.2184 7.52778 15.2184C7.44663 15.2184 7.36547 15.2184 7.28431 15.2184H4.98562ZM0.642669 16.858H2.19341C2.07531 16.8218 1.97068 16.741 1.89574 16.6281C1.82079 16.5152 1.77971 16.3765 1.77886 16.2335V2.98355C1.78001 2.81314 1.83845 2.65012 1.94151 2.52986C2.04457 2.40959 2.18394 2.34177 2.3294 2.3411H12.7525V3.05294H2.4632V16.2129H5.20715C4.68852 16.768 4.37925 17.5417 4.34734 18.3639H0.642669C0.472401 18.3632 0.309271 18.2836 0.188872 18.1426C0.0684734 18.0015 0.000578166 17.8104 0 17.6109C0.000578166 17.4114 0.0684734 17.2203 0.188872 17.0792C0.309271 16.9382 0.472401 16.8586 0.642669 16.858ZM9.85499 16.2129H24.428V3.05294H23.8117V2.3411H24.4894C24.6347 2.34177 24.7738 2.40968 24.8765 2.53002C24.9792 2.65035 25.0372 2.81337 25.0378 2.98355V16.2309C25.0382 16.3739 24.9978 16.513 24.9231 16.6261C24.8484 16.7392 24.7437 16.8199 24.6254 16.8554H26.3209C26.4912 16.8561 26.6543 16.9356 26.7747 17.0767C26.8951 17.2177 26.963 17.4089 26.9636 17.6083C26.9636 17.8083 26.8959 18.0001 26.7755 18.1417C26.655 18.2833 26.4916 18.3632 26.3209 18.3639H23.0944C22.7647 17.8551 22.3101 17.4767 21.7915 17.2794C21.1164 17.0018 20.3807 17.0018 19.7056 17.2794C19.1866 17.4785 18.7315 17.8576 18.4005 18.3664H17.6745C17.4009 17.7461 16.9989 17.216 16.5054 16.8246C16.0421 16.4608 15.497 16.2667 14.9393 16.2669C14.3815 16.2727 13.8381 16.4751 13.3798 16.8477C12.9027 17.2367 12.5147 17.7574 12.2502 18.3639H10.7148C10.6819 17.542 10.3728 16.7687 9.85499 16.2129ZM15.457 0H21.1006C21.4586 0.00135517 21.8016 0.168571 22.0547 0.465148C22.3079 0.761726 22.4506 1.16358 22.4517 1.583V5.73068C22.4506 6.1501 22.3079 6.55196 22.0547 6.84854C21.8016 7.14511 21.4586 7.31233 21.1006 7.31368H17.7929L15.7421 9.36953C15.72 9.3935 15.6939 9.41186 15.6654 9.42349C15.637 9.43511 15.6068 9.43974 15.5767 9.43709C15.5467 9.43443 15.5174 9.42456 15.4908 9.40807C15.4641 9.39158 15.4407 9.36884 15.4219 9.34126C15.4023 9.3155 15.3874 9.28538 15.3779 9.25271C15.3685 9.22004 15.3648 9.18549 15.367 9.1511L15.4767 7.3034H15.457C15.099 7.30205 14.756 7.13483 14.5028 6.83826C14.2497 6.54168 14.107 6.13982 14.1058 5.7204V1.583C14.107 1.16358 14.2497 0.761726 14.5028 0.465148C14.756 0.168571 15.099 0.00135517 15.457 0ZM17.7337 1.94792L19.4884 3.3793C19.5257 3.40656 19.5565 3.4444 19.578 3.48933C19.5995 3.53425 19.6109 3.5848 19.6113 3.63628C19.6119 3.68656 19.6021 3.73625 19.5826 3.78104C19.5631 3.82583 19.5345 3.86436 19.4994 3.89326L17.7447 5.30409C17.6982 5.35056 17.6391 5.37608 17.578 5.37605C17.5099 5.3727 17.4457 5.33831 17.3989 5.28021C17.3522 5.22211 17.3267 5.14491 17.3279 5.0651V2.19719C17.3279 2.11608 17.3554 2.0383 17.4044 1.98095C17.4533 1.9236 17.5197 1.89138 17.589 1.89138C17.6442 1.8912 17.6981 1.91193 17.7425 1.95049L17.7337 1.94792ZM15.6039 11.5076C15.5187 11.4996 15.4393 11.4543 15.3813 11.3807C15.3234 11.3071 15.2912 11.2107 15.2912 11.1106C15.2912 11.0105 15.3234 10.914 15.3813 10.8405C15.4393 10.7669 15.5187 10.7216 15.6039 10.7135H22.7106C22.7957 10.7216 22.8752 10.7669 22.9331 10.8405C22.9911 10.914 23.0233 11.0105 23.0233 11.1106C23.0233 11.2107 22.9911 11.3071 22.9331 11.3807C22.8752 11.4543 22.7957 11.4996 22.7106 11.5076H15.6039ZM17.6833 14.0415C17.5981 14.0334 17.5186 13.9881 17.4607 13.9145C17.4028 13.841 17.3706 13.7445 17.3706 13.6444C17.3706 13.5443 17.4028 13.4479 17.4607 13.3743C17.5186 13.3007 17.5981 13.2554 17.6833 13.2474H22.7281C22.7749 13.243 22.822 13.25 22.8664 13.2679C22.9107 13.2859 22.9514 13.3144 22.986 13.3517C23.0205 13.389 23.048 13.4342 23.0668 13.4846C23.0857 13.535 23.0954 13.5894 23.0954 13.6444C23.0954 13.6994 23.0857 13.7538 23.0668 13.8042C23.048 13.8546 23.0205 13.8999 22.986 13.9372C22.9514 13.9745 22.9107 14.003 22.8664 14.0209C22.822 14.0389 22.7749 14.0459 22.7281 14.0415H17.6833Z" fill="#DF252A"/>
</svg>
