<svg width="90" height="90" viewBox="0 0 90 90" fill="none" xmlns="http://www.w3.org/2000/svg">
<circle cx="45" cy="45" r="45" fill="#E4E7E9" fill-opacity="0.4"/>
<mask id="mask0_548_32908" style="mask-type:alpha" maskUnits="userSpaceOnUse" x="0" y="0" width="90" height="90">
<circle cx="45" cy="45" r="45" fill="white"/>
</mask>
<g mask="url(#mask0_548_32908)">
<path opacity="0.2" d="M71.2048 34.068V89.3649C71.2048 91.0308 69.8769 92.3778 68.1995 92.3778H22.2803C20.3582 92.3778 18.7856 90.9245 18.7856 89.1167V34.068C18.7856 32.2602 20.3582 30.8423 22.2803 30.8423H32.8401V32.2608C32.8401 33.7141 33.8034 34.6918 35.2711 34.6918H53.909C55.3768 34.6918 57.1504 34.5244 57.1504 33.0711V30.7358L67.7102 30.8423C69.6322 30.8423 71.2048 32.2602 71.2048 34.068Z" fill="#2B2A29"/>
<rect x="23.348" y="32.4625" width="43.3028" height="52.4192" rx="2" fill="white"/>
<path d="M57.1506 28.8243V34.0741C57.1506 35.2971 56.0936 36.3113 54.7483 36.3113H35.2424C33.8972 36.3113 32.8402 35.2971 32.8402 34.0741V28.8243C32.8402 27.6013 33.8972 26.5872 35.2424 26.5872H54.7483C56.0936 26.5872 57.1506 27.6013 57.1506 28.8243Z" fill="#727271"/>
</g>
</svg>
