<svg width="27" height="32" viewBox="0 0 27 32" fill="none" xmlns="http://www.w3.org/2000/svg">
<path fill-rule="evenodd" clip-rule="evenodd" d="M0.601866 16.694H2.44453C2.3346 16.6601 2.2373 16.585 2.16756 16.4804C2.09783 16.3757 2.05953 16.2473 2.05855 16.1148V0.59694C2.05912 0.438828 2.1133 0.287382 2.20928 0.175578C2.30526 0.0637749 2.43527 0.00066856 2.571 0H24.0898C24.2255 0.00066856 24.3555 0.0637749 24.4515 0.175578C24.5475 0.287382 24.6016 0.438828 24.6022 0.59694V16.1123C24.6021 16.2446 24.5644 16.3732 24.495 16.478C24.4255 16.5828 24.3283 16.6578 24.2184 16.6915H26.1941C26.3534 16.6915 26.5061 16.765 26.6189 16.8959C26.7317 17.0268 26.7954 17.2045 26.796 17.39C26.7954 17.5757 26.7318 17.7537 26.6191 17.885C26.5063 18.0163 26.3536 18.0904 26.1941 18.0911H21.1153C21.0984 17.3245 20.8934 16.5797 20.5244 15.9446H23.7954V0.937323H2.93517V15.9446H4.74294C4.66796 16.0709 4.60091 16.2034 4.54232 16.3409C4.46537 16.5246 4.40473 16.717 4.36133 16.915L4.3417 17.0166C4.30939 17.1837 4.28897 17.3536 4.28064 17.5246C4.27176 17.7153 4.27687 17.9065 4.29591 18.0962H0.601866C0.522542 18.0958 0.444051 18.0773 0.370874 18.0416C0.297698 18.006 0.231269 17.9539 0.175381 17.8883C0.119493 17.8227 0.0752397 17.745 0.0451484 17.6595C0.0150572 17.574 -0.000282935 17.4824 3.95074e-06 17.39C0.000289799 17.2983 0.0160842 17.2075 0.0464855 17.1229C0.0768867 17.0383 0.121299 16.9614 0.177187 16.8968C0.233076 16.8322 0.299345 16.781 0.372212 16.7462C0.445078 16.7114 0.523115 16.6937 0.601866 16.694ZM12.9815 15.9446H13.6357C13.4452 16.2664 13.2981 16.6202 13.1995 16.9937L13.1734 16.7397C13.1492 16.5404 13.1098 16.3441 13.0556 16.1529C13.0338 16.0767 13.0098 16.0031 12.9837 15.9319L12.9815 15.9446Z" fill="#DF252A"/>
<path fill-rule="evenodd" clip-rule="evenodd" d="M11.1621 10.1995C11.1903 9.91264 10.4705 8.81882 10.3404 8.29368C10.0585 7.76599 9.95878 6.92321 10.2645 6.36477C10.3881 6.14447 10.3339 5.74997 10.3339 5.44258C10.3339 2.39935 14.8457 2.39935 14.8457 5.44258C14.8457 5.82682 14.772 6.11885 14.9476 6.42369C15.2425 6.93601 15.0907 7.8249 14.8414 8.29625C14.6809 8.847 13.9264 9.88702 13.9741 10.1995C14.0218 11.7621 11.1556 11.7109 11.1556 10.1995H11.1621ZM12.8055 12.8995H12.9638C12.998 12.8995 13.0318 12.8916 13.0634 12.8761C13.0949 12.8607 13.1236 12.838 13.1478 12.8095C13.1719 12.7809 13.1911 12.747 13.2042 12.7098C13.2172 12.6725 13.224 12.6325 13.224 12.5921V12.0952C13.224 12.0548 13.2172 12.0148 13.2042 11.9775C13.1911 11.9402 13.1719 11.9063 13.1478 11.8778C13.1236 11.8493 13.0949 11.8266 13.0634 11.8112C13.0318 11.7957 12.998 11.7878 12.9638 11.7878H12.025C11.9908 11.7878 11.957 11.7957 11.9254 11.8112C11.8939 11.8266 11.8652 11.8493 11.841 11.8778C11.8169 11.9063 11.7977 11.9402 11.7846 11.9775C11.7716 12.0148 11.7648 12.0548 11.7648 12.0952V12.5921C11.7648 12.6325 11.7716 12.6725 11.7846 12.7098C11.7977 12.747 11.8169 12.7809 11.841 12.8095C11.8652 12.838 11.8939 12.8607 11.9254 12.8761C11.957 12.8916 11.9908 12.8995 12.025 12.8995H12.1854L11.8776 14.0753H13.1025L12.8055 12.8995ZM7.12939 14.0753C7.29634 11.5393 8.31102 12.7945 10.3816 11.2575L11.5155 14.0753H7.12939ZM17.9461 14.0753C17.7813 11.5393 16.7645 12.7945 14.6939 11.2575L13.56 14.0753H17.9461Z" fill="#DF252A"/>
<path fill-rule="evenodd" clip-rule="evenodd" d="M11.0625 26.714C12.0291 24.4567 15.0773 26.3713 15.3282 23.8408C15.361 23.511 14.7064 22.6271 14.5558 22.037C14.2351 21.4315 14.1194 20.4703 14.4707 19.8313C14.6104 19.5736 14.5515 18.7567 14.5515 18.4088C14.5515 14.9301 19.714 14.9275 19.714 18.4088C19.714 18.8495 19.6289 19.5504 19.8296 19.8957C20.17 20.4755 19.9955 21.501 19.7096 22.037C19.5263 22.6658 18.8368 23.4955 18.8892 23.8408C19.3256 26.4357 22.2036 24.1732 22.8626 26.714H11.0625Z" fill="#DF252A"/>
<path fill-rule="evenodd" clip-rule="evenodd" d="M10.5979 27.5742H23.3224C23.8519 27.5763 24.3592 27.8296 24.7336 28.2788C25.1079 28.7279 25.319 29.3366 25.3208 29.9718V31.0211H8.604V29.9718C8.60631 29.3363 8.81788 28.7277 9.19262 28.2786C9.56735 27.8295 10.0748 27.5763 10.6045 27.5742H10.5979Z" fill="#DF252A"/>
<path fill-rule="evenodd" clip-rule="evenodd" d="M9.20033 15.7154L6.781 16.0871C6.57566 16.1193 6.37744 16.198 6.1971 16.3188C6.01672 16.4426 5.85965 16.609 5.73556 16.8076C5.60853 17.0025 5.51449 17.2247 5.45863 17.462C5.40748 17.7006 5.3951 17.9486 5.42214 18.1927L5.91803 21.4237C5.94345 21.6673 6.0091 21.9027 6.11123 22.1162C6.21566 22.3302 6.35594 22.5165 6.5234 22.6636C6.68689 22.8166 6.87495 22.9285 7.0761 22.9924C7.27725 23.0563 7.48727 23.0709 7.69335 23.0354L8.47689 22.9106C8.63507 23.0948 8.8044 23.265 8.98352 23.4198C9.1932 23.5983 9.41591 23.7543 9.64899 23.8858C9.88825 24.0215 10.1367 24.133 10.3918 24.2193C10.6575 24.3089 10.9289 24.3736 11.2032 24.4128C11.2443 24.4208 11.2865 24.4145 11.3246 24.3946C11.3627 24.3747 11.3951 24.3421 11.4179 24.3008C11.4357 24.2724 11.4483 24.2399 11.455 24.2054C11.4616 24.1709 11.4621 24.1352 11.4565 24.1005C11.4508 24.0657 11.4391 24.0328 11.4221 24.0037C11.4051 23.9746 11.3832 23.9501 11.3578 23.9316C11.2252 23.8274 11.1015 23.708 10.9885 23.5751C10.892 23.4614 10.8077 23.3339 10.7374 23.1958C10.663 23.0532 10.5914 22.9081 10.5227 22.7604L10.4583 22.5898L11.2075 22.4727C11.413 22.4412 11.6113 22.3625 11.7914 22.241C12.1513 21.9859 12.4149 21.5767 12.5277 21.0978C12.5792 20.8635 12.4097 20.1914 12.3839 19.9393L12.0683 17.1386C12.0416 16.8953 11.976 16.6603 11.8751 16.4461C11.7187 16.1241 11.4847 15.8648 11.2032 15.7015C10.9217 15.5382 10.6055 15.4783 10.2952 15.5295L9.20033 15.7026V15.7154ZM10.424 17.8337C10.4751 17.8209 10.5205 17.7864 10.5517 17.7367C10.5829 17.6871 10.5978 17.6256 10.5935 17.5638C10.5876 17.503 10.5618 17.4473 10.5217 17.4088C10.4815 17.3702 10.4303 17.3519 10.3789 17.3576L7.15882 17.9152C7.1081 17.9285 7.06318 17.9632 7.03239 18.0128C7.0016 18.0625 6.98703 18.1237 6.99138 18.1851C6.99732 18.2459 7.02313 18.3016 7.06325 18.3401C7.10338 18.3787 7.15464 18.397 7.20605 18.3913L10.4261 17.8337H10.424ZM10.9671 20.8075C11.0182 20.7947 11.0636 20.7603 11.0948 20.7106C11.126 20.6609 11.1409 20.5994 11.1367 20.5376C11.1307 20.4768 11.1049 20.4212 11.0648 20.3826C11.0247 20.3441 10.9734 20.3257 10.922 20.3314L7.70194 20.889C7.65122 20.9023 7.6063 20.937 7.57551 20.9867C7.54472 21.0363 7.53014 21.0975 7.53449 21.1589C7.54044 21.2197 7.56624 21.2754 7.60637 21.3139C7.64649 21.3525 7.69775 21.3709 7.74916 21.3651L10.9692 20.8075H10.9671ZM9.73701 19.509C9.76295 19.5044 9.78786 19.4937 9.81032 19.4776C9.83278 19.4615 9.85235 19.4403 9.8679 19.4153C9.88345 19.3902 9.89468 19.3617 9.90096 19.3315C9.90723 19.3013 9.90841 19.2699 9.90445 19.2391C9.8985 19.1783 9.8727 19.1227 9.83258 19.0841C9.79245 19.0456 9.74119 19.0272 9.68978 19.0329L7.45292 19.4479C7.42698 19.4526 7.40206 19.4633 7.3796 19.4794C7.35714 19.4954 7.33758 19.5166 7.32203 19.5417C7.30648 19.5668 7.29524 19.5952 7.28897 19.6254C7.2827 19.6557 7.28151 19.687 7.28548 19.7178C7.29089 19.7789 7.31654 19.835 7.3568 19.8737C7.39706 19.9123 7.44862 19.9305 7.50015 19.924L9.7413 19.5065L9.73701 19.509Z" fill="#DF252A"/>
<path fill-rule="evenodd" clip-rule="evenodd" d="M18.8391 2.20092L21.2466 2.56666C21.4516 2.59742 21.6496 2.67331 21.8297 2.79018C22.0099 2.90992 22.1669 3.07067 22.2913 3.2626C22.4182 3.45076 22.512 3.66559 22.5674 3.89504C22.6181 4.12654 22.6301 4.36702 22.6027 4.60367L22.1102 7.72014C22.0831 7.95584 22.0171 8.18343 21.9158 8.39067C21.8115 8.59707 21.6717 8.77683 21.505 8.91898C21.3411 9.06764 21.1535 9.17808 20.9528 9.24408C20.752 9.30597 20.5424 9.32066 20.3366 9.28726L19.5547 9.16789C19.4001 9.34539 19.2348 9.51006 19.0599 9.66063C18.8518 9.83405 18.63 9.98457 18.3973 10.1102C18.1593 10.243 17.9118 10.3517 17.6574 10.4353C17.3918 10.5216 17.1208 10.5844 16.8468 10.6233C16.7961 10.6334 16.744 10.6228 16.6993 10.5934C16.6547 10.564 16.6203 10.5176 16.6023 10.4622C16.5842 10.4068 16.5835 10.3459 16.6004 10.2899C16.6172 10.234 16.6504 10.1866 16.6944 10.1559C16.8262 10.0547 16.9496 9.93996 17.0633 9.81302C17.1515 9.7004 17.2285 9.57689 17.293 9.44474C17.3659 9.30758 17.4365 9.16535 17.4984 9.02311L17.5624 8.86564L16.8181 8.75388C16.6121 8.72303 16.4133 8.64625 16.2328 8.52783C16.0528 8.40869 15.8964 8.24781 15.7734 8.05541C15.6456 7.86695 15.5517 7.65108 15.4973 7.42043C15.4465 7.19438 15.6144 6.54416 15.6409 6.30033L15.9678 3.58771C15.9948 3.3512 16.0608 3.12277 16.1621 2.91463C16.265 2.7086 16.4032 2.52883 16.5685 2.38633C16.7316 2.23872 16.9191 2.13084 17.1196 2.06927C17.3201 2.0077 17.5294 1.99373 17.7347 2.0282L18.8391 2.19584V2.20092ZM17.0721 7.13088C17.0215 7.12088 16.9762 7.089 16.9454 7.04177C16.9146 6.99454 16.9006 6.93554 16.9065 6.87689C16.9092 6.84689 16.9171 6.81782 16.9298 6.79139C16.9424 6.76497 16.9595 6.74172 16.9801 6.72302C17.0007 6.70432 17.0243 6.69055 17.0496 6.68251C17.0749 6.67448 17.1013 6.67234 17.1273 6.67624L20.3299 7.21216C20.3807 7.22215 20.4263 7.25394 20.4574 7.30109C20.4886 7.34824 20.503 7.40723 20.4978 7.46615C20.4948 7.49602 20.4867 7.52491 20.4739 7.55116C20.4612 7.57742 20.4441 7.60053 20.4236 7.61917C20.4031 7.63781 20.3795 7.65161 20.3544 7.65978C20.3292 7.66796 20.3029 7.67034 20.2769 7.6668L17.0721 7.13088ZM17.6155 4.25062C17.5647 4.24063 17.5191 4.20884 17.488 4.16169C17.4568 4.11454 17.4424 4.05555 17.4476 3.99663C17.4503 3.96663 17.4582 3.93756 17.4709 3.91114C17.4835 3.88471 17.5007 3.86146 17.5212 3.84276C17.5418 3.82406 17.5655 3.81029 17.5907 3.80226C17.616 3.79422 17.6425 3.79209 17.6685 3.79598L20.8711 4.32936C20.9218 4.33935 20.9674 4.37114 20.9986 4.41829C21.0297 4.46544 21.0442 4.52444 21.0389 4.58335C21.0359 4.61322 21.0278 4.64211 21.0151 4.66837C21.0023 4.69463 20.9852 4.71774 20.9647 4.73638C20.9442 4.75501 20.9207 4.76882 20.8955 4.77699C20.8704 4.78516 20.844 4.78755 20.8181 4.784L17.611 4.25062H17.6155ZM17.4189 5.71361C17.3659 5.70553 17.3178 5.67356 17.2853 5.62473C17.2528 5.57591 17.2385 5.51423 17.2455 5.45327C17.2525 5.39231 17.2803 5.33705 17.3228 5.29966C17.3652 5.26227 17.4189 5.2458 17.4719 5.25389L19.0975 5.53582C19.1485 5.54524 19.1944 5.57688 19.2256 5.62417C19.2569 5.67146 19.2711 5.73078 19.2654 5.78981C19.2626 5.81981 19.2547 5.84888 19.2421 5.8753C19.2294 5.90173 19.2123 5.92498 19.1917 5.94368C19.1711 5.96238 19.1475 5.97615 19.1222 5.98418C19.0969 5.99222 19.0705 5.99435 19.0445 5.99046L17.4145 5.71361H17.4189Z" fill="#FB5559"/>
</svg>
