<svg width="36" height="36" viewBox="0 0 36 36" fill="none" xmlns="http://www.w3.org/2000/svg">
<circle cx="17.9592" cy="17.9592" r="17.9592" fill="#FFE2E4"/>
<path d="M17.0083 8.05791C17.3076 7.1366 18.611 7.1366 18.9104 8.05791L20.6149 13.3038C20.7488 13.7158 21.1327 13.9948 21.5659 13.9948H27.0818C28.0505 13.9948 28.4533 15.2344 27.6696 15.8038L23.2072 19.0459C22.8567 19.3006 22.71 19.7519 22.8439 20.164L24.5484 25.4099C24.8477 26.3312 23.7933 27.0973 23.0095 26.5279L18.5471 23.2858C18.1966 23.0311 17.722 23.0311 17.3716 23.2858L12.9091 26.5279C12.1254 27.0973 11.0709 26.3312 11.3703 25.4099L13.0748 20.164C13.2087 19.7519 13.062 19.3006 12.7115 19.0459L8.24909 15.8038C7.46538 15.2344 7.86815 13.9948 8.83688 13.9948H14.3527C14.786 13.9948 15.1699 13.7158 15.3038 13.3038L17.0083 8.05791Z" fill="#ED1C24"/>
</svg>
