<svg width="19" height="20" viewBox="0 0 19 20" fill="none" xmlns="http://www.w3.org/2000/svg">
<path fill-rule="evenodd" clip-rule="evenodd" d="M10.6494 9.38965C10.6364 9.4222 10.6299 9.45801 10.6299 9.49382C10.6299 9.65658 10.7617 9.78841 10.9245 9.78841C11.0872 9.78841 11.2191 9.65658 11.2191 9.49382C11.2191 9.44662 11.2077 9.40267 11.1882 9.36361C11.3167 9.37825 11.4469 9.40592 11.5771 9.44824C11.6325 9.46615 11.6911 9.42871 11.7074 9.36686C11.7236 9.30339 11.6911 9.23828 11.6357 9.21875C11.4225 9.14876 11.2109 9.11458 10.9994 9.11458C10.7878 9.11458 10.5794 9.15039 10.3711 9.21875C10.3158 9.23665 10.2832 9.30339 10.2995 9.36686C10.3158 9.43034 10.3744 9.46615 10.4297 9.44824C10.5029 9.42383 10.5762 9.4043 10.6494 9.38965ZM12.0671 14.7135C11.8473 14.4564 11.6162 14.1211 11.4128 13.8216C10.2979 14.7347 8.81022 14.9756 7.37956 13.7386C7.36979 13.7516 7.36003 13.7646 7.35189 13.7793C7.17122 14.043 6.9694 14.3424 6.76921 14.5915C7.67904 19.3929 11.4958 19.4971 12.0671 14.7135ZM11.7008 13.5645C11.8327 13.7581 11.9775 13.9697 12.1208 14.1634C13.1169 15.0212 15.9619 15.2002 17.0247 15.7926C17.3633 15.9814 17.6709 16.2223 17.9167 16.5479C18.5319 17.3584 18.584 18.0436 18.807 19.0381C18.7533 19.6175 18.4245 19.9512 17.7767 20H1.03027C0.384115 19.9512 0.0553386 19.6175 0 19.0381C0.222982 18.0436 0.275065 17.36 0.8903 16.5479C1.13607 16.2223 1.44369 15.9814 1.78223 15.7926C2.79297 15.2295 5.40853 15.0407 6.52181 14.2887C6.69596 14.0641 6.87663 13.7988 7.03613 13.5628L7.08496 13.4912L7.12565 13.5026C6.65527 13.0339 6.19303 12.3975 5.75684 11.5658C5.75358 11.5495 5.75195 11.5332 5.75195 11.5169V11.0645C5.72754 11.0677 5.70313 11.0693 5.67871 11.0645C5.22787 10.9977 4.98535 10.446 4.92676 9.91862C4.91048 9.77376 4.90723 9.62891 4.91862 9.50033C4.93001 9.36198 4.95606 9.2334 4.99675 9.13086C5.08626 8.90462 5.24089 8.7793 5.4655 8.82162C5.57292 8.84115 5.67057 8.89649 5.75358 8.99089V8.80534C5.49967 8.66374 5.39876 8.18522 5.36784 7.736H5.3597V7.55534C5.35645 7.44466 5.35645 7.3405 5.3597 7.24609V4.56217L9.64356 6.20606L13.8216 4.56217V7.22331H13.8363C13.8298 7.264 13.8249 7.30632 13.8216 7.35026V7.736L13.7939 7.73438C13.7647 8.16081 13.7093 8.61816 13.3968 8.81185C13.5938 8.7972 13.7321 8.91927 13.8151 9.1276C13.8558 9.23177 13.8818 9.35872 13.8932 9.49707C13.903 9.62728 13.8997 9.77051 13.8851 9.91536C13.8265 10.4443 13.584 10.9961 13.1331 11.0612C13.0632 11.071 13.0745 11.0417 13.0745 11.1296C12.8467 12.0459 12.3551 12.9232 11.7008 13.5645ZM9.56055 0L16.8262 2.74902L16.2581 2.97526V4.94466C16.4128 5.04232 16.5153 5.22135 16.5153 5.42643C16.5153 5.73568 16.2793 5.98796 15.9896 5.98796C15.6982 5.98796 15.4622 5.7373 15.4622 5.42643C15.4622 5.22135 15.5664 5.04232 15.721 4.94466V3.18848L14.7933 3.55794V4.94466C14.9479 5.04232 15.0505 5.22135 15.0505 5.42643C15.0505 5.73568 14.8145 5.98796 14.5231 5.98796C14.2318 5.98796 13.9974 5.7373 13.9974 5.42643C13.9974 5.22135 14.0999 5.04232 14.2546 4.94466V3.77116L9.56055 5.63802L2.40234 2.83366L9.56055 0ZM8.47494 12.8451C8.39844 12.7979 8.37402 12.6969 8.42123 12.6204C8.46843 12.5439 8.56934 12.5195 8.64583 12.5667C8.91276 12.7295 9.17155 12.8076 9.4222 12.8044C9.67122 12.8027 9.91699 12.7214 10.1611 12.5667C10.2376 12.5179 10.3385 12.5407 10.3874 12.6172C10.4362 12.6937 10.4134 12.7946 10.3369 12.8434C10.0407 13.0306 9.73633 13.1283 9.42383 13.1299C9.1097 13.1315 8.79395 13.0387 8.47494 12.8451ZM11.3281 7.64648C9.52962 7.59603 7.77832 7.58952 6.0791 7.68717C6.04655 7.69531 6.014 7.70345 5.98145 7.71159V11.5153C8.26497 15.9066 11.8197 14.5589 12.8223 11.1328V7.69857C12.264 7.70671 11.7741 7.68392 11.3281 7.64648ZM13.0957 10.8268V9.45475C13.1543 9.20573 13.2633 9.07715 13.387 9.05436C13.8151 8.97461 13.7467 10.7324 13.0957 10.8268ZM9.03809 11.4323C8.97949 11.3835 8.97298 11.2972 9.02181 11.2402C9.07064 11.1816 9.1569 11.1751 9.21387 11.2223C9.28223 11.2793 9.34733 11.3102 9.41081 11.3102C9.47429 11.3102 9.54264 11.2826 9.61589 11.2207C9.67448 11.1735 9.75912 11.1816 9.80794 11.2402C9.85514 11.2988 9.84701 11.3835 9.79004 11.4323C9.66471 11.5365 9.53613 11.5853 9.40755 11.5837C9.27734 11.582 9.15527 11.5299 9.03809 11.4323ZM5.71126 10.8268V9.45475C5.65267 9.20573 5.54362 9.07715 5.41992 9.05436C4.99186 8.97461 5.06022 10.7324 5.71126 10.8268ZM7.2347 9.47754C7.17936 9.4987 7.12077 9.46615 7.10124 9.40267C7.08171 9.34082 7.111 9.27246 7.16634 9.2513C7.37793 9.16829 7.59115 9.13086 7.80436 9.13249C8.01595 9.13412 8.22754 9.1748 8.43913 9.2513C8.49447 9.27083 8.52539 9.33757 8.50749 9.40104C8.48958 9.46289 8.43099 9.4987 8.37565 9.47917C8.30567 9.45313 8.23568 9.43359 8.16569 9.41569C8.1722 9.44173 8.17708 9.46777 8.17708 9.49544C8.17708 9.6582 8.04525 9.79004 7.88249 9.79004C7.71973 9.79004 7.58789 9.6582 7.58789 9.49544C7.58789 9.45475 7.59603 9.41732 7.61068 9.38314C7.48535 9.39779 7.36003 9.42871 7.2347 9.47754Z" fill="black"/>
</svg>
