<svg width="92" height="20" viewBox="0 0 92 20" fill="none" xmlns="http://www.w3.org/2000/svg">
<path d="M17.4668 11.3478C17.5664 4.35518 22.6438 -0.391294 29.5797 0.0254194C35.0223 0.350659 37.9924 3.28798 37.9648 8.30887C37.9316 15.0068 33.54 19.7482 27.1461 19.987C20.8131 20.2259 17.3838 17.1615 17.4668 11.3478ZM33.5897 9.17279C33.634 6.72841 33.2026 4.73632 30.8298 3.69453C28.8718 2.83061 25.874 3.5065 24.2312 5.17336C22.2843 7.14004 21.5929 9.55393 21.7533 12.1508C21.8695 13.9955 22.6826 15.5404 24.6793 16.3332C26.7313 17.1513 28.5952 16.7397 30.2601 15.5201C32.5554 13.8329 33.3851 11.485 33.5897 9.17279Z" fill="#00397B"/>
<path d="M44.3533 16.2675C48.3135 16.2675 52.0027 16.2675 55.88 16.2675C55.5702 17.4923 55.3269 18.4324 55.0725 19.4335C49.8125 19.4335 44.7073 19.4335 39.2261 19.4335C40.6752 13.0405 42.0911 6.77458 43.5181 0.462891C48.8003 0.462891 53.9165 0.462891 59.0327 0.462891C58.8336 3.80168 58.8336 3.80168 55.4596 3.80168C53.8888 3.80168 52.3125 3.80168 50.7417 3.80168C46.7095 3.80676 46.7095 3.80676 46.4551 8.04505C49.7903 8.04505 53.1255 8.04505 56.7207 8.04505C56.4165 9.29011 56.1897 10.2252 55.9353 11.272C53.3191 11.272 50.8302 11.455 48.3855 11.2212C45.902 10.9875 44.8954 11.8615 44.8179 14.0264C44.7848 14.682 44.5469 15.3274 44.3533 16.2675Z" fill="#00397B"/>
<path d="M74.5418 8.33392C74.6745 10.9867 73.5794 11.7134 71.1236 11.6524C64.9952 11.4999 64.9952 11.6066 63.7452 17.1256C63.5793 17.8624 63.3691 18.5891 63.1534 19.4276C61.8204 19.4276 60.5262 19.4276 58.8945 19.4276C60.3547 13.0651 61.7873 6.79919 63.2364 0.482422C68.1313 0.482422 72.8327 0.482422 77.5341 0.482422C77.617 3.67892 77.4622 3.83138 74.1214 3.82121C73.1258 3.82121 72.1303 3.81105 71.1402 3.81105C66.5771 3.81105 66.5771 3.81105 65.9023 8.32883C68.7398 8.33392 71.5606 8.33392 74.5418 8.33392Z" fill="#00397B"/>
<path d="M3.00335 19.3878C4.14827 14.2144 5.26 9.18335 6.43258 3.87279C4.16486 3.87279 2.28984 3.87279 0 3.87279C0.254427 2.60232 0.453544 1.61136 0.674785 0.513672C6.44364 0.513672 12.124 0.513672 17.8044 0.513672C17.2955 3.80164 17.2844 3.95918 13.7722 3.75083C11.4658 3.61361 10.5532 4.33524 10.2047 6.36799C9.63504 9.66613 8.77773 12.9236 8.08636 16.2065C7.35626 19.6977 7.37839 19.7028 3.00335 19.3878Z" fill="#00397B"/>
<path d="M91.4278 16.2292C91.555 18.765 90.6092 19.7611 87.8603 19.5883C84.0992 19.3494 80.3049 19.5273 76.3447 19.5273C77.827 13.0479 79.2485 6.82771 80.6921 0.505859C82.097 0.505859 83.3802 0.505859 84.9842 0.505859C83.8448 5.66904 82.7109 10.8068 81.5162 16.2292C85.0616 16.2292 88.253 16.2292 91.4278 16.2292Z" fill="#00397B"/>
</svg>
